{"glyphs":{"0":{"ha":606,"x_min":56,"x_max":549,"o":"m 549 496 q 535 284 549 378 q 493 124 522 190 q 417 22 464 58 q 302 -13 370 -13 q 169 35 224 -13 q 85 194 114 83 q 56 496 56 305 q 83 780 56 667 q 165 949 111 893 q 302 1006 220 1006 q 441 948 387 1006 q 522 778 495 891 q 549 496 549 665 m 185 496 q 197 277 185 364 q 234 145 208 189 q 302 102 260 102 q 371 146 345 102 q 409 277 397 190 q 420 496 420 365 q 409 714 420 626 q 371 846 397 802 q 302 890 345 890 q 234 846 260 890 q 197 715 208 802 q 185 496 185 627 z "},"1":{"ha":606,"x_min":83,"x_max":425,"o":"m 425 0 l 298 0 l 298 656 q 298 716 298 686 q 300 777 299 746 q 302 838 301 808 q 279 809 294 825 q 243 772 265 793 l 156 685 l 83 762 l 314 991 l 425 991 l 425 0 z "},"2":{"ha":606,"x_min":45,"x_max":539,"o":"m 539 0 l 45 0 l 45 94 l 240 376 q 332 522 299 461 q 379 634 365 582 q 393 746 393 686 q 360 853 393 814 q 267 892 328 892 q 189 875 224 892 q 115 819 154 859 l 51 905 q 122 963 87 941 q 195 996 157 985 q 279 1006 234 1006 q 408 974 353 1006 q 491 885 462 942 q 520 752 520 828 q 503 611 520 676 q 448 481 485 547 q 353 338 411 416 l 196 119 l 196 114 l 539 114 l 539 0 z "},"3":{"ha":606,"x_min":48,"x_max":541,"o":"m 524 762 q 505 656 524 704 q 449 575 486 609 q 359 521 412 541 l 359 516 q 494 434 447 496 q 541 273 541 372 q 507 122 541 187 q 411 22 474 58 q 260 -14 349 -14 q 149 -4 199 -14 q 52 28 100 5 l 52 153 q 146 111 97 125 q 245 97 196 97 q 368 147 328 97 q 408 279 408 197 q 386 377 408 338 q 319 437 363 417 q 208 456 275 456 l 157 456 l 157 566 l 212 566 q 311 589 270 566 q 375 652 353 611 q 397 749 397 693 q 363 857 397 819 q 267 895 330 895 q 209 887 235 895 q 157 864 182 879 q 106 825 132 848 l 48 916 q 159 985 102 964 q 286 1006 216 1006 q 460 941 396 1006 q 524 762 524 876 z "},"4":{"ha":606,"x_min":23,"x_max":587,"o":"m 587 214 l 484 214 l 484 0 l 359 0 l 359 214 l 23 214 l 23 318 l 351 998 l 484 998 l 484 321 l 587 321 l 587 214 m 358 321 l 358 679 q 359 713 358 693 q 360 755 359 734 q 361 796 361 777 q 363 827 362 815 l 358 827 q 335 766 347 795 q 311 709 323 736 l 133 321 l 358 321 z "},"5":{"ha":606,"x_min":68,"x_max":545,"o":"m 304 614 q 433 577 379 614 q 515 474 486 540 q 545 320 545 408 q 511 145 545 220 q 414 28 478 70 q 254 -14 349 -14 q 150 -3 196 -14 q 68 29 104 8 l 68 153 q 153 112 107 127 q 245 97 199 97 q 340 126 302 97 q 396 205 378 156 q 415 316 415 255 q 374 457 415 409 q 254 506 332 506 q 190 500 222 506 q 125 483 157 494 l 77 526 l 107 991 l 492 991 l 492 877 l 214 877 l 195 602 q 251 611 224 608 q 304 614 279 614 z "},"6":{"ha":606,"x_min":59,"x_max":551,"o":"m 59 422 q 71 622 59 530 q 107 784 83 713 q 171 905 132 855 q 265 980 210 954 q 393 1005 320 1005 q 450 1002 422 1005 q 501 991 478 998 l 501 880 q 453 890 478 886 q 399 894 427 894 q 283 852 330 894 q 210 726 235 810 q 180 517 184 643 l 186 517 q 222 577 200 551 q 275 617 245 603 q 344 631 306 631 q 459 590 413 631 q 528 478 505 549 q 551 317 551 407 q 524 146 551 221 q 444 29 497 72 q 313 -14 391 -14 q 204 15 252 -14 q 124 99 157 43 q 76 235 92 154 q 59 422 59 317 m 311 99 q 394 153 364 99 q 425 314 425 206 q 396 467 425 415 q 311 519 368 519 q 244 496 271 519 q 203 435 217 473 q 189 351 189 397 q 195 267 189 311 q 216 184 201 222 q 253 122 230 146 q 311 99 277 99 z "},"7":{"ha":606,"x_min":45,"x_max":554,"o":"m 128 0 l 425 877 l 45 877 l 45 991 l 554 991 l 554 899 l 262 0 l 128 0 z "},"8":{"ha":606,"x_min":46,"x_max":559,"o":"m 304 1006 q 430 977 378 1006 q 509 897 481 949 q 537 774 537 845 q 520 672 537 718 q 470 588 503 626 q 385 519 436 550 q 477 444 438 483 q 538 358 517 405 q 559 252 559 311 q 529 113 559 173 q 441 20 498 54 q 307 -14 385 -14 q 166 18 224 -14 q 77 109 108 50 q 46 246 46 168 q 64 353 46 304 q 118 443 82 402 q 209 518 155 484 q 132 594 163 554 q 86 678 101 633 q 71 772 71 723 q 99 896 71 844 q 181 977 128 948 q 304 1006 233 1006 m 171 246 q 205 135 171 178 q 302 92 239 92 q 402 136 368 92 q 435 252 435 180 q 424 318 435 286 q 387 380 412 350 q 319 440 361 411 l 294 458 q 223 398 250 429 q 183 330 196 367 q 171 246 171 293 m 303 900 q 223 864 253 900 q 193 764 193 827 q 205 693 193 724 q 242 634 218 661 q 302 581 266 607 q 367 635 342 608 q 403 694 391 663 q 414 764 414 726 q 385 864 414 827 q 303 900 355 900 z "},"9":{"ha":606,"x_min":51,"x_max":542,"o":"m 542 577 q 530 374 542 467 q 492 210 517 281 q 426 88 466 138 q 332 13 387 39 q 207 -14 277 -14 q 148 -9 180 -14 q 95 1 117 -5 l 95 114 q 144 101 117 106 q 201 97 171 97 q 326 148 279 97 q 396 285 373 199 q 421 475 418 371 l 416 475 q 379 415 401 440 q 326 375 356 389 q 258 361 296 361 q 142 402 189 361 q 74 514 96 443 q 51 674 51 585 q 78 845 51 770 q 159 963 105 920 q 294 1006 213 1006 q 400 978 354 1006 q 478 895 447 949 q 526 760 509 840 q 542 577 542 680 m 294 892 q 208 839 238 892 q 178 677 178 786 q 206 524 178 577 q 292 471 235 471 q 360 497 333 471 q 400 563 387 523 q 413 648 413 604 q 408 723 413 681 q 391 803 404 764 q 355 867 378 842 q 294 892 332 892 z "},"\u0000":{"ha":0,"x_min":0,"x_max":0,"o":""},"\r":{"ha":256,"x_min":0,"x_max":0,"o":""}," ":{"ha":256,"x_min":0,"x_max":0,"o":""},"!":{"ha":330,"x_min":85,"x_max":245,"o":"m 213 287 l 117 287 l 90 991 l 238 991 l 213 287 m 85 79 q 105 148 85 124 q 165 171 125 171 q 223 149 202 171 q 245 79 245 127 q 222 10 245 33 q 165 -12 200 -12 q 106 11 127 -12 q 85 79 85 35 z "},"\"":{"ha":539,"x_min":77,"x_max":463,"o":"m 218 991 l 196 633 l 100 633 l 77 991 l 218 991 m 463 991 l 441 633 l 345 633 l 322 991 l 463 991 z "},"#":{"ha":653,"x_min":27,"x_max":629,"o":"m 502 618 l 475 394 l 597 394 l 597 298 l 464 298 l 425 0 l 330 0 l 369 298 l 235 298 l 199 0 l 106 0 l 142 298 l 27 298 l 27 394 l 155 394 l 182 618 l 59 618 l 59 714 l 195 714 l 229 991 l 323 991 l 288 714 l 420 714 l 456 991 l 548 991 l 513 714 l 629 714 l 629 618 l 502 618 m 248 394 l 381 394 l 409 618 l 276 618 l 248 394 z "},"$":{"ha":606,"x_min":56,"x_max":551,"o":"m 268 -81 l 268 64 q 153 79 208 66 q 58 113 98 92 l 58 230 q 155 186 98 205 q 268 166 211 168 l 268 462 q 147 526 194 492 q 78 605 100 560 q 56 713 56 650 q 82 829 56 779 q 157 908 109 878 q 268 945 205 939 l 268 1055 l 338 1055 l 338 947 q 439 931 391 944 q 532 896 487 919 l 498 799 q 422 829 461 818 q 338 843 383 840 l 338 549 q 457 486 410 519 q 528 411 505 454 q 551 307 551 368 q 496 150 551 214 q 338 70 440 86 l 338 -81 l 268 -81 m 338 172 q 419 217 391 183 q 446 299 446 252 q 435 355 446 331 q 399 397 423 378 q 338 433 376 416 l 338 172 m 268 578 l 268 842 q 210 819 234 836 q 175 775 186 802 q 163 714 163 748 q 173 656 163 680 q 207 614 184 632 q 268 578 230 596 z "},"%":{"ha":949,"x_min":53,"x_max":897,"o":"m 220 1006 q 345 925 300 1006 q 389 696 389 844 q 345 465 389 547 q 220 383 301 383 q 96 466 140 383 q 53 696 53 548 q 96 926 53 846 q 220 1006 138 1006 m 220 916 q 169 861 184 916 q 153 696 153 806 q 169 530 153 585 q 221 475 185 475 q 272 529 256 475 q 288 696 288 583 q 271 861 288 807 q 220 916 254 916 m 699 991 l 345 0 l 247 0 l 602 991 l 699 991 m 728 610 q 852 529 808 610 q 897 300 897 448 q 853 68 897 149 q 728 -12 808 -12 q 604 70 648 -12 q 561 300 561 152 q 604 531 561 453 q 728 610 647 610 m 727 520 q 676 466 692 520 q 661 300 661 411 q 676 134 661 189 q 728 79 692 79 q 780 135 764 79 q 795 300 795 192 q 778 463 795 406 q 727 520 762 520 z "},"&":{"ha":687,"x_min":39,"x_max":690,"o":"m 297 1006 q 394 981 355 1006 q 455 908 434 956 q 476 794 476 861 q 444 645 476 710 q 349 524 412 579 l 486 298 q 512 380 502 334 q 526 481 523 427 l 653 481 q 624 329 647 410 q 564 187 600 249 l 690 0 l 539 0 l 481 98 q 418 38 452 62 q 345 0 385 13 q 258 -14 306 -14 q 136 21 184 -14 q 63 116 87 56 q 39 254 39 176 q 56 364 39 314 q 107 457 73 414 q 196 541 142 500 q 150 625 168 585 q 123 706 132 665 q 115 798 115 748 q 137 908 115 862 q 201 980 159 955 q 297 1006 242 1006 m 254 458 q 202 400 222 430 q 174 337 183 371 q 165 260 165 302 q 195 142 165 186 q 275 99 225 99 q 352 123 318 99 q 415 195 385 146 l 254 458 m 296 907 q 250 879 267 907 q 233 796 233 850 q 248 698 233 750 q 289 607 262 646 q 345 691 328 642 q 361 798 361 741 q 345 880 361 852 q 296 907 328 907 z "},"'":{"ha":293,"x_min":77,"x_max":218,"o":"m 218 991 l 196 633 l 100 633 l 77 991 l 218 991 z "},"(":{"ha":408,"x_min":66,"x_max":373,"o":"m 66 386 q 90 616 66 505 q 157 825 113 727 q 262 1002 201 922 l 373 1002 q 236 712 282 867 q 190 387 190 556 q 211 171 190 277 q 273 -34 232 64 q 372 -220 313 -133 l 262 -220 q 156 -45 199 -140 q 89 158 112 50 q 66 386 66 267 z "},")":{"ha":408,"x_min":36,"x_max":342,"o":"m 342 387 q 319 161 342 270 q 252 -45 296 52 q 146 -220 208 -141 l 37 -220 q 136 -33 95 -132 q 198 172 176 66 q 219 388 219 279 q 198 609 219 502 q 136 814 177 715 q 36 1002 96 913 l 146 1002 q 252 825 208 923 q 318 615 295 726 q 342 387 342 505 z "},"*":{"ha":562,"x_min":46,"x_max":515,"o":"m 343 1058 l 322 873 l 491 928 l 515 813 l 347 795 l 469 643 l 368 579 l 281 749 l 192 579 l 94 643 l 212 795 l 46 812 l 71 926 l 239 873 l 220 1058 l 343 1058 z "},"+":{"ha":609,"x_min":43,"x_max":564,"o":"m 357 542 l 564 542 l 564 438 l 357 438 l 357 164 l 252 164 l 252 438 l 43 438 l 43 542 l 252 542 l 252 819 l 357 819 l 357 542 z "},",":{"ha":319,"x_min":50,"x_max":248,"o":"m 239 163 l 248 149 q 219 32 235 89 q 186 -80 204 -26 q 146 -184 168 -134 l 50 -184 q 76 -66 64 -127 q 97 54 88 -5 q 111 163 106 113 l 239 163 z "},"-":{"ha":391,"x_min":38,"x_max":353,"o":"m 38 314 l 38 435 l 353 435 l 353 314 l 38 314 z "},".":{"ha":319,"x_min":80,"x_max":239,"o":"m 80 79 q 100 148 80 124 q 160 171 121 171 q 218 149 197 171 q 239 79 239 127 q 218 10 239 33 q 160 -12 196 -12 q 101 11 123 -12 q 80 79 80 35 z "},"/":{"ha":522,"x_min":24,"x_max":505,"o":"m 505 997 l 138 -5 l 24 -5 l 392 997 l 505 997 z "},":":{"ha":322,"x_min":81,"x_max":241,"o":"m 81 79 q 102 148 81 124 q 161 171 122 171 q 220 149 199 171 q 241 79 241 127 q 219 11 241 33 q 161 -12 197 -12 q 102 11 122 -12 q 81 79 81 35 m 81 661 q 102 730 81 707 q 161 753 122 753 q 220 730 200 753 q 241 662 241 707 q 219 592 241 615 q 161 569 197 569 q 102 593 123 569 q 81 661 81 616 z "},";":{"ha":322,"x_min":49,"x_max":248,"o":"m 239 163 l 248 149 q 220 32 235 89 q 186 -80 205 -26 q 146 -184 168 -134 l 49 -184 q 77 -65 64 -125 q 98 54 89 -4 q 111 163 106 113 l 239 163 m 82 662 q 102 730 82 707 q 162 753 122 753 q 221 730 201 753 q 241 662 241 707 q 219 592 241 615 q 162 569 197 569 q 103 593 123 569 q 82 662 82 616 z "},"<":{"ha":609,"x_min":40,"x_max":566,"o":"m 566 181 l 40 461 l 40 532 l 566 808 l 566 690 l 182 496 l 566 297 l 566 181 z "},"=":{"ha":609,"x_min":43,"x_max":564,"o":"m 43 587 l 43 690 l 564 690 l 564 587 l 43 587 m 43 288 l 43 391 l 564 391 l 564 288 l 43 288 z "},">":{"ha":609,"x_min":42,"x_max":568,"o":"m 42 297 l 427 496 l 42 690 l 42 808 l 568 532 l 568 461 l 42 181 l 42 297 z "},"?":{"ha":453,"x_min":15,"x_max":425,"o":"m 137 287 l 137 329 q 144 414 137 376 q 168 485 151 451 q 214 555 184 519 q 265 627 245 595 q 294 693 285 660 q 302 766 302 726 q 276 861 302 829 q 200 893 249 893 q 129 880 162 893 q 60 841 96 867 l 15 939 q 109 989 61 972 q 208 1006 157 1006 q 369 946 313 1006 q 425 776 425 886 q 413 671 425 715 q 374 587 400 627 q 309 498 349 547 q 264 434 280 463 q 243 379 249 406 q 237 315 237 351 l 237 287 l 137 287 m 109 79 q 130 148 109 124 q 189 171 150 171 q 247 149 226 171 q 269 79 269 127 q 247 11 269 33 q 189 -12 224 -12 q 130 11 151 -12 q 109 79 109 35 z "},"@":{"ha":923,"x_min":64,"x_max":863,"o":"m 863 502 q 850 356 863 420 q 814 247 838 292 q 758 180 791 203 q 683 157 725 157 q 599 190 628 157 q 562 281 570 222 l 555 281 q 508 188 538 218 q 435 157 478 157 q 320 224 361 157 q 280 412 280 290 q 305 585 280 513 q 378 694 330 656 q 494 732 426 732 q 567 725 530 732 q 635 705 604 718 l 625 418 q 623 376 624 398 q 621 340 621 354 q 637 268 621 290 q 680 245 652 245 q 726 272 707 245 q 754 356 745 298 q 764 505 764 413 q 730 720 764 627 q 634 865 696 812 q 484 916 571 917 q 338 873 399 916 q 238 756 277 829 q 181 593 199 684 q 162 410 162 503 q 193 185 162 286 q 290 27 224 85 q 456 -31 355 -31 q 564 -16 510 -31 q 661 23 618 -1 l 661 -68 q 567 -104 616 -92 q 455 -116 517 -116 q 242 -55 330 -116 q 110 122 155 6 q 64 401 64 237 q 95 650 64 540 q 180 840 125 761 q 313 960 236 918 q 484 1000 391 1002 q 687 934 602 1000 q 817 755 772 868 q 863 502 863 642 m 381 410 q 399 286 381 327 q 449 245 416 245 q 499 298 481 245 q 522 471 516 351 l 532 644 q 511 649 522 648 q 488 650 500 650 q 431 623 455 650 q 394 541 407 595 q 381 410 381 488 z "},"A":{"ha":644,"x_min":0,"x_max":644,"o":"m 507 0 l 438 299 l 206 299 l 138 0 l 0 0 l 239 991 l 399 991 l 644 0 l 507 0 m 416 415 l 345 733 q 336 786 340 760 q 327 836 331 812 q 320 882 323 860 q 314 836 318 861 q 306 786 311 812 q 295 734 301 761 l 227 415 l 416 415 z "},"B":{"ha":675,"x_min":99,"x_max":620,"o":"m 99 991 l 327 991 q 531 932 462 991 q 600 753 600 873 q 584 643 600 690 q 536 566 568 595 q 460 526 505 536 l 460 519 q 550 476 515 507 q 603 398 585 446 q 620 285 620 350 q 589 135 620 199 q 500 35 558 71 q 358 0 441 0 l 99 0 l 99 991 m 228 571 l 326 571 q 435 613 401 571 q 469 739 469 655 q 433 846 469 809 q 323 884 397 884 l 228 884 l 228 571 m 228 464 l 228 111 l 345 111 q 451 156 416 111 q 487 292 487 201 q 469 387 487 349 q 416 445 450 425 q 334 464 382 464 l 228 464 z "},"C":{"ha":629,"x_min":67,"x_max":595,"o":"m 410 892 q 315 861 355 892 q 250 774 275 829 q 213 647 224 719 q 201 495 201 576 q 227 283 201 372 q 302 148 254 195 q 418 101 351 101 q 499 113 461 101 q 571 142 538 125 l 571 26 q 494 -4 536 6 q 402 -14 452 -14 q 223 47 298 -14 q 107 222 148 108 q 67 496 67 336 q 88 695 67 603 q 151 858 109 788 q 257 968 193 928 q 404 1007 320 1007 q 504 994 456 1007 q 595 955 551 981 l 553 847 q 485 880 520 868 q 410 892 450 892 z "},"D":{"ha":727,"x_min":99,"x_max":660,"o":"m 660 509 q 620 229 660 342 q 500 58 579 116 q 303 0 420 0 l 99 0 l 99 991 l 313 991 q 504 937 427 991 q 621 774 581 882 q 660 509 660 667 m 526 503 q 502 711 526 628 q 430 837 478 795 q 309 878 382 878 l 228 878 l 228 115 l 300 115 q 472 212 418 115 q 526 503 526 309 z "},"E":{"ha":564,"x_min":99,"x_max":503,"o":"m 503 0 l 99 0 l 99 991 l 503 991 l 503 879 l 228 879 l 228 574 l 486 574 l 486 460 l 228 460 l 228 115 l 503 115 l 503 0 z "},"F":{"ha":536,"x_min":99,"x_max":503,"o":"m 228 0 l 99 0 l 99 991 l 503 991 l 503 879 l 228 879 l 228 534 l 486 534 l 486 420 l 228 420 l 228 0 z "},"G":{"ha":764,"x_min":67,"x_max":690,"o":"m 424 529 l 690 529 l 690 37 q 561 -1 627 12 q 425 -14 494 -14 q 224 52 303 -14 q 106 233 144 118 q 67 498 67 349 q 110 763 67 648 q 238 941 153 877 q 450 1006 323 1006 q 571 989 513 1006 q 678 943 629 973 l 635 834 q 545 878 590 863 q 452 892 500 892 q 314 846 370 892 q 230 711 258 800 q 201 494 201 623 q 225 292 201 381 q 301 152 250 203 q 435 101 353 101 q 504 106 471 101 q 565 121 536 112 l 565 416 l 424 416 l 424 529 z "},"H":{"ha":751,"x_min":99,"x_max":653,"o":"m 653 0 l 524 0 l 524 460 l 228 460 l 228 0 l 99 0 l 99 991 l 228 991 l 228 576 l 524 576 l 524 991 l 653 991 l 653 0 z "},"I":{"ha":325,"x_min":99,"x_max":228,"o":"m 99 0 l 99 991 l 228 991 l 228 0 l 99 0 z "},"J":{"ha":321,"x_min":-70,"x_max":225,"o":"m 23 -273 q -25 -269 -2 -273 q -70 -258 -49 -266 l -70 -144 q -33 -154 -53 -150 q 7 -158 -14 -158 q 59 -141 40 -158 q 88 -86 79 -124 q 97 14 97 -49 l 97 991 l 225 991 l 225 7 q 202 -157 225 -96 q 134 -245 179 -218 q 23 -273 89 -273 z "},"K":{"ha":635,"x_min":99,"x_max":642,"o":"m 642 0 l 498 0 l 297 450 l 228 370 l 228 0 l 99 0 l 99 991 l 228 991 l 228 500 q 254 556 235 522 q 299 640 272 591 l 492 991 l 631 991 l 385 553 l 642 0 z "},"L":{"ha":524,"x_min":99,"x_max":501,"o":"m 99 0 l 99 991 l 228 991 l 228 115 l 501 115 l 501 0 l 99 0 z "},"M":{"ha":1008,"x_min":99,"x_max":911,"o":"m 448 0 l 218 814 l 212 814 q 217 732 215 769 q 220 667 219 695 q 220 618 220 638 l 220 0 l 99 0 l 99 991 l 279 991 l 503 203 l 507 203 l 730 991 l 911 991 l 911 0 l 787 0 l 787 617 q 788 667 787 638 q 790 733 789 696 q 793 814 792 770 l 789 814 l 559 0 l 448 0 z "},"N":{"ha":801,"x_min":99,"x_max":703,"o":"m 703 0 l 549 0 l 218 789 l 212 789 q 217 714 215 749 q 220 646 219 678 q 220 584 220 614 l 220 0 l 99 0 l 99 991 l 252 991 l 585 216 l 589 216 q 585 294 587 258 q 582 363 583 331 q 581 421 581 395 l 581 991 l 703 991 l 703 0 z "},"O":{"ha":774,"x_min":67,"x_max":708,"o":"m 708 497 q 690 295 708 388 q 633 132 671 201 q 535 25 595 63 q 389 -14 474 -14 q 240 26 302 -14 q 141 135 179 65 q 85 297 103 204 q 67 498 67 391 q 103 780 67 667 q 211 950 140 893 q 389 1006 283 1006 q 572 940 502 1006 q 675 759 642 874 q 708 497 708 644 m 201 497 q 222 279 201 368 q 285 147 243 191 q 387 102 327 102 q 490 146 449 102 q 552 277 532 189 q 573 497 573 366 q 527 792 573 694 q 389 891 481 891 q 284 847 326 891 q 222 714 243 802 q 201 497 201 627 z "},"P":{"ha":626,"x_min":99,"x_max":583,"o":"m 295 991 q 513 919 442 991 q 583 697 583 846 q 565 562 583 621 q 511 463 547 503 q 420 401 475 422 q 291 380 365 380 l 228 380 l 228 0 l 99 0 l 99 991 l 295 991 m 289 880 l 228 880 l 228 493 l 279 493 q 378 513 340 493 q 435 579 416 534 q 454 696 454 624 q 413 837 454 793 q 289 880 373 880 z "},"Q":{"ha":774,"x_min":67,"x_max":708,"o":"m 708 497 q 687 275 708 371 q 625 115 666 179 q 525 19 584 51 l 677 -236 l 526 -236 l 405 -11 q 393 -12 401 -12 q 379 -13 385 -13 q 236 27 296 -13 q 140 138 177 67 q 85 301 102 208 q 67 498 67 393 q 103 780 67 667 q 211 950 140 893 q 389 1006 283 1006 q 563 949 492 1006 q 671 779 634 892 q 708 497 708 666 m 201 497 q 222 279 201 368 q 284 147 243 191 q 387 102 326 102 q 490 146 449 102 q 552 277 532 189 q 573 497 573 366 q 527 793 573 694 q 389 891 481 891 q 284 847 326 891 q 222 714 243 802 q 201 497 201 627 z "},"R":{"ha":652,"x_min":99,"x_max":637,"o":"m 284 991 q 454 961 387 991 q 553 868 521 930 q 586 712 586 806 q 570 595 586 647 q 521 506 554 544 q 435 444 488 469 l 637 0 l 494 0 l 319 411 l 228 411 l 228 0 l 99 0 l 99 991 l 284 991 m 284 878 l 228 878 l 228 517 l 296 517 q 414 564 373 517 q 455 706 455 611 q 414 837 455 796 q 284 878 372 878 z "},"S":{"ha":580,"x_min":52,"x_max":530,"o":"m 530 275 q 496 125 530 190 q 403 23 463 60 q 262 -14 343 -14 q 186 -9 223 -14 q 116 6 150 -4 q 52 31 83 16 l 52 164 q 155 121 100 136 q 256 106 210 106 q 334 127 303 106 q 382 184 366 149 q 399 263 399 220 q 385 340 399 309 q 338 399 371 372 q 249 457 306 427 q 170 507 205 481 q 110 564 135 532 q 72 639 85 596 q 58 741 58 682 q 90 880 57 821 q 181 973 122 940 q 317 1006 240 1006 q 428 991 375 1006 q 522 955 481 977 l 482 838 q 398 874 439 863 q 321 886 357 886 q 249 868 279 886 q 203 819 219 850 q 188 747 188 788 q 202 668 188 699 q 249 610 216 636 q 339 553 282 585 q 445 480 403 519 q 509 391 488 441 q 530 275 530 341 z "},"T":{"ha":541,"x_min":15,"x_max":525,"o":"m 334 0 l 205 0 l 205 877 l 15 877 l 15 991 l 525 991 l 525 877 l 334 877 l 334 0 z "},"U":{"ha":735,"x_min":91,"x_max":644,"o":"m 644 991 l 644 314 q 612 128 644 201 q 519 21 581 56 q 368 -14 458 -14 q 162 66 233 -14 q 91 313 91 146 l 91 991 l 220 991 l 220 314 q 258 152 220 201 q 369 102 297 102 q 449 123 417 102 q 498 191 481 144 q 515 315 515 238 l 515 991 l 644 991 z "},"V":{"ha":629,"x_min":0,"x_max":629,"o":"m 629 991 l 387 0 l 239 0 l 0 991 l 134 991 l 279 338 q 292 275 286 309 q 304 207 298 241 q 313 144 309 173 q 323 207 317 173 q 335 274 328 240 q 349 340 342 309 l 495 991 l 629 991 z "},"W":{"ha":1010,"x_min":5,"x_max":1006,"o":"m 1006 991 l 804 0 l 652 0 l 532 604 q 527 641 530 620 q 520 687 524 661 q 513 742 517 712 q 505 806 509 772 q 499 758 502 783 q 493 707 496 732 q 485 655 489 681 q 476 606 481 630 l 358 0 l 208 0 l 5 991 l 133 991 l 249 396 q 261 327 256 361 q 272 261 267 293 q 281 200 277 229 q 288 149 286 172 q 296 212 292 180 q 307 276 301 244 q 317 338 312 308 q 327 393 322 368 l 448 991 l 564 991 l 681 395 q 691 339 686 368 q 701 279 696 310 q 711 216 706 249 q 720 149 715 183 q 731 235 724 192 q 744 318 737 277 q 758 396 751 359 l 876 991 l 1006 991 z "},"X":{"ha":573,"x_min":8,"x_max":566,"o":"m 566 0 l 429 0 l 292 393 l 142 0 l 8 0 l 220 515 l 32 991 l 165 991 l 292 630 l 419 991 l 554 991 l 365 509 l 566 0 z "},"Y":{"ha":564,"x_min":0,"x_max":564,"o":"m 283 534 l 431 991 l 564 991 l 346 385 l 346 0 l 218 0 l 218 382 l 0 991 l 134 991 l 283 534 z "},"Z":{"ha":521,"x_min":35,"x_max":492,"o":"m 492 0 l 35 0 l 35 97 l 346 878 l 41 878 l 41 991 l 484 991 l 484 894 l 172 115 l 492 115 l 492 0 z "},"[":{"ha":431,"x_min":95,"x_max":390,"o":"m 390 -224 l 95 -224 l 95 1002 l 390 1002 l 390 901 l 212 901 l 212 -123 l 390 -123 l 390 -224 z "},"\\":{"ha":522,"x_min":22,"x_max":504,"o":"m 136 997 l 504 -5 l 389 -5 l 22 997 l 136 997 z "},"]":{"ha":431,"x_min":41,"x_max":336,"o":"m 41 -123 l 220 -123 l 220 901 l 41 901 l 41 1002 l 336 1002 l 336 -224 l 41 -224 l 41 -123 z "},"^":{"ha":629,"x_min":20,"x_max":612,"o":"m 20 447 l 279 991 l 351 991 l 612 447 l 493 447 l 315 830 l 136 447 l 20 447 z "},"_":{"ha":615,"x_min":-3,"x_max":618,"o":"m 618 -208 l -3 -208 l -3 -113 l 618 -113 l 618 -208 z "},"`":{"ha":380,"x_min":56,"x_max":325,"o":"m 201 1063 q 238 994 216 1032 q 283 919 260 955 q 325 858 306 883 l 325 842 l 243 842 q 196 886 222 859 q 142 942 170 912 q 93 1001 115 972 q 56 1051 70 1029 l 56 1063 l 201 1063 z "},"a":{"ha":589,"x_min":46,"x_max":503,"o":"m 303 762 q 456 696 408 762 q 503 502 503 629 l 503 0 l 411 0 l 392 105 l 389 105 q 345 40 370 66 q 288 0 320 14 q 215 -14 256 -14 q 119 18 156 -14 q 64 100 81 50 q 46 210 46 151 q 111 383 46 322 q 293 450 175 444 l 380 454 l 380 500 q 357 622 380 583 q 282 661 334 661 q 215 649 251 661 q 138 613 180 638 l 101 706 q 197 748 145 734 q 303 762 248 762 m 381 367 l 317 363 q 208 321 243 359 q 172 214 172 284 q 195 117 172 149 q 259 86 218 86 q 349 141 316 86 q 381 293 381 197 l 381 367 z "},"b":{"ha":650,"x_min":87,"x_max":595,"o":"m 211 1055 l 211 756 q 210 706 211 734 q 208 645 209 678 l 212 645 q 282 732 241 703 q 378 761 324 761 q 539 662 483 761 q 595 376 595 564 q 570 164 595 252 q 496 32 545 77 q 379 -14 448 -14 q 284 12 325 -14 q 212 95 244 38 l 205 95 l 188 0 l 87 0 l 87 1055 l 211 1055 m 345 653 q 263 620 293 653 q 222 527 234 586 q 211 390 211 467 l 211 357 q 245 157 211 222 q 347 92 279 92 q 438 162 408 92 q 469 377 469 231 q 439 584 469 514 q 345 653 410 653 z "},"c":{"ha":496,"x_min":58,"x_max":467,"o":"m 313 -14 q 171 29 228 -14 q 86 157 115 72 q 58 370 58 242 q 86 578 58 490 q 172 714 115 667 q 317 762 230 762 q 399 752 363 762 q 467 724 435 743 l 430 623 q 377 646 403 638 q 326 653 351 653 q 248 621 279 653 q 200 527 216 589 q 184 370 184 464 q 200 218 184 279 q 248 125 216 157 q 327 94 279 94 q 392 104 359 94 q 457 133 425 114 l 457 28 q 387 -3 427 7 q 313 -14 348 -14 z "},"d":{"ha":650,"x_min":57,"x_max":564,"o":"m 276 -14 q 113 86 169 -14 q 57 373 57 186 q 113 661 57 559 q 272 762 169 762 q 339 749 308 762 q 396 710 370 735 q 439 648 421 685 l 445 648 q 442 709 443 683 q 441 758 441 736 l 441 1055 l 564 1055 l 564 0 l 465 0 l 448 96 l 441 96 q 397 37 421 61 q 343 -1 373 12 q 276 -14 314 -14 m 307 91 q 407 154 373 91 q 441 341 441 216 l 441 390 q 408 589 441 524 q 306 653 376 653 q 213 582 243 653 q 182 373 182 510 q 213 162 182 234 q 307 91 243 91 z "},"e":{"ha":589,"x_min":58,"x_max":536,"o":"m 303 761 q 433 717 381 761 q 511 598 485 673 q 536 429 536 524 l 536 347 l 180 347 q 221 154 181 218 q 342 90 261 90 q 424 102 385 90 q 507 142 464 115 l 507 35 q 422 -2 467 10 q 328 -14 378 -14 q 172 36 232 -14 q 85 172 113 85 q 58 370 58 258 q 85 583 58 496 q 168 715 113 670 q 303 761 222 761 m 304 661 q 217 608 249 661 q 181 443 186 555 l 421 443 q 409 553 421 503 q 370 632 396 603 q 304 661 344 661 z "},"f":{"ha":362,"x_min":12,"x_max":393,"o":"m 344 645 l 226 645 l 226 0 l 102 0 l 102 645 l 12 645 l 12 711 l 102 751 l 102 795 q 118 942 102 882 q 172 1032 134 1002 q 276 1063 210 1063 q 336 1057 309 1063 q 393 1039 363 1051 l 363 942 q 328 952 345 948 q 294 956 311 956 q 241 922 256 956 q 226 800 227 888 l 226 749 l 344 749 l 344 645 z "},"g":{"ha":561,"x_min":9,"x_max":553,"o":"m 247 -334 q 73 -279 136 -334 q 9 -125 9 -224 q 46 -3 9 -52 q 142 62 83 45 q 94 103 113 75 q 75 168 75 131 q 94 238 75 208 q 145 297 112 269 q 76 381 102 323 q 51 511 51 439 q 77 645 51 589 q 152 731 103 701 q 271 762 201 762 q 309 760 292 762 q 337 754 325 758 q 360 746 350 750 l 553 746 l 553 668 l 456 654 q 481 589 473 625 q 490 514 490 553 q 432 332 490 398 q 271 266 375 266 q 220 272 239 266 q 191 237 204 257 q 178 188 178 217 q 187 155 178 169 q 214 134 196 141 q 257 126 231 126 l 369 126 q 500 77 454 126 q 547 -71 547 28 q 470 -265 547 -197 q 247 -334 393 -334 m 256 -238 q 353 -221 314 -238 q 411 -170 391 -204 q 430 -86 430 -136 q 417 -24 430 -45 q 380 6 404 -2 q 319 14 355 14 l 227 14 q 176 1 199 14 q 139 -40 153 -12 q 125 -115 125 -68 q 161 -207 125 -176 q 256 -238 196 -238 m 271 355 q 341 395 316 355 q 366 512 366 435 q 340 633 366 593 q 270 673 315 673 q 200 631 225 673 q 176 511 176 589 q 199 396 176 436 q 271 355 223 355 z "},"h":{"ha":644,"x_min":87,"x_max":558,"o":"m 211 1055 l 211 767 q 209 704 211 734 q 202 646 207 673 l 210 646 q 249 708 224 682 q 304 748 273 734 q 373 762 336 762 q 477 733 436 762 q 538 646 518 703 q 558 505 558 589 l 558 0 l 435 0 l 435 477 q 413 610 435 570 q 343 651 391 651 q 268 623 298 651 q 225 535 239 595 q 211 384 211 476 l 211 0 l 87 0 l 87 1055 l 211 1055 z "},"i":{"ha":300,"x_min":80,"x_max":222,"o":"m 212 749 l 212 0 l 89 0 l 89 749 l 212 749 m 152 1033 q 205 1011 189 1033 q 222 949 222 989 q 204 888 222 910 q 152 867 186 867 q 99 888 118 867 q 80 949 80 910 q 98 1011 80 990 q 152 1033 116 1033 z "},"j":{"ha":300,"x_min":-22,"x_max":222,"o":"m 52 -334 q 12 -330 31 -334 q -22 -321 -6 -327 l -22 -212 q 3 -220 -9 -217 q 28 -223 16 -223 q 75 -195 61 -223 q 89 -109 89 -168 l 89 749 l 212 749 l 212 -111 q 194 -236 212 -187 q 139 -309 175 -286 q 52 -334 103 -333 m 80 949 q 98 1011 80 990 q 152 1033 116 1033 q 205 1011 188 1033 q 222 949 222 989 q 204 888 222 910 q 152 867 186 867 q 99 888 118 867 q 80 949 80 910 z "},"k":{"ha":571,"x_min":87,"x_max":568,"o":"m 211 1055 l 211 545 q 210 464 211 504 q 205 385 208 425 l 210 385 q 233 432 221 410 q 258 475 245 454 l 422 749 l 555 749 l 372 456 l 568 0 l 435 0 l 288 359 l 211 268 l 211 0 l 87 0 l 87 1055 l 211 1055 z "},"l":{"ha":298,"x_min":87,"x_max":211,"o":"m 211 0 l 87 0 l 87 1055 l 211 1055 l 211 0 z "},"m":{"ha":962,"x_min":87,"x_max":876,"o":"m 699 762 q 832 698 789 762 q 876 501 876 633 l 876 0 l 753 0 l 753 475 q 730 611 753 569 q 662 652 707 652 q 570 591 597 652 q 543 410 543 529 l 543 0 l 420 0 l 420 476 q 411 578 420 540 q 381 635 401 617 q 330 652 361 652 q 257 620 283 652 q 221 528 231 587 q 211 390 211 469 l 211 0 l 87 0 l 87 749 l 186 749 l 200 645 l 208 645 q 245 708 222 682 q 300 748 268 734 q 371 762 332 762 q 473 728 436 762 q 524 643 511 694 l 532 643 q 597 733 558 703 q 699 762 637 762 z "},"n":{"ha":644,"x_min":87,"x_max":558,"o":"m 374 762 q 511 699 464 762 q 558 506 558 635 l 558 0 l 435 0 l 435 477 q 413 609 435 565 q 342 652 391 652 q 242 590 273 652 q 211 385 211 527 l 211 0 l 87 0 l 87 749 l 186 749 l 199 644 l 208 644 q 248 707 223 680 q 304 748 272 733 q 374 762 336 762 z "},"o":{"ha":628,"x_min":57,"x_max":572,"o":"m 572 375 q 556 218 572 290 q 510 95 541 147 q 429 15 478 43 q 313 -14 380 -14 q 201 15 249 -14 q 121 94 153 43 q 73 217 89 146 q 57 375 57 289 q 84 583 57 496 q 169 716 112 669 q 315 762 226 762 q 454 718 397 762 q 542 588 511 674 q 572 375 572 502 m 182 374 q 196 219 182 282 q 240 125 210 157 q 315 94 269 94 q 390 124 361 94 q 432 218 418 155 q 446 375 446 281 q 432 530 446 468 q 390 624 418 593 q 315 655 361 655 q 214 585 245 655 q 182 374 182 515 z "},"p":{"ha":650,"x_min":87,"x_max":595,"o":"m 376 762 q 539 665 483 762 q 595 375 595 567 q 570 164 595 251 q 497 32 545 78 q 381 -14 449 -14 q 312 0 344 -14 q 254 41 279 14 q 212 104 229 67 l 206 104 q 210 46 208 73 q 211 -3 211 19 l 211 -332 l 87 -332 l 87 749 l 188 749 l 204 642 l 211 642 q 256 710 231 684 q 310 750 280 737 q 376 762 340 762 m 345 656 q 270 628 300 656 q 226 543 241 600 q 211 398 211 486 l 211 361 q 226 211 211 271 q 271 123 241 152 q 345 94 301 94 q 414 124 386 94 q 455 216 441 154 q 469 374 469 277 q 440 586 469 515 q 345 656 411 656 z "},"q":{"ha":650,"x_min":57,"x_max":564,"o":"m 440 -332 l 440 -23 q 442 32 440 -1 q 446 108 444 65 l 440 108 q 369 17 411 47 q 272 -14 328 -14 q 113 85 170 -14 q 57 370 57 183 q 83 586 57 498 q 159 718 109 673 q 277 762 208 762 q 371 735 332 762 q 439 646 410 707 l 447 646 l 459 749 l 564 749 l 564 -332 l 440 -332 m 309 94 q 381 122 351 94 q 425 204 410 150 q 440 339 440 258 l 440 385 q 408 588 440 524 q 305 653 375 653 q 213 581 243 653 q 182 369 182 508 q 214 160 182 226 q 309 94 245 94 z "},"r":{"ha":433,"x_min":88,"x_max":420,"o":"m 357 762 q 388 759 372 762 q 420 751 403 757 l 404 623 q 377 631 391 629 q 347 633 363 633 q 291 614 316 633 q 248 562 266 595 q 220 485 230 529 q 212 388 211 440 l 212 0 l 88 0 l 88 749 l 184 749 l 201 618 l 208 618 q 245 691 224 659 q 295 743 267 724 q 357 762 323 762 z "},"s":{"ha":480,"x_min":45,"x_max":437,"o":"m 437 203 q 411 85 437 134 q 337 12 386 37 q 220 -14 289 -14 q 123 -2 168 -14 q 45 28 79 10 l 45 153 q 122 112 77 129 q 214 96 167 96 q 288 122 262 96 q 315 198 315 149 q 304 248 315 227 q 268 291 293 270 q 199 336 243 311 q 118 395 153 363 q 64 466 83 426 q 45 563 45 507 q 103 708 45 653 q 258 762 161 762 q 350 749 307 762 q 434 711 394 736 l 392 614 q 329 646 362 634 q 261 659 296 659 q 190 634 216 659 q 164 567 164 609 q 175 518 164 538 q 211 478 185 498 q 281 431 237 458 q 362 372 328 402 q 417 301 397 341 q 437 203 437 261 z "},"t":{"ha":374,"x_min":22,"x_max":353,"o":"m 282 95 q 318 99 300 95 q 353 111 336 103 l 353 11 q 303 -7 330 -1 q 243 -14 276 -14 q 158 9 191 -14 q 109 78 124 32 q 93 193 93 123 l 93 646 l 22 646 l 22 712 l 100 745 l 132 915 l 216 915 l 216 749 l 345 749 l 345 646 l 216 646 l 216 203 q 230 122 216 149 q 282 95 244 95 z "},"u":{"ha":644,"x_min":85,"x_max":556,"o":"m 556 749 l 556 0 l 458 0 l 444 104 l 436 104 q 396 41 420 67 q 341 1 372 15 q 271 -14 310 -14 q 164 19 205 -14 q 104 113 123 52 q 85 258 85 174 l 85 749 l 209 749 l 209 286 q 231 143 209 189 q 298 97 252 97 q 378 125 349 97 q 420 210 407 153 q 433 353 433 267 l 433 749 l 556 749 z "},"v":{"ha":531,"x_min":5,"x_max":526,"o":"m 197 0 l 5 749 l 132 749 l 231 309 q 248 227 240 269 q 261 139 255 184 l 267 139 q 276 204 270 166 q 294 287 283 241 l 399 749 l 526 749 l 332 0 l 197 0 z "},"w":{"ha":857,"x_min":12,"x_max":846,"o":"m 540 0 l 456 442 q 449 484 452 462 q 443 527 446 505 q 436 570 439 549 q 431 611 433 591 l 427 611 q 421 568 425 590 q 415 524 418 546 q 408 482 412 503 q 401 442 405 461 l 313 0 l 172 0 l 12 749 l 135 749 l 208 385 q 221 308 215 348 q 234 229 228 269 q 244 150 239 189 l 248 150 q 255 201 252 174 q 263 256 259 227 q 273 316 267 285 q 285 379 278 347 l 360 749 l 499 749 l 573 376 q 585 311 579 347 q 597 235 591 275 q 609 150 603 194 l 613 150 q 619 201 615 174 q 627 259 623 228 q 638 323 632 290 l 725 749 l 846 749 l 682 0 l 540 0 z "},"x":{"ha":533,"x_min":18,"x_max":516,"o":"m 194 385 l 28 749 l 161 749 l 269 484 l 377 749 l 509 749 l 342 380 l 516 0 l 385 0 l 265 281 l 148 0 l 18 0 l 194 385 z "},"y":{"ha":534,"x_min":7,"x_max":528,"o":"m 7 749 l 136 749 l 237 330 q 248 276 243 302 q 258 223 254 249 q 267 172 263 197 l 272 172 q 284 247 277 208 q 303 330 292 286 l 401 749 l 528 749 l 306 -108 q 256 -237 285 -187 q 190 -310 228 -287 q 99 -334 151 -334 q 64 -330 81 -334 q 27 -322 46 -327 l 27 -212 q 54 -220 40 -217 q 81 -222 68 -222 q 125 -210 107 -222 q 157 -167 143 -197 q 186 -83 172 -137 l 208 6 l 7 749 z "},"z":{"ha":436,"x_min":33,"x_max":407,"o":"m 407 0 l 33 0 l 33 82 l 262 643 l 48 643 l 48 749 l 397 749 l 397 661 l 173 104 l 407 104 l 407 0 z "},"{":{"ha":503,"x_min":52,"x_max":447,"o":"m 447 -224 q 302 -201 359 -224 q 219 -130 246 -178 q 193 -3 193 -81 l 193 203 q 179 279 193 249 q 136 323 166 309 q 52 338 105 338 l 52 434 q 132 447 100 434 q 178 489 163 459 q 193 569 193 518 l 193 777 q 218 900 193 852 q 299 971 243 947 q 447 997 355 996 l 447 897 q 372 884 402 896 q 327 844 342 871 q 312 770 312 817 l 312 561 q 283 442 312 484 q 186 389 254 401 l 186 383 q 284 328 256 370 q 312 212 312 286 l 312 3 q 326 -69 312 -41 q 369 -110 339 -97 q 447 -124 399 -123 l 447 -224 z "},"|":{"ha":562,"x_min":224,"x_max":338,"o":"m 224 1062 l 338 1062 l 338 -328 l 224 -328 l 224 1062 z "},"}":{"ha":503,"x_min":54,"x_max":448,"o":"m 54 -224 l 54 -124 q 132 -111 102 -123 q 176 -70 162 -98 q 189 3 189 -42 l 189 212 q 218 329 189 288 q 314 383 247 370 l 314 389 q 218 443 247 401 q 189 561 189 484 l 189 770 q 173 844 189 817 q 127 884 157 871 q 54 897 97 896 l 54 997 q 198 973 142 996 q 281 902 254 950 q 309 777 309 854 l 309 569 q 321 494 309 524 q 365 449 334 464 q 448 434 395 434 l 448 338 q 367 324 398 338 q 322 281 336 311 q 309 203 309 251 l 309 -3 q 283 -126 309 -78 q 202 -199 258 -175 q 54 -224 146 -224 z "},"~":{"ha":609,"x_min":40,"x_max":569,"o":"m 290 439 q 228 468 258 458 q 171 478 198 478 q 106 457 140 478 q 40 397 73 435 l 40 512 q 102 564 68 546 q 179 582 136 582 q 250 570 218 582 q 319 540 283 559 q 383 512 355 522 q 439 503 412 503 q 506 525 471 503 q 569 583 541 547 l 569 467 q 507 418 542 435 q 431 400 472 400 q 360 410 391 400 q 290 439 329 420 z "}," ":{"ha":256,"x_min":0,"x_max":0,"o":""},"¡":{"ha":330,"x_min":87,"x_max":246,"o":"m 116 454 l 213 454 l 238 -260 l 90 -260 l 116 454 m 246 663 q 225 592 246 615 q 166 570 203 570 q 107 593 127 570 q 87 663 87 616 q 107 730 87 706 q 166 755 127 755 q 224 732 202 755 q 246 663 246 709 z "},"¢":{"ha":608,"x_min":100,"x_max":509,"o":"m 385 1006 l 385 895 q 451 882 420 892 q 509 857 483 873 l 473 755 q 419 778 446 770 q 370 785 391 785 q 288 754 320 785 q 241 661 256 723 q 226 504 226 598 q 241 349 226 410 q 288 258 257 288 q 368 229 319 229 q 433 239 399 229 q 500 268 467 250 l 500 161 q 449 137 478 147 q 386 122 420 127 l 386 -14 l 309 -14 l 309 123 q 191 180 237 132 q 122 309 145 227 q 100 503 100 391 q 123 698 100 615 q 192 830 146 781 q 307 890 237 880 l 307 1006 l 385 1006 z "},"£":{"ha":605,"x_min":57,"x_max":552,"o":"m 369 1006 q 462 991 418 1006 q 545 948 505 977 l 502 848 q 436 882 466 871 q 376 892 406 892 q 305 856 327 892 q 283 740 283 820 l 283 548 l 454 548 l 454 450 l 283 450 l 283 300 q 273 221 283 256 q 244 160 263 186 q 196 115 225 134 l 552 115 l 552 0 l 61 0 l 61 107 q 114 148 92 123 q 146 211 135 174 q 157 299 157 248 l 157 450 l 57 450 l 57 548 l 157 548 l 157 741 q 180 887 157 828 q 251 976 203 946 q 369 1006 298 1006 z "},"¤":{"ha":765,"x_min":73,"x_max":691,"o":"m 113 490 q 126 572 113 533 q 164 646 139 610 l 73 739 l 135 799 l 224 707 q 298 746 259 733 q 381 759 338 759 q 464 746 425 759 q 538 707 503 734 l 629 799 l 691 739 l 600 647 q 638 574 625 613 q 650 490 650 534 q 638 407 650 447 q 600 332 625 368 l 690 241 l 629 181 l 538 272 q 463 235 503 247 q 381 222 424 222 q 296 235 336 222 q 224 273 257 248 l 135 182 l 74 243 l 164 334 q 126 408 138 369 q 113 490 113 447 m 199 490 q 223 397 199 439 q 289 331 248 355 q 382 307 331 307 q 477 331 435 307 q 543 398 519 356 q 567 490 567 440 q 542 583 567 541 q 474 650 516 625 q 381 676 432 676 q 290 651 332 676 q 223 584 248 626 q 199 490 199 542 z "},"¥":{"ha":606,"x_min":44,"x_max":559,"o":"m 302 540 l 427 991 l 559 991 l 387 469 l 525 469 l 525 382 l 365 382 l 365 265 l 525 265 l 525 178 l 365 178 l 365 0 l 238 0 l 238 178 l 80 178 l 80 265 l 238 265 l 238 382 l 80 382 l 80 469 l 214 469 l 44 991 l 174 991 l 302 540 z "},"¦":{"ha":562,"x_min":224,"x_max":338,"o":"m 224 1055 l 338 1055 l 338 511 l 224 511 l 224 1055 m 224 216 l 338 216 l 338 -328 l 224 -328 l 224 216 z "},"§":{"ha":524,"x_min":56,"x_max":460,"o":"m 56 562 q 83 656 56 616 q 157 720 110 696 q 91 791 113 753 q 68 877 68 830 q 127 1008 68 961 q 276 1056 186 1056 q 365 1045 325 1056 q 447 1011 405 1034 l 409 924 q 341 956 373 945 q 278 966 310 966 q 205 943 231 966 q 178 880 178 920 q 192 830 178 851 q 230 792 205 809 q 292 754 256 774 q 384 697 347 726 q 440 632 421 668 q 460 547 460 597 q 437 451 460 494 q 376 382 415 408 q 436 312 418 349 q 455 229 455 275 q 394 85 455 138 q 232 31 334 31 q 136 43 180 31 q 57 78 92 55 l 57 182 q 108 151 79 165 q 169 130 138 138 q 229 123 201 123 q 314 151 283 123 q 345 222 345 179 q 332 276 345 255 q 290 316 319 297 q 210 364 260 336 q 120 424 155 395 q 71 485 86 452 q 56 562 56 518 m 159 577 q 171 529 159 550 q 205 491 183 509 q 257 456 227 473 l 307 429 q 343 470 331 445 q 356 528 356 495 q 346 582 356 560 q 308 626 336 604 q 228 676 281 647 q 177 638 195 664 q 159 577 159 612 z "},"¨":{"ha":715,"x_min":178,"x_max":536,"o":"m 178 932 q 196 987 178 969 q 241 1005 214 1005 q 287 986 269 1005 q 304 932 304 968 q 287 876 304 895 q 241 857 269 857 q 196 876 214 857 q 178 932 178 895 m 408 932 q 426 987 408 969 q 472 1005 444 1005 q 518 986 500 1005 q 536 932 536 968 q 518 876 536 895 q 472 857 500 857 q 426 876 444 857 q 408 932 408 895 z "},"©":{"ha":1152,"x_min":64,"x_max":1087,"o":"m 574 -14 q 363 26 457 -14 q 202 136 269 66 q 100 298 136 206 q 64 496 64 390 q 104 703 64 610 q 213 865 143 797 q 376 969 283 932 q 576 1006 469 1006 q 783 967 689 1006 q 944 859 876 928 q 1050 696 1013 789 q 1087 495 1087 603 q 1049 291 1087 385 q 941 130 1010 198 q 779 24 872 62 q 574 -14 685 -14 m 597 186 q 391 266 465 186 q 317 494 317 346 q 351 660 317 590 q 449 767 385 730 q 601 805 512 805 q 693 794 648 805 q 781 764 738 784 l 743 683 q 673 708 707 700 q 606 715 638 715 q 472 659 520 715 q 425 496 425 602 q 470 328 425 382 q 606 275 516 275 q 679 283 640 275 q 756 310 718 292 l 756 220 q 679 195 719 203 q 597 186 639 186 m 576 61 q 751 94 672 61 q 886 186 829 127 q 974 324 943 245 q 1005 495 1005 403 q 973 670 1005 591 q 883 808 941 750 q 746 899 825 867 q 576 930 668 930 q 400 897 479 930 q 265 805 321 864 q 177 666 208 745 q 146 495 146 587 q 178 318 146 397 q 270 181 211 239 q 407 92 328 123 q 576 61 485 61 z "},"ª":{"ha":425,"x_min":35,"x_max":357,"o":"m 217 1003 q 323 963 289 1003 q 357 842 357 922 l 357 535 l 293 535 l 277 606 q 224 547 255 567 q 150 527 193 527 q 89 545 115 527 q 49 595 63 564 q 35 665 35 627 q 55 745 35 715 q 115 790 76 775 q 210 810 155 806 l 265 814 l 265 847 q 251 908 265 888 q 201 927 236 927 q 149 919 174 927 q 96 895 124 910 l 69 963 q 140 993 104 983 q 217 1003 176 1003 m 265 753 l 224 749 q 150 726 173 745 q 127 668 127 707 q 141 618 127 635 q 184 602 156 602 q 244 634 222 602 q 265 720 265 666 l 265 753 z "},"«":{"ha":654,"x_min":47,"x_max":607,"o":"m 47 381 l 249 656 l 336 612 l 188 372 l 336 134 l 249 87 l 47 362 l 47 381 m 318 381 l 521 656 l 606 612 l 460 372 l 607 134 l 521 87 l 318 362 l 318 381 z "},"¬":{"ha":609,"x_min":43,"x_max":555,"o":"m 555 542 l 555 166 l 450 166 l 450 438 l 43 438 l 43 542 l 555 542 z "},"­":{"ha":391,"x_min":38,"x_max":353,"o":"m 38 314 l 38 435 l 353 435 l 353 314 l 38 314 z "},"®":{"ha":1152,"x_min":64,"x_max":1087,"o":"m 388 203 l 388 798 l 556 798 q 720 755 663 798 q 777 623 777 712 q 751 522 777 562 q 675 460 726 481 l 809 203 l 694 203 l 581 437 l 492 437 l 492 203 l 388 203 m 491 515 l 550 515 q 636 540 604 515 q 669 618 669 565 q 640 691 669 668 q 551 713 611 713 l 491 713 l 491 515 m 574 -14 q 363 26 457 -14 q 202 136 269 66 q 100 298 136 206 q 64 496 64 390 q 104 703 64 610 q 213 865 143 797 q 376 969 283 932 q 576 1006 469 1006 q 783 967 689 1006 q 944 859 876 928 q 1050 696 1013 789 q 1087 495 1087 603 q 1049 291 1087 385 q 941 130 1010 198 q 779 24 872 62 q 574 -14 685 -14 m 576 61 q 751 94 672 61 q 886 186 829 127 q 974 324 943 245 q 1005 495 1005 403 q 973 670 1005 591 q 883 808 941 750 q 746 899 825 867 q 576 930 668 930 q 400 897 479 930 q 265 805 321 864 q 177 666 208 745 q 146 495 146 587 q 178 318 146 397 q 270 181 211 239 q 407 92 328 123 q 576 61 485 61 z "},"¯":{"ha":612,"x_min":-5,"x_max":617,"o":"m 617 1055 l -5 1055 l -5 1152 l 617 1152 l 617 1055 z "},"°":{"ha":505,"x_min":59,"x_max":446,"o":"m 252 627 q 153 650 197 627 q 84 715 109 673 q 59 816 59 758 q 84 916 59 873 q 154 982 110 958 q 252 1005 197 1005 q 352 982 308 1005 q 421 916 395 958 q 446 816 446 873 q 420 715 446 758 q 351 650 395 673 q 252 627 307 627 m 253 704 q 331 734 302 704 q 361 816 361 765 q 332 896 361 865 q 253 927 303 927 q 172 895 200 927 q 144 816 144 863 q 174 734 144 764 q 253 704 205 704 z "},"±":{"ha":609,"x_min":43,"x_max":564,"o":"m 43 0 l 43 103 l 564 103 l 564 0 l 43 0 m 357 574 l 564 574 l 564 471 l 357 471 l 357 196 l 252 196 l 252 471 l 43 471 l 43 574 l 252 574 l 252 850 l 357 850 l 357 574 z "},"²":{"ha":440,"x_min":35,"x_max":383,"o":"m 383 576 l 37 576 l 37 660 l 160 810 q 222 890 197 856 q 258 955 246 924 q 271 1020 271 985 q 250 1077 271 1055 q 191 1099 229 1099 q 136 1085 163 1099 q 85 1042 110 1071 l 35 1107 q 107 1164 64 1143 q 201 1185 150 1185 q 327 1142 282 1185 q 371 1027 371 1098 q 354 936 371 977 q 301 849 337 895 q 208 739 264 803 l 146 661 l 383 661 l 383 576 z "},"³":{"ha":440,"x_min":35,"x_max":385,"o":"m 199 1184 q 322 1144 277 1184 q 368 1034 368 1105 q 343 946 368 982 q 274 892 319 910 l 274 886 q 357 833 329 870 q 385 735 385 795 q 329 611 385 656 q 185 566 274 566 q 110 575 146 566 q 40 601 73 583 l 40 696 q 109 664 73 675 q 185 654 144 654 q 263 678 238 654 q 288 743 288 703 q 259 817 288 792 q 172 842 231 842 l 122 842 l 122 922 l 168 922 q 247 948 220 922 q 274 1019 274 975 q 253 1077 274 1056 q 190 1098 231 1098 q 135 1086 161 1098 q 81 1049 109 1075 l 35 1116 q 113 1167 72 1149 q 199 1184 153 1184 z "},"´":{"ha":380,"x_min":56,"x_max":325,"o":"m 325 1063 l 325 1051 q 288 1002 311 1029 q 239 945 266 974 q 186 888 213 916 q 138 842 159 861 l 56 842 l 56 858 q 104 930 82 895 q 145 999 127 966 q 179 1063 164 1032 l 325 1063 z "},"µ":{"ha":646,"x_min":87,"x_max":558,"o":"m 558 749 l 558 0 l 460 0 l 446 105 l 439 105 q 406 42 427 69 q 360 1 386 16 q 305 -14 334 -14 q 248 3 271 -14 q 210 53 224 19 l 205 53 q 208 5 207 28 q 210 -42 210 -19 q 211 -85 211 -65 l 211 -332 l 87 -332 l 87 749 l 211 749 l 211 277 q 233 142 211 188 q 300 97 254 97 q 380 128 351 97 q 422 218 409 159 q 435 363 435 277 l 435 749 l 558 749 z "},"¶":{"ha":671,"x_min":79,"x_max":561,"o":"m 561 -176 l 478 -176 l 478 976 l 385 976 l 385 -176 l 304 -176 l 304 389 q 279 379 292 382 q 250 376 266 376 q 154 414 192 376 q 98 526 116 451 q 79 712 79 600 q 100 902 79 825 q 164 1017 121 978 q 277 1055 208 1055 l 561 1055 l 561 -176 z "},"·":{"ha":319,"x_min":80,"x_max":239,"o":"m 80 487 q 100 555 80 532 q 160 578 121 578 q 218 556 197 578 q 239 487 239 534 q 218 418 239 440 q 160 395 196 395 q 101 419 123 395 q 80 487 80 442 z "},"¸":{"ha":271,"x_min":6,"x_max":254,"o":"m 254 -189 q 211 -296 254 -258 q 90 -334 168 -334 q 43 -331 64 -334 q 6 -324 22 -328 l 6 -245 q 37 -252 21 -250 q 69 -254 54 -254 q 133 -236 111 -254 q 154 -188 154 -218 q 125 -135 154 -153 q 48 -111 97 -117 l 96 0 l 167 0 l 137 -67 q 201 -91 175 -75 q 241 -132 227 -107 q 254 -189 254 -157 z "},"¹":{"ha":440,"x_min":52,"x_max":307,"o":"m 307 1171 l 307 576 l 210 576 l 210 927 q 211 970 210 949 q 213 1014 212 991 q 216 1058 214 1036 q 196 1040 205 1047 q 180 1027 187 1032 l 101 966 l 52 1032 l 227 1171 l 307 1171 z "},"º":{"ha":439,"x_min":40,"x_max":398,"o":"m 398 766 q 352 590 398 653 q 221 526 307 526 q 87 590 134 526 q 40 766 40 654 q 89 941 40 878 q 222 1003 137 1003 q 316 976 277 1003 q 377 896 356 949 q 398 766 398 844 m 136 766 q 157 645 136 684 q 220 606 178 606 q 285 645 265 606 q 305 766 305 684 q 285 885 305 846 q 220 924 265 924 q 158 886 180 924 q 136 766 136 847 z "},"»":{"ha":653,"x_min":49,"x_max":608,"o":"m 608 362 l 404 87 l 318 134 l 465 372 l 318 612 l 404 656 l 608 381 l 608 362 m 338 362 l 134 87 l 49 134 l 195 372 l 49 612 l 134 656 l 338 381 l 338 362 z "},"¼":{"ha":1011,"x_min":39,"x_max":989,"o":"m 220 0 l 723 991 l 827 991 l 324 0 l 220 0 m 197 397 l 197 749 q 198 792 197 770 q 200 835 199 813 q 203 880 201 857 q 183 861 192 869 q 167 847 174 853 l 88 789 l 39 853 l 214 991 l 295 991 l 295 397 l 197 397 m 823 0 l 823 125 l 598 125 l 598 197 l 819 597 l 917 597 l 917 207 l 989 207 l 989 125 l 917 125 l 917 0 l 823 0 m 687 207 l 823 207 l 823 376 q 824 435 823 409 q 825 478 824 460 q 812 446 820 463 q 795 408 805 429 l 687 207 z "},"½":{"ha":1051,"x_min":39,"x_max":994,"o":"m 203 0 l 705 991 l 809 991 l 306 0 l 203 0 m 197 397 l 197 749 q 198 781 197 765 q 199 814 198 798 q 200 847 199 830 q 203 880 201 863 q 183 861 192 869 q 167 847 174 853 l 88 789 l 39 853 l 214 991 l 295 991 l 295 397 l 197 397 m 648 0 l 648 85 l 771 232 q 834 311 809 277 q 870 376 859 345 q 882 441 882 407 q 862 500 882 477 q 802 522 841 522 q 747 508 773 522 q 695 465 721 494 l 646 530 q 718 588 675 566 q 811 609 760 609 q 937 565 892 609 q 981 451 981 522 q 965 361 981 401 q 921 283 949 321 q 853 199 892 245 l 756 85 l 994 85 l 994 0 l 648 0 z "},"¾":{"ha":1027,"x_min":34,"x_max":1005,"o":"m 236 0 l 738 991 l 843 991 l 339 0 l 236 0 m 184 387 q 109 395 145 387 q 39 422 72 404 l 39 517 q 107 486 71 496 q 184 475 144 475 q 262 499 237 475 q 287 563 287 523 q 258 638 287 613 q 170 664 229 664 l 121 664 l 121 744 l 166 744 q 246 770 218 744 q 273 840 273 796 q 252 899 273 878 q 189 920 231 920 q 134 908 159 920 q 80 870 108 895 l 34 937 q 112 988 71 971 q 198 1006 153 1006 q 320 966 275 1006 q 366 854 366 926 q 342 767 366 804 q 273 713 317 731 l 273 707 q 356 654 328 692 q 384 557 384 617 q 328 432 384 478 q 184 387 272 387 m 838 0 l 838 125 l 614 125 l 614 197 l 834 597 l 932 597 l 932 207 l 1005 207 l 1005 125 l 932 125 l 932 0 l 838 0 m 703 207 l 838 207 l 838 376 q 839 435 838 409 q 842 478 840 460 q 828 446 836 463 q 810 408 821 429 l 703 207 z "},"¿":{"ha":453,"x_min":28,"x_max":438,"o":"m 317 454 l 317 412 q 310 327 317 364 q 286 256 302 290 q 240 186 269 222 q 189 113 208 146 q 160 48 169 81 q 151 -25 151 15 q 178 -121 151 -89 q 254 -153 205 -153 q 325 -139 292 -153 q 393 -100 357 -126 l 438 -198 q 345 -248 393 -231 q 246 -265 297 -265 q 84 -205 140 -265 q 28 -35 28 -145 q 41 69 28 25 q 79 154 54 113 q 144 242 105 194 q 189 306 174 278 q 210 362 204 334 q 216 425 216 390 l 216 454 l 317 454 m 345 661 q 324 593 345 616 q 264 570 304 570 q 206 592 227 570 q 185 661 185 614 q 207 730 185 708 q 264 753 229 753 q 323 729 302 753 q 345 661 345 706 z "},"À":{"ha":644,"x_min":0,"x_max":644,"o":"m 507 0 l 438 299 l 206 299 l 138 0 l 0 0 l 239 991 l 399 991 l 644 0 l 507 0 m 416 415 l 345 733 q 336 786 340 760 q 327 836 331 812 q 320 882 323 860 q 314 836 318 861 q 306 786 311 812 q 295 734 301 761 l 227 415 l 416 415 m 254 1291 q 291 1221 269 1260 q 336 1147 313 1183 q 378 1086 359 1111 l 378 1069 l 296 1069 q 249 1114 275 1087 q 195 1170 222 1140 q 145 1229 168 1200 q 109 1279 123 1257 l 109 1291 l 254 1291 z "},"Á":{"ha":644,"x_min":0,"x_max":644,"o":"m 507 0 l 438 299 l 206 299 l 138 0 l 0 0 l 239 991 l 399 991 l 644 0 l 507 0 m 416 415 l 345 733 q 336 786 340 760 q 327 836 331 812 q 320 882 323 860 q 314 836 318 861 q 306 786 311 812 q 295 734 301 761 l 227 415 l 416 415 m 516 1291 l 516 1279 q 479 1230 502 1257 q 431 1173 457 1202 q 377 1116 404 1143 q 329 1069 351 1089 l 247 1069 l 247 1086 q 296 1158 273 1123 q 337 1227 318 1194 q 370 1291 355 1260 l 516 1291 z "},"Â":{"ha":644,"x_min":0,"x_max":644,"o":"m 507 0 l 438 299 l 206 299 l 138 0 l 0 0 l 239 991 l 399 991 l 644 0 l 507 0 m 416 415 l 345 733 q 336 786 340 760 q 327 836 331 812 q 320 882 323 860 q 314 836 318 861 q 306 786 311 812 q 295 734 301 761 l 227 415 l 416 415 m 377 1291 q 414 1224 392 1261 q 459 1151 435 1187 q 506 1084 484 1115 l 506 1069 l 435 1069 q 379 1129 408 1096 q 319 1200 350 1162 q 258 1128 288 1163 q 203 1069 228 1093 l 132 1069 l 132 1084 q 180 1153 156 1116 q 225 1226 204 1190 q 260 1291 247 1263 l 377 1291 z "},"Ã":{"ha":644,"x_min":0,"x_max":644,"o":"m 507 0 l 438 299 l 206 299 l 138 0 l 0 0 l 239 991 l 399 991 l 644 0 l 507 0 m 416 415 l 345 733 q 336 786 340 760 q 327 836 331 812 q 320 882 323 860 q 314 836 318 861 q 306 786 311 812 q 295 734 301 761 l 227 415 l 416 415 m 114 1069 q 124 1134 117 1102 q 144 1190 131 1165 q 178 1230 157 1215 q 229 1244 199 1244 q 279 1233 256 1244 q 325 1205 302 1221 q 368 1178 347 1190 q 409 1166 389 1166 q 441 1188 430 1166 q 457 1246 452 1209 l 532 1246 q 496 1116 528 1161 q 418 1071 465 1071 q 367 1083 392 1071 q 319 1111 342 1095 q 276 1138 296 1126 q 239 1150 256 1150 q 207 1129 221 1150 q 187 1069 193 1109 l 114 1069 z "},"Ä":{"ha":644,"x_min":0,"x_max":644,"o":"m 507 0 l 438 299 l 206 299 l 138 0 l 0 0 l 239 991 l 399 991 l 644 0 l 507 0 m 416 415 l 345 733 q 336 786 340 760 q 327 836 331 812 q 320 882 323 860 q 314 836 318 861 q 306 786 311 812 q 295 734 301 761 l 227 415 l 416 415 m 142 1160 q 160 1215 142 1197 q 205 1233 178 1233 q 251 1214 233 1233 q 269 1160 269 1196 q 251 1104 269 1123 q 205 1085 233 1085 q 160 1104 178 1085 q 142 1160 142 1122 m 372 1160 q 390 1215 372 1197 q 436 1233 408 1233 q 482 1214 464 1233 q 500 1160 500 1196 q 482 1104 500 1123 q 436 1085 464 1085 q 390 1104 408 1085 q 372 1160 372 1123 z "},"Å":{"ha":644,"x_min":0,"x_max":644,"o":"m 507 0 l 438 299 l 206 299 l 138 0 l 0 0 l 239 991 l 399 991 l 644 0 l 507 0 m 416 415 l 345 733 q 336 786 340 760 q 327 836 331 812 q 320 882 323 860 q 314 836 318 861 q 306 786 311 812 q 295 734 301 761 l 227 415 l 416 415 m 321 925 q 214 964 254 925 q 174 1067 174 1004 q 214 1171 174 1132 q 321 1211 254 1211 q 428 1172 386 1211 q 469 1069 469 1133 q 429 965 469 1005 q 321 925 389 925 m 323 998 q 375 1017 355 998 q 395 1067 395 1036 q 376 1120 395 1099 q 323 1140 357 1140 q 270 1120 290 1140 q 249 1068 249 1099 q 268 1017 249 1036 q 323 998 286 998 z "},"Æ":{"ha":877,"x_min":-3,"x_max":814,"o":"m 814 0 l 406 0 l 406 299 l 222 299 l 137 0 l -3 0 l 296 991 l 814 991 l 814 878 l 534 878 l 534 574 l 796 574 l 796 460 l 534 460 l 534 115 l 814 115 l 814 0 m 252 415 l 408 415 l 408 876 l 383 876 l 252 415 z "},"Ç":{"ha":629,"x_min":67,"x_max":595,"o":"m 410 892 q 315 861 355 892 q 250 774 275 829 q 213 647 224 719 q 201 495 201 576 q 227 283 201 372 q 302 148 254 195 q 418 101 351 101 q 499 113 461 101 q 571 142 538 125 l 571 26 q 494 -4 536 6 q 402 -14 452 -14 q 223 47 298 -14 q 107 222 148 108 q 67 496 67 336 q 88 695 67 603 q 151 858 109 788 q 257 968 193 928 q 404 1007 320 1007 q 504 994 456 1007 q 595 955 551 981 l 553 847 q 485 880 520 868 q 410 892 450 892 m 498 -189 q 455 -296 498 -258 q 334 -334 412 -334 q 287 -331 308 -334 q 250 -324 266 -328 l 250 -245 q 281 -252 265 -250 q 313 -254 298 -254 q 377 -236 355 -254 q 398 -188 398 -218 q 370 -135 398 -153 q 292 -111 341 -117 l 340 0 l 411 0 l 381 -67 q 445 -91 419 -75 q 485 -132 471 -107 q 498 -189 498 -157 z "},"È":{"ha":564,"x_min":99,"x_max":503,"o":"m 503 0 l 99 0 l 99 991 l 503 991 l 503 879 l 228 879 l 228 574 l 486 574 l 486 460 l 228 460 l 228 115 l 503 115 l 503 0 m 246 1291 q 283 1221 261 1260 q 328 1147 305 1183 q 370 1086 351 1111 l 370 1069 l 288 1069 q 241 1114 268 1087 q 188 1170 215 1140 q 138 1229 161 1200 q 101 1279 115 1257 l 101 1291 l 246 1291 z "},"É":{"ha":564,"x_min":99,"x_max":503,"o":"m 503 0 l 99 0 l 99 991 l 503 991 l 503 879 l 228 879 l 228 574 l 486 574 l 486 460 l 228 460 l 228 115 l 503 115 l 503 0 m 494 1291 l 494 1279 q 457 1230 479 1257 q 408 1173 435 1202 q 355 1116 382 1143 q 307 1069 328 1089 l 224 1069 l 224 1086 q 273 1158 251 1123 q 314 1227 296 1194 q 348 1291 333 1260 l 494 1291 z "},"Ê":{"ha":564,"x_min":99,"x_max":503,"o":"m 503 0 l 99 0 l 99 991 l 503 991 l 503 879 l 228 879 l 228 574 l 486 574 l 486 460 l 228 460 l 228 115 l 503 115 l 503 0 m 358 1291 q 395 1224 373 1261 q 440 1151 416 1187 q 487 1084 465 1115 l 487 1069 l 416 1069 q 360 1129 389 1096 q 300 1200 331 1162 q 239 1128 269 1163 q 184 1069 209 1093 l 113 1069 l 113 1084 q 161 1153 137 1116 q 207 1226 185 1190 q 241 1291 228 1263 l 358 1291 z "},"Ë":{"ha":564,"x_min":99,"x_max":503,"o":"m 503 0 l 99 0 l 99 991 l 503 991 l 503 879 l 228 879 l 228 574 l 486 574 l 486 460 l 228 460 l 228 115 l 503 115 l 503 0 m 119 1160 q 137 1215 119 1197 q 182 1233 155 1233 q 227 1214 210 1233 q 245 1160 245 1196 q 227 1104 245 1123 q 182 1085 210 1085 q 137 1104 155 1085 q 119 1160 119 1122 m 348 1160 q 366 1215 348 1197 q 412 1233 385 1233 q 458 1214 440 1233 q 477 1160 477 1196 q 458 1104 477 1123 q 412 1085 440 1085 q 366 1104 384 1085 q 348 1160 348 1123 z "},"Ì":{"ha":325,"x_min":-31,"x_max":239,"o":"m 99 0 l 99 991 l 228 991 l 228 0 l 99 0 m 114 1297 q 151 1227 129 1266 q 196 1153 173 1189 q 238 1092 219 1117 l 238 1076 l 156 1076 q 109 1120 136 1093 q 56 1176 83 1146 q 6 1235 28 1206 q -31 1285 -17 1263 l -31 1297 l 114 1297 z "},"Í":{"ha":325,"x_min":84,"x_max":353,"o":"m 99 0 l 99 991 l 228 991 l 228 0 l 99 0 m 353 1297 l 353 1285 q 317 1236 339 1263 q 268 1179 294 1208 q 215 1122 241 1149 q 166 1076 188 1095 l 84 1076 l 84 1092 q 133 1164 111 1129 q 174 1233 155 1200 q 208 1297 193 1266 l 353 1297 z "},"Î":{"ha":325,"x_min":-24,"x_max":350,"o":"m 99 0 l 99 991 l 228 991 l 228 0 l 99 0 m 221 1295 q 258 1228 236 1265 q 303 1155 279 1192 q 350 1088 328 1119 l 350 1074 l 279 1074 q 223 1133 252 1100 q 163 1204 194 1166 q 102 1132 132 1167 q 47 1074 72 1097 l -24 1074 l -24 1088 q 24 1157 0 1120 q 70 1230 48 1194 q 104 1295 91 1267 l 221 1295 z "},"Ï":{"ha":325,"x_min":-17,"x_max":341,"o":"m 99 0 l 99 991 l 228 991 l 228 0 l 99 0 m -17 1164 q 1 1220 -17 1202 q 46 1238 19 1238 q 92 1219 74 1238 q 109 1164 109 1200 q 92 1109 109 1128 q 46 1090 74 1090 q 1 1108 19 1090 q -17 1164 -17 1127 m 212 1164 q 231 1220 212 1202 q 277 1238 249 1238 q 323 1219 304 1238 q 341 1164 341 1200 q 323 1109 341 1128 q 277 1090 304 1090 q 230 1109 248 1090 q 212 1164 212 1128 z "},"Ð":{"ha":728,"x_min":26,"x_max":660,"o":"m 313 991 q 503 937 426 991 q 620 774 581 882 q 660 509 660 667 q 620 229 660 342 q 500 58 579 116 q 303 0 420 0 l 98 0 l 98 460 l 26 460 l 26 561 l 98 561 l 98 991 l 313 991 m 310 878 l 229 878 l 229 561 l 361 561 l 361 460 l 229 460 l 229 115 l 301 115 q 473 212 418 115 q 527 503 527 309 q 503 711 527 628 q 431 837 479 795 q 310 878 382 878 z "},"Ñ":{"ha":801,"x_min":99,"x_max":703,"o":"m 703 0 l 549 0 l 218 789 l 212 789 q 217 714 215 749 q 220 646 219 678 q 220 584 220 614 l 220 0 l 99 0 l 99 991 l 252 991 l 585 216 l 589 216 q 585 294 587 258 q 582 363 583 331 q 581 421 581 395 l 581 991 l 703 991 l 703 0 m 197 1069 q 207 1134 200 1102 q 227 1190 214 1165 q 261 1230 240 1215 q 313 1244 283 1244 q 362 1233 339 1244 q 408 1205 386 1221 q 451 1178 431 1190 q 492 1166 472 1166 q 524 1188 513 1166 q 541 1246 535 1209 l 615 1246 q 579 1116 611 1161 q 501 1071 548 1071 q 450 1083 475 1071 q 402 1111 425 1095 q 360 1138 380 1126 q 323 1150 340 1150 q 291 1129 304 1150 q 271 1069 277 1109 l 197 1069 z "},"Ò":{"ha":774,"x_min":67,"x_max":708,"o":"m 708 497 q 690 295 708 388 q 633 132 671 201 q 535 25 595 63 q 389 -14 474 -14 q 240 26 302 -14 q 141 135 179 65 q 85 297 103 204 q 67 498 67 391 q 103 780 67 667 q 211 950 140 893 q 389 1006 283 1006 q 572 940 502 1006 q 675 759 642 874 q 708 497 708 644 m 201 497 q 222 279 201 368 q 285 147 243 191 q 387 102 327 102 q 490 146 449 102 q 552 277 532 189 q 573 497 573 366 q 527 792 573 694 q 389 891 481 891 q 284 847 326 891 q 222 714 243 802 q 201 497 201 627 m 324 1291 q 361 1221 339 1260 q 406 1147 383 1183 q 448 1086 429 1111 l 448 1069 l 366 1069 q 319 1114 346 1087 q 266 1170 293 1140 q 216 1229 239 1200 q 179 1279 193 1257 l 179 1291 l 324 1291 z "},"Ó":{"ha":774,"x_min":67,"x_max":708,"o":"m 708 497 q 690 295 708 388 q 633 132 671 201 q 535 25 595 63 q 389 -14 474 -14 q 240 26 302 -14 q 141 135 179 65 q 85 297 103 204 q 67 498 67 391 q 103 780 67 667 q 211 950 140 893 q 389 1006 283 1006 q 572 940 502 1006 q 675 759 642 874 q 708 497 708 644 m 201 497 q 222 279 201 368 q 285 147 243 191 q 387 102 327 102 q 490 146 449 102 q 552 277 532 189 q 573 497 573 366 q 527 792 573 694 q 389 891 481 891 q 284 847 326 891 q 222 714 243 802 q 201 497 201 627 m 585 1291 l 585 1279 q 548 1230 570 1257 q 499 1173 526 1202 q 446 1116 473 1143 q 397 1069 419 1089 l 315 1069 l 315 1086 q 364 1158 342 1123 q 405 1227 387 1194 q 439 1291 424 1260 l 585 1291 z "},"Ô":{"ha":774,"x_min":67,"x_max":708,"o":"m 708 497 q 690 295 708 388 q 633 132 671 201 q 535 25 595 63 q 389 -14 474 -14 q 240 26 302 -14 q 141 135 179 65 q 85 297 103 204 q 67 498 67 391 q 103 780 67 667 q 211 950 140 893 q 389 1006 283 1006 q 572 940 502 1006 q 675 759 642 874 q 708 497 708 644 m 201 497 q 222 279 201 368 q 285 147 243 191 q 387 102 327 102 q 490 146 449 102 q 552 277 532 189 q 573 497 573 366 q 527 792 573 694 q 389 891 481 891 q 284 847 326 891 q 222 714 243 802 q 201 497 201 627 m 446 1291 q 482 1224 460 1261 q 528 1151 504 1187 q 574 1084 552 1115 l 574 1069 l 504 1069 q 447 1129 476 1096 q 387 1200 418 1162 q 327 1128 357 1163 q 272 1069 296 1093 l 201 1069 l 201 1084 q 249 1153 224 1116 q 294 1226 273 1190 q 329 1291 315 1263 l 446 1291 z "},"Õ":{"ha":774,"x_min":67,"x_max":708,"o":"m 708 497 q 690 295 708 388 q 633 132 671 201 q 535 25 595 63 q 389 -14 474 -14 q 240 26 302 -14 q 141 135 179 65 q 85 297 103 204 q 67 498 67 391 q 103 780 67 667 q 211 950 140 893 q 389 1006 283 1006 q 572 940 502 1006 q 675 759 642 874 q 708 497 708 644 m 201 497 q 222 279 201 368 q 285 147 243 191 q 387 102 327 102 q 490 146 449 102 q 552 277 532 189 q 573 497 573 366 q 527 792 573 694 q 389 891 481 891 q 284 847 326 891 q 222 714 243 802 q 201 497 201 627 m 183 1069 q 193 1134 186 1102 q 213 1190 200 1165 q 247 1230 226 1215 q 298 1244 269 1244 q 348 1233 325 1244 q 394 1205 372 1221 q 437 1178 416 1190 q 478 1166 458 1166 q 510 1188 499 1166 q 526 1246 521 1209 l 601 1246 q 565 1116 597 1161 q 487 1071 534 1071 q 436 1083 461 1071 q 388 1111 411 1095 q 346 1138 366 1126 q 309 1150 326 1150 q 276 1129 290 1150 q 256 1069 262 1109 l 183 1069 z "},"Ö":{"ha":774,"x_min":67,"x_max":708,"o":"m 708 497 q 690 295 708 388 q 633 132 671 201 q 535 25 595 63 q 389 -14 474 -14 q 240 26 302 -14 q 141 135 179 65 q 85 297 103 204 q 67 498 67 391 q 103 780 67 667 q 211 950 140 893 q 389 1006 283 1006 q 572 940 502 1006 q 675 759 642 874 q 708 497 708 644 m 201 497 q 222 279 201 368 q 285 147 243 191 q 387 102 327 102 q 490 146 449 102 q 552 277 532 189 q 573 497 573 366 q 527 792 573 694 q 389 891 481 891 q 284 847 326 891 q 222 714 243 802 q 201 497 201 627 m 212 1160 q 230 1215 212 1197 q 275 1233 248 1233 q 321 1214 303 1233 q 338 1160 338 1196 q 321 1104 338 1123 q 275 1085 303 1085 q 230 1104 248 1085 q 212 1160 212 1122 m 441 1160 q 460 1215 441 1197 q 506 1233 478 1233 q 552 1214 534 1233 q 570 1160 570 1196 q 552 1104 570 1123 q 506 1085 534 1085 q 459 1104 477 1085 q 441 1160 441 1123 z "},"×":{"ha":609,"x_min":47,"x_max":563,"o":"m 491 750 l 563 680 l 375 490 l 559 303 l 490 233 l 303 419 l 116 233 l 47 303 l 232 490 l 47 676 l 117 747 l 303 562 l 491 750 z "},"Ø":{"ha":777,"x_min":70,"x_max":710,"o":"m 710 497 q 690 280 710 375 q 630 120 670 185 q 530 20 590 54 q 391 -14 471 -14 q 295 2 338 -14 q 217 50 252 18 l 159 -69 l 85 -35 l 158 112 q 91 280 111 184 q 70 498 70 376 q 106 780 70 667 q 215 950 143 893 q 391 1006 286 1006 q 489 989 444 1006 q 570 937 534 971 l 627 1048 l 701 1012 l 629 871 q 690 712 670 806 q 710 497 710 618 m 579 497 q 573 622 579 565 q 554 724 567 680 l 271 161 q 323 115 294 130 q 390 99 353 99 q 495 143 453 99 q 558 277 537 188 q 579 497 579 366 m 201 497 q 209 360 201 421 q 231 254 216 300 l 517 821 q 463 876 494 859 q 391 893 431 893 q 286 848 328 893 q 222 715 243 804 q 201 497 201 627 z "},"Ù":{"ha":735,"x_min":91,"x_max":644,"o":"m 644 991 l 644 314 q 612 128 644 201 q 519 21 581 56 q 368 -14 458 -14 q 162 66 233 -14 q 91 313 91 146 l 91 991 l 220 991 l 220 314 q 258 152 220 201 q 369 102 297 102 q 449 123 417 102 q 498 191 481 144 q 515 315 515 238 l 515 991 l 644 991 m 312 1291 q 349 1221 327 1260 q 394 1147 371 1183 q 436 1086 417 1111 l 436 1069 l 354 1069 q 307 1114 334 1087 q 254 1170 281 1140 q 204 1229 227 1200 q 167 1279 181 1257 l 167 1291 l 312 1291 z "},"Ú":{"ha":735,"x_min":91,"x_max":644,"o":"m 644 991 l 644 314 q 612 128 644 201 q 519 21 581 56 q 368 -14 458 -14 q 162 66 233 -14 q 91 313 91 146 l 91 991 l 220 991 l 220 314 q 258 152 220 201 q 369 102 297 102 q 449 123 417 102 q 498 191 481 144 q 515 315 515 238 l 515 991 l 644 991 m 570 1291 l 570 1279 q 533 1230 555 1257 q 484 1173 511 1202 q 431 1116 458 1143 q 382 1069 404 1089 l 300 1069 l 300 1086 q 349 1158 327 1123 q 390 1227 372 1194 q 424 1291 409 1260 l 570 1291 z "},"Û":{"ha":735,"x_min":91,"x_max":644,"o":"m 644 991 l 644 314 q 612 128 644 201 q 519 21 581 56 q 368 -14 458 -14 q 162 66 233 -14 q 91 313 91 146 l 91 991 l 220 991 l 220 314 q 258 152 220 201 q 369 102 297 102 q 449 123 417 102 q 498 191 481 144 q 515 315 515 238 l 515 991 l 644 991 m 425 1291 q 462 1224 440 1261 q 508 1151 484 1187 q 554 1084 532 1115 l 554 1069 l 484 1069 q 427 1129 456 1096 q 367 1200 398 1162 q 306 1128 336 1163 q 252 1069 276 1093 l 180 1069 l 180 1084 q 228 1153 204 1116 q 274 1226 252 1190 q 309 1291 295 1263 l 425 1291 z "},"Ü":{"ha":735,"x_min":91,"x_max":644,"o":"m 644 991 l 644 314 q 612 128 644 201 q 519 21 581 56 q 368 -14 458 -14 q 162 66 233 -14 q 91 313 91 146 l 91 991 l 220 991 l 220 314 q 258 152 220 201 q 369 102 297 102 q 449 123 417 102 q 498 191 481 144 q 515 315 515 238 l 515 991 l 644 991 m 189 1159 q 207 1214 189 1196 q 252 1232 225 1232 q 298 1214 280 1232 q 315 1159 315 1195 q 298 1103 315 1122 q 252 1084 280 1084 q 207 1103 225 1084 q 189 1159 189 1122 m 418 1159 q 437 1214 418 1196 q 483 1232 455 1232 q 529 1214 511 1232 q 547 1159 547 1195 q 529 1103 547 1122 q 483 1084 511 1084 q 436 1103 454 1084 q 418 1159 418 1122 z "},"Ý":{"ha":564,"x_min":0,"x_max":564,"o":"m 283 534 l 431 991 l 564 991 l 346 385 l 346 0 l 218 0 l 218 382 l 0 991 l 134 991 l 283 534 m 469 1291 l 469 1279 q 432 1230 454 1257 q 383 1173 410 1202 q 330 1116 357 1143 q 281 1069 303 1089 l 199 1069 l 199 1086 q 248 1158 226 1123 q 289 1227 271 1194 q 323 1291 308 1260 l 469 1291 z "},"Þ":{"ha":614,"x_min":99,"x_max":578,"o":"m 578 532 q 562 398 578 458 q 510 297 545 339 q 421 234 475 256 q 293 212 367 212 l 228 212 l 228 0 l 99 0 l 99 991 l 228 991 l 228 823 l 295 823 q 509 750 440 823 q 578 532 578 678 m 228 324 l 280 324 q 379 346 342 324 q 433 413 416 368 q 450 527 450 458 q 412 666 450 623 q 291 709 374 709 l 228 709 l 228 324 z "},"ß":{"ha":653,"x_min":87,"x_max":610,"o":"m 545 853 q 532 776 545 809 q 500 716 519 743 q 463 667 481 690 q 430 622 444 645 q 417 571 417 598 q 426 528 417 549 q 451 487 434 508 q 493 440 469 465 q 562 362 536 397 q 599 294 587 328 q 610 213 610 259 q 587 92 610 142 q 517 14 563 41 q 405 -14 471 -14 q 332 -5 370 -14 q 265 24 295 4 l 265 142 q 304 119 284 130 q 347 102 325 109 q 393 96 368 96 q 462 125 438 96 q 486 203 486 154 q 477 257 486 233 q 449 306 469 281 q 397 361 429 330 q 334 435 357 400 q 303 501 312 469 q 294 564 294 533 q 307 632 294 604 q 339 684 320 661 q 377 731 358 707 q 409 782 396 754 q 422 848 422 810 q 398 927 422 898 q 325 956 374 956 q 262 936 288 956 q 224 877 237 916 q 211 783 211 839 l 211 0 l 87 0 l 87 789 q 116 936 87 875 q 199 1030 145 997 q 327 1063 252 1063 q 444 1038 395 1063 q 519 966 492 1013 q 545 853 545 920 z "},"à":{"ha":589,"x_min":46,"x_max":503,"o":"m 303 762 q 456 696 408 762 q 503 502 503 629 l 503 0 l 411 0 l 392 105 l 389 105 q 345 40 370 66 q 288 0 320 14 q 215 -14 256 -14 q 119 18 156 -14 q 64 100 81 50 q 46 210 46 151 q 111 383 46 322 q 293 450 175 444 l 380 454 l 380 500 q 357 622 380 583 q 282 661 334 661 q 215 649 251 661 q 138 613 180 638 l 101 706 q 197 748 145 734 q 303 762 248 762 m 381 367 l 317 363 q 208 321 243 359 q 172 214 172 284 q 195 117 172 149 q 259 86 218 86 q 349 141 316 86 q 381 293 381 197 l 381 367 m 272 1063 q 309 994 287 1032 q 354 919 331 955 q 396 858 377 883 l 396 842 l 314 842 q 267 886 294 859 q 214 942 241 912 q 164 1001 186 972 q 127 1051 141 1029 l 127 1063 l 272 1063 z "},"á":{"ha":589,"x_min":46,"x_max":503,"o":"m 303 762 q 456 696 408 762 q 503 502 503 629 l 503 0 l 411 0 l 392 105 l 389 105 q 345 40 370 66 q 288 0 320 14 q 215 -14 256 -14 q 119 18 156 -14 q 64 100 81 50 q 46 210 46 151 q 111 383 46 322 q 293 450 175 444 l 380 454 l 380 500 q 357 622 380 583 q 282 661 334 661 q 215 649 251 661 q 138 613 180 638 l 101 706 q 197 748 145 734 q 303 762 248 762 m 381 367 l 317 363 q 208 321 243 359 q 172 214 172 284 q 195 117 172 149 q 259 86 218 86 q 349 141 316 86 q 381 293 381 197 l 381 367 m 476 1063 l 476 1051 q 439 1002 462 1029 q 391 945 417 974 q 337 888 364 916 q 289 842 311 861 l 207 842 l 207 858 q 256 930 233 895 q 297 999 278 966 q 330 1063 315 1032 l 476 1063 z "},"â":{"ha":589,"x_min":46,"x_max":503,"o":"m 303 762 q 456 696 408 762 q 503 502 503 629 l 503 0 l 411 0 l 392 105 l 389 105 q 345 40 370 66 q 288 0 320 14 q 215 -14 256 -14 q 119 18 156 -14 q 64 100 81 50 q 46 210 46 151 q 111 383 46 322 q 293 450 175 444 l 380 454 l 380 500 q 357 622 380 583 q 282 661 334 661 q 215 649 251 661 q 138 613 180 638 l 101 706 q 197 748 145 734 q 303 762 248 762 m 381 367 l 317 363 q 208 321 243 359 q 172 214 172 284 q 195 117 172 149 q 259 86 218 86 q 349 141 316 86 q 381 293 381 197 l 381 367 m 361 1063 q 398 996 376 1033 q 444 923 420 960 q 490 857 468 887 l 490 842 l 420 842 q 363 901 392 868 q 303 972 334 935 q 242 900 273 935 q 188 842 212 865 l 117 842 l 117 857 q 164 925 140 888 q 210 998 189 962 q 245 1063 231 1035 l 361 1063 z "},"ã":{"ha":589,"x_min":46,"x_max":512,"o":"m 303 762 q 456 696 408 762 q 503 502 503 629 l 503 0 l 411 0 l 392 105 l 389 105 q 345 40 370 66 q 288 0 320 14 q 215 -14 256 -14 q 119 18 156 -14 q 64 100 81 50 q 46 210 46 151 q 111 383 46 322 q 293 450 175 444 l 380 454 l 380 500 q 357 622 380 583 q 282 661 334 661 q 215 649 251 661 q 138 613 180 638 l 101 706 q 197 748 145 734 q 303 762 248 762 m 381 367 l 317 363 q 208 321 243 359 q 172 214 172 284 q 195 117 172 149 q 259 86 218 86 q 349 141 316 86 q 381 293 381 197 l 381 367 m 94 842 q 104 906 97 875 q 124 963 111 938 q 158 1002 137 987 q 210 1017 180 1017 q 259 1005 236 1017 q 305 978 283 994 q 348 951 328 963 q 389 939 369 939 q 421 961 410 939 q 437 1019 432 982 l 512 1019 q 476 889 508 934 q 398 844 445 844 q 347 856 372 844 q 299 883 322 867 q 257 911 277 899 q 220 923 237 923 q 188 902 201 923 q 168 842 174 882 l 94 842 z "},"ä":{"ha":589,"x_min":46,"x_max":503,"o":"m 303 762 q 456 696 408 762 q 503 502 503 629 l 503 0 l 411 0 l 392 105 l 389 105 q 345 40 370 66 q 288 0 320 14 q 215 -14 256 -14 q 119 18 156 -14 q 64 100 81 50 q 46 210 46 151 q 111 383 46 322 q 293 450 175 444 l 380 454 l 380 500 q 357 622 380 583 q 282 661 334 661 q 215 649 251 661 q 138 613 180 638 l 101 706 q 197 748 145 734 q 303 762 248 762 m 381 367 l 317 363 q 208 321 243 359 q 172 214 172 284 q 195 117 172 149 q 259 86 218 86 q 349 141 316 86 q 381 293 381 197 l 381 367 m 123 932 q 141 987 123 969 q 186 1005 159 1005 q 232 986 214 1005 q 250 932 250 968 q 232 876 250 895 q 186 857 214 857 q 141 876 159 857 q 123 932 123 895 m 353 932 q 371 987 353 969 q 417 1005 389 1005 q 463 986 445 1005 q 481 932 481 968 q 463 876 481 895 q 417 857 445 857 q 371 876 389 857 q 353 932 353 895 z "},"å":{"ha":589,"x_min":46,"x_max":503,"o":"m 303 762 q 456 696 408 762 q 503 502 503 629 l 503 0 l 411 0 l 392 105 l 389 105 q 345 40 370 66 q 288 0 320 14 q 215 -14 256 -14 q 119 18 156 -14 q 64 100 81 50 q 46 210 46 151 q 111 383 46 322 q 293 450 175 444 l 380 454 l 380 500 q 357 622 380 583 q 282 661 334 661 q 215 649 251 661 q 138 613 180 638 l 101 706 q 197 748 145 734 q 303 762 248 762 m 381 367 l 317 363 q 208 321 243 359 q 172 214 172 284 q 195 117 172 149 q 259 86 218 86 q 349 141 316 86 q 381 293 381 197 l 381 367 m 303 846 q 195 885 235 846 q 155 988 155 924 q 195 1092 155 1053 q 303 1131 235 1131 q 409 1092 368 1131 q 451 990 451 1053 q 411 886 451 926 q 303 846 370 846 m 304 918 q 357 937 336 918 q 377 988 377 956 q 358 1040 377 1020 q 304 1061 338 1061 q 251 1040 272 1061 q 231 989 231 1020 q 249 938 231 957 q 304 918 268 918 z "},"æ":{"ha":911,"x_min":46,"x_max":856,"o":"m 625 761 q 755 717 704 761 q 831 598 806 673 q 856 429 856 524 l 856 348 l 500 348 q 542 153 502 217 q 660 89 582 89 q 744 101 702 89 q 827 140 785 114 l 827 34 q 744 -2 788 10 q 648 -14 700 -14 q 555 4 598 -14 q 479 55 512 21 q 427 136 446 88 q 373 52 404 85 q 306 2 343 18 q 223 -14 269 -14 q 123 18 162 -14 q 65 100 83 49 q 46 210 46 151 q 75 337 46 286 q 160 418 104 389 q 294 450 215 446 l 380 454 l 380 503 q 356 621 380 582 q 283 661 332 661 q 216 649 252 661 q 139 613 180 638 l 101 707 q 189 747 141 731 q 292 762 237 762 q 393 737 353 762 q 453 659 432 711 q 524 735 481 709 q 625 761 567 761 m 381 366 l 317 363 q 207 322 243 359 q 172 214 172 286 q 194 118 172 150 q 259 87 217 87 q 325 111 297 87 q 367 181 352 136 q 381 288 381 227 l 381 366 m 624 660 q 538 607 570 660 q 501 443 505 554 l 741 443 q 729 555 741 506 q 690 632 716 604 q 624 660 665 660 z "},"ç":{"ha":496,"x_min":58,"x_max":467,"o":"m 313 -14 q 171 29 228 -14 q 86 157 115 72 q 58 370 58 242 q 86 578 58 490 q 172 714 115 667 q 317 762 230 762 q 399 752 363 762 q 467 724 435 743 l 430 623 q 377 646 403 638 q 326 653 351 653 q 248 621 279 653 q 200 527 216 589 q 184 370 184 464 q 200 218 184 279 q 248 125 216 157 q 327 94 279 94 q 392 104 359 94 q 457 133 425 114 l 457 28 q 387 -3 427 7 q 313 -14 348 -14 m 433 -189 q 389 -296 433 -258 q 268 -334 346 -334 q 221 -331 242 -334 q 184 -324 200 -328 l 184 -245 q 216 -252 199 -250 q 248 -254 232 -254 q 311 -236 290 -254 q 332 -188 332 -218 q 304 -135 332 -153 q 227 -111 275 -117 l 274 0 l 345 0 l 315 -67 q 379 -91 353 -75 q 419 -132 406 -107 q 433 -189 433 -157 z "},"è":{"ha":589,"x_min":58,"x_max":536,"o":"m 303 761 q 433 717 381 761 q 511 598 485 673 q 536 429 536 524 l 536 347 l 180 347 q 221 154 181 218 q 342 90 261 90 q 424 102 385 90 q 507 142 464 115 l 507 35 q 422 -2 467 10 q 328 -14 378 -14 q 172 36 232 -14 q 85 172 113 85 q 58 370 58 258 q 85 583 58 496 q 168 715 113 670 q 303 761 222 761 m 304 661 q 217 608 249 661 q 181 443 186 555 l 421 443 q 409 553 421 503 q 370 632 396 603 q 304 661 344 661 m 269 1063 q 306 994 283 1032 q 351 919 328 955 q 393 858 374 883 l 393 842 l 311 842 q 264 886 290 859 q 210 942 237 912 q 160 1001 183 972 q 123 1051 138 1029 l 123 1063 l 269 1063 z "},"é":{"ha":589,"x_min":58,"x_max":536,"o":"m 303 761 q 433 717 381 761 q 511 598 485 673 q 536 429 536 524 l 536 347 l 180 347 q 221 154 181 218 q 342 90 261 90 q 424 102 385 90 q 507 142 464 115 l 507 35 q 422 -2 467 10 q 328 -14 378 -14 q 172 36 232 -14 q 85 172 113 85 q 58 370 58 258 q 85 583 58 496 q 168 715 113 670 q 303 761 222 761 m 304 661 q 217 608 249 661 q 181 443 186 555 l 421 443 q 409 553 421 503 q 370 632 396 603 q 304 661 344 661 m 494 1063 l 494 1051 q 457 1002 479 1029 q 408 945 435 974 q 355 888 382 916 q 307 842 328 861 l 224 842 l 224 858 q 273 930 251 895 q 314 999 296 966 q 348 1063 333 1032 l 494 1063 z "},"ê":{"ha":589,"x_min":58,"x_max":536,"o":"m 303 761 q 433 717 381 761 q 511 598 485 673 q 536 429 536 524 l 536 347 l 180 347 q 221 154 181 218 q 342 90 261 90 q 424 102 385 90 q 507 142 464 115 l 507 35 q 422 -2 467 10 q 328 -14 378 -14 q 172 36 232 -14 q 85 172 113 85 q 58 370 58 258 q 85 583 58 496 q 168 715 113 670 q 303 761 222 761 m 304 661 q 217 608 249 661 q 181 443 186 555 l 421 443 q 409 553 421 503 q 370 632 396 603 q 304 661 344 661 m 358 1063 q 395 996 373 1033 q 440 923 416 960 q 487 857 465 887 l 487 842 l 416 842 q 360 901 389 868 q 300 972 331 935 q 239 900 269 935 q 184 842 209 865 l 113 842 l 113 857 q 161 925 137 888 q 207 998 185 962 q 241 1063 228 1035 l 358 1063 z "},"ë":{"ha":589,"x_min":58,"x_max":536,"o":"m 303 761 q 433 717 381 761 q 511 598 485 673 q 536 429 536 524 l 536 347 l 180 347 q 221 154 181 218 q 342 90 261 90 q 424 102 385 90 q 507 142 464 115 l 507 35 q 422 -2 467 10 q 328 -14 378 -14 q 172 36 232 -14 q 85 172 113 85 q 58 370 58 258 q 85 583 58 496 q 168 715 113 670 q 303 761 222 761 m 304 661 q 217 608 249 661 q 181 443 186 555 l 421 443 q 409 553 421 503 q 370 632 396 603 q 304 661 344 661 m 121 932 q 139 987 121 969 q 184 1005 157 1005 q 229 986 212 1005 q 247 932 247 968 q 229 876 247 895 q 184 857 212 857 q 139 876 157 857 q 121 932 121 895 m 350 932 q 368 987 350 969 q 414 1005 387 1005 q 460 986 442 1005 q 479 932 479 968 q 460 876 479 895 q 414 857 442 857 q 368 876 386 857 q 350 932 350 895 z "},"ì":{"ha":300,"x_min":-27,"x_max":242,"o":"m 212 0 l 88 0 l 88 749 l 212 749 l 212 0 m 118 1063 q 155 994 133 1032 q 200 919 177 955 q 242 858 223 883 l 242 842 l 160 842 q 113 886 140 859 q 60 942 87 912 q 10 1001 33 972 q -27 1051 -13 1029 l -27 1063 l 118 1063 z "},"í":{"ha":300,"x_min":73,"x_max":342,"o":"m 212 0 l 88 0 l 88 749 l 212 749 l 212 0 m 342 1063 l 342 1051 q 306 1002 328 1029 q 257 945 283 974 q 204 888 231 916 q 155 842 177 861 l 73 842 l 73 858 q 122 930 100 895 q 163 999 144 966 q 197 1063 182 1032 l 342 1063 z "},"î":{"ha":300,"x_min":-38,"x_max":336,"o":"m 212 0 l 88 0 l 88 749 l 212 749 l 212 0 m 207 1063 q 243 996 222 1033 q 289 923 265 960 q 336 857 313 887 l 336 842 l 265 842 q 209 901 237 868 q 149 972 180 935 q 88 900 118 935 q 33 842 58 865 l -38 842 l -38 857 q 10 925 -14 888 q 55 998 34 962 q 90 1063 77 1035 l 207 1063 z "},"ï":{"ha":300,"x_min":-31,"x_max":328,"o":"m 212 0 l 88 0 l 88 749 l 212 749 l 212 0 m -31 932 q -13 987 -31 969 q 33 1005 5 1005 q 78 986 60 1005 q 96 932 96 968 q 78 876 96 895 q 33 857 60 857 q -13 876 5 857 q -31 932 -31 895 m 199 932 q 217 987 199 969 q 263 1005 235 1005 q 309 986 291 1005 q 328 932 328 968 q 309 876 328 895 q 263 857 291 857 q 217 876 235 857 q 199 932 199 895 z "},"ð":{"ha":629,"x_min":57,"x_max":573,"o":"m 229 1059 q 280 1026 255 1044 q 332 984 306 1008 l 444 1059 l 492 993 l 389 926 q 490 774 450 858 q 552 589 531 690 q 573 363 573 487 q 544 157 573 241 q 456 30 514 73 q 314 -14 398 -14 q 173 32 231 -14 q 86 155 116 78 q 57 325 57 231 q 87 508 57 433 q 171 622 117 583 q 294 661 224 661 q 345 654 321 661 q 388 635 369 648 q 420 604 406 623 l 425 605 q 380 741 411 676 q 303 861 350 805 l 201 792 l 153 857 l 251 923 q 212 958 232 942 q 173 988 193 975 l 229 1059 m 317 554 q 243 528 273 554 q 197 450 213 502 q 182 321 182 398 q 196 204 182 256 q 240 122 210 153 q 317 92 270 92 q 418 153 387 92 q 449 331 449 213 q 441 420 449 379 q 416 491 433 460 q 375 537 399 521 q 317 554 351 554 z "},"ñ":{"ha":644,"x_min":87,"x_max":558,"o":"m 374 762 q 511 699 464 762 q 558 506 558 635 l 558 0 l 435 0 l 435 477 q 413 609 435 565 q 342 652 391 652 q 242 590 273 652 q 211 385 211 527 l 211 0 l 87 0 l 87 749 l 186 749 l 199 644 l 208 644 q 248 707 223 680 q 304 748 272 733 q 374 762 336 762 m 123 843 q 133 907 126 876 q 153 963 140 939 q 188 1003 166 988 q 239 1018 209 1018 q 289 1006 265 1018 q 334 979 312 994 q 377 952 357 964 q 418 940 398 940 q 450 961 439 940 q 467 1019 461 983 l 541 1019 q 506 889 537 935 q 427 844 474 844 q 376 856 401 844 q 329 884 351 868 q 286 912 306 900 q 249 924 266 924 q 217 903 231 924 q 197 843 203 882 l 123 843 z "},"ò":{"ha":628,"x_min":57,"x_max":572,"o":"m 572 375 q 556 218 572 290 q 510 95 541 147 q 429 15 478 43 q 313 -14 380 -14 q 201 15 249 -14 q 121 94 153 43 q 73 217 89 146 q 57 375 57 289 q 84 583 57 496 q 169 716 112 669 q 315 762 226 762 q 454 718 397 762 q 542 588 511 674 q 572 375 572 502 m 182 374 q 196 219 182 282 q 240 125 210 157 q 315 94 269 94 q 390 124 361 94 q 432 218 418 155 q 446 375 446 281 q 432 530 446 468 q 390 624 418 593 q 315 655 361 655 q 214 585 245 655 q 182 374 182 515 m 283 1063 q 320 994 298 1032 q 365 919 342 955 q 407 858 388 883 l 407 842 l 325 842 q 278 886 304 859 q 224 942 252 912 q 175 1001 197 972 q 138 1051 152 1029 l 138 1063 l 283 1063 z "},"ó":{"ha":628,"x_min":57,"x_max":572,"o":"m 572 375 q 556 218 572 290 q 510 95 541 147 q 429 15 478 43 q 313 -14 380 -14 q 201 15 249 -14 q 121 94 153 43 q 73 217 89 146 q 57 375 57 289 q 84 583 57 496 q 169 716 112 669 q 315 762 226 762 q 454 718 397 762 q 542 588 511 674 q 572 375 572 502 m 182 374 q 196 219 182 282 q 240 125 210 157 q 315 94 269 94 q 390 124 361 94 q 432 218 418 155 q 446 375 446 281 q 432 530 446 468 q 390 624 418 593 q 315 655 361 655 q 214 585 245 655 q 182 374 182 515 m 506 1063 l 506 1051 q 469 1002 492 1029 q 420 945 447 974 q 367 888 394 916 q 319 842 340 861 l 237 842 l 237 858 q 286 930 263 895 q 327 999 308 966 q 360 1063 345 1032 l 506 1063 z "},"ô":{"ha":628,"x_min":57,"x_max":572,"o":"m 572 375 q 556 218 572 290 q 510 95 541 147 q 429 15 478 43 q 313 -14 380 -14 q 201 15 249 -14 q 121 94 153 43 q 73 217 89 146 q 57 375 57 289 q 84 583 57 496 q 169 716 112 669 q 315 762 226 762 q 454 718 397 762 q 542 588 511 674 q 572 375 572 502 m 182 374 q 196 219 182 282 q 240 125 210 157 q 315 94 269 94 q 390 124 361 94 q 432 218 418 155 q 446 375 446 281 q 432 530 446 468 q 390 624 418 593 q 315 655 361 655 q 214 585 245 655 q 182 374 182 515 m 371 1063 q 408 996 386 1033 q 453 923 429 960 q 500 857 477 887 l 500 842 l 429 842 q 373 901 401 868 q 313 972 344 935 q 252 900 282 935 q 197 842 222 865 l 126 842 l 126 857 q 174 925 150 888 q 219 998 198 962 q 254 1063 241 1035 l 371 1063 z "},"õ":{"ha":628,"x_min":57,"x_max":572,"o":"m 572 375 q 556 218 572 290 q 510 95 541 147 q 429 15 478 43 q 313 -14 380 -14 q 201 15 249 -14 q 121 94 153 43 q 73 217 89 146 q 57 375 57 289 q 84 583 57 496 q 169 716 112 669 q 315 762 226 762 q 454 718 397 762 q 542 588 511 674 q 572 375 572 502 m 182 374 q 196 219 182 282 q 240 125 210 157 q 315 94 269 94 q 390 124 361 94 q 432 218 418 155 q 446 375 446 281 q 432 530 446 468 q 390 624 418 593 q 315 655 361 655 q 214 585 245 655 q 182 374 182 515 m 104 842 q 114 906 107 875 q 134 963 121 938 q 169 1002 147 987 q 220 1017 190 1017 q 270 1005 246 1017 q 315 978 293 994 q 358 951 338 963 q 399 939 379 939 q 431 961 420 939 q 448 1019 442 982 l 522 1019 q 487 889 518 934 q 408 844 455 844 q 357 856 382 844 q 310 883 332 867 q 267 911 287 899 q 230 923 247 923 q 198 902 212 923 q 178 842 184 882 l 104 842 z "},"ö":{"ha":628,"x_min":57,"x_max":572,"o":"m 572 375 q 556 218 572 290 q 510 95 541 147 q 429 15 478 43 q 313 -14 380 -14 q 201 15 249 -14 q 121 94 153 43 q 73 217 89 146 q 57 375 57 289 q 84 583 57 496 q 169 716 112 669 q 315 762 226 762 q 454 718 397 762 q 542 588 511 674 q 572 375 572 502 m 182 374 q 196 219 182 282 q 240 125 210 157 q 315 94 269 94 q 390 124 361 94 q 432 218 418 155 q 446 375 446 281 q 432 530 446 468 q 390 624 418 593 q 315 655 361 655 q 214 585 245 655 q 182 374 182 515 m 134 932 q 152 987 134 969 q 197 1005 170 1005 q 243 986 225 1005 q 260 932 260 968 q 243 876 260 895 q 197 857 225 857 q 152 876 170 857 q 134 932 134 895 m 363 932 q 382 987 363 969 q 428 1005 400 1005 q 474 986 456 1005 q 492 932 492 968 q 474 876 492 895 q 428 857 456 857 q 381 876 399 857 q 363 932 363 895 z "},"÷":{"ha":609,"x_min":43,"x_max":564,"o":"m 43 439 l 43 542 l 564 542 l 564 439 l 43 439 m 305 149 q 250 172 269 149 q 231 238 231 195 q 250 303 231 281 q 305 326 269 326 q 359 303 340 326 q 377 238 377 281 q 358 172 377 194 q 305 149 338 149 m 305 654 q 250 676 269 654 q 231 741 231 699 q 250 807 231 784 q 305 829 269 829 q 359 807 340 829 q 377 741 377 784 q 358 675 377 697 q 305 654 338 654 z "},"ø":{"ha":632,"x_min":59,"x_max":574,"o":"m 574 375 q 544 164 574 251 q 456 32 513 77 q 315 -14 398 -14 q 247 -3 278 -14 q 189 27 215 7 l 132 -92 l 60 -57 l 132 84 q 77 211 94 138 q 59 375 59 283 q 125 664 59 565 q 317 762 191 762 q 387 751 355 762 q 446 716 419 740 l 497 817 l 568 782 l 507 658 q 557 536 541 607 q 574 375 574 465 m 181 374 q 186 281 181 323 q 199 211 191 240 l 403 617 q 365 649 387 638 q 317 659 344 659 q 213 588 245 659 q 181 374 181 517 m 454 375 q 450 462 454 423 q 438 529 445 500 l 237 125 q 272 97 252 106 q 316 87 292 87 q 395 120 364 87 q 440 216 425 152 q 454 375 454 279 z "},"ù":{"ha":644,"x_min":85,"x_max":556,"o":"m 556 749 l 556 0 l 458 0 l 444 104 l 436 104 q 396 41 420 67 q 341 1 372 15 q 271 -14 310 -14 q 164 19 205 -14 q 104 113 123 52 q 85 258 85 174 l 85 749 l 209 749 l 209 286 q 231 143 209 189 q 298 97 252 97 q 378 125 349 97 q 420 210 407 153 q 433 353 433 267 l 433 749 l 556 749 m 292 1063 q 329 994 307 1032 q 374 919 351 955 q 416 858 397 883 l 416 842 l 334 842 q 287 886 313 859 q 233 942 260 912 q 183 1001 206 972 q 146 1051 161 1029 l 146 1063 l 292 1063 z "},"ú":{"ha":644,"x_min":85,"x_max":556,"o":"m 556 749 l 556 0 l 458 0 l 444 104 l 436 104 q 396 41 420 67 q 341 1 372 15 q 271 -14 310 -14 q 164 19 205 -14 q 104 113 123 52 q 85 258 85 174 l 85 749 l 209 749 l 209 286 q 231 143 209 189 q 298 97 252 97 q 378 125 349 97 q 420 210 407 153 q 433 353 433 267 l 433 749 l 556 749 m 516 1063 l 516 1051 q 479 1002 502 1029 q 431 945 457 974 q 377 888 404 916 q 329 842 351 861 l 247 842 l 247 858 q 296 930 273 895 q 337 999 318 966 q 370 1063 355 1032 l 516 1063 z "},"û":{"ha":644,"x_min":85,"x_max":556,"o":"m 556 749 l 556 0 l 458 0 l 444 104 l 436 104 q 396 41 420 67 q 341 1 372 15 q 271 -14 310 -14 q 164 19 205 -14 q 104 113 123 52 q 85 258 85 174 l 85 749 l 209 749 l 209 286 q 231 143 209 189 q 298 97 252 97 q 378 125 349 97 q 420 210 407 153 q 433 353 433 267 l 433 749 l 556 749 m 381 1063 q 418 996 396 1033 q 464 923 439 960 q 510 857 488 887 l 510 842 l 439 842 q 383 901 412 868 q 323 972 354 935 q 262 900 292 935 q 208 842 232 865 l 136 842 l 136 857 q 184 925 160 888 q 230 998 208 962 q 264 1063 251 1035 l 381 1063 z "},"ü":{"ha":644,"x_min":85,"x_max":556,"o":"m 556 749 l 556 0 l 458 0 l 444 104 l 436 104 q 396 41 420 67 q 341 1 372 15 q 271 -14 310 -14 q 164 19 205 -14 q 104 113 123 52 q 85 258 85 174 l 85 749 l 209 749 l 209 286 q 231 143 209 189 q 298 97 252 97 q 378 125 349 97 q 420 210 407 153 q 433 353 433 267 l 433 749 l 556 749 m 144 932 q 162 987 144 969 q 207 1005 180 1005 q 252 986 235 1005 q 270 932 270 968 q 252 876 270 895 q 207 857 235 857 q 162 876 180 857 q 144 932 144 895 m 373 932 q 391 987 373 969 q 437 1005 410 1005 q 484 986 465 1005 q 502 932 502 968 q 484 876 502 895 q 437 857 465 857 q 391 876 409 857 q 373 932 373 895 z "},"ý":{"ha":534,"x_min":7,"x_max":528,"o":"m 7 749 l 136 749 l 237 330 q 248 276 243 302 q 258 223 254 249 q 267 172 263 197 l 272 172 q 284 247 277 208 q 303 330 292 286 l 401 749 l 528 749 l 306 -108 q 256 -237 285 -187 q 190 -310 228 -287 q 99 -334 151 -334 q 64 -330 81 -334 q 27 -322 46 -327 l 27 -212 q 54 -220 40 -217 q 81 -222 68 -222 q 125 -210 107 -222 q 157 -167 143 -197 q 186 -83 172 -137 l 208 6 l 7 749 m 460 1063 l 460 1051 q 423 1002 446 1029 q 374 945 401 974 q 321 888 348 916 q 273 842 294 861 l 191 842 l 191 858 q 239 930 217 895 q 280 999 262 966 q 314 1063 299 1032 l 460 1063 z "},"þ":{"ha":650,"x_min":87,"x_max":595,"o":"m 595 375 q 570 164 595 251 q 497 32 545 78 q 381 -14 449 -14 q 311 1 344 -14 q 254 41 279 15 q 211 104 229 67 l 206 104 q 209 64 208 83 q 211 28 210 45 q 212 -3 212 12 l 212 -332 l 87 -332 l 87 1055 l 211 1055 l 211 764 q 210 703 211 733 q 206 642 209 673 l 211 642 q 255 710 231 684 q 310 750 280 737 q 376 762 340 762 q 539 663 483 762 q 595 375 595 564 m 469 374 q 439 587 469 519 q 345 655 410 655 q 244 593 277 655 q 211 398 211 530 l 211 361 q 244 159 211 224 q 345 94 278 94 q 419 131 393 94 q 457 230 446 167 q 469 374 469 293 z "},"ÿ":{"ha":534,"x_min":7,"x_max":528,"o":"m 7 749 l 136 749 l 237 330 q 248 276 243 302 q 258 223 254 249 q 267 172 263 197 l 272 172 q 284 247 277 208 q 303 330 292 286 l 401 749 l 528 749 l 306 -108 q 256 -237 285 -187 q 190 -310 228 -287 q 99 -334 151 -334 q 64 -330 81 -334 q 27 -322 46 -327 l 27 -212 q 54 -220 40 -217 q 81 -222 68 -222 q 125 -210 107 -222 q 157 -167 143 -197 q 186 -83 172 -137 l 208 6 l 7 749 m 87 932 q 105 987 87 969 q 151 1005 123 1005 q 196 986 178 1005 q 214 932 214 968 q 196 876 214 895 q 151 857 178 857 q 105 876 123 857 q 87 932 87 895 m 317 932 q 335 987 317 969 q 381 1005 353 1005 q 427 986 409 1005 q 446 932 446 968 q 427 876 446 895 q 381 857 409 857 q 335 876 353 857 q 317 932 317 895 z "},"Ā":{"ha":644,"x_min":0,"x_max":644,"o":"m 507 0 l 438 299 l 206 299 l 138 0 l 0 0 l 239 991 l 399 991 l 644 0 l 507 0 m 416 415 l 345 733 q 336 786 340 760 q 327 836 331 812 q 320 882 323 860 q 314 836 318 861 q 306 786 311 812 q 295 734 301 761 l 227 415 l 416 415 m 493 1191 l 493 1098 l 149 1098 l 149 1191 l 493 1191 z "},"ā":{"ha":589,"x_min":46,"x_max":503,"o":"m 303 762 q 456 696 408 762 q 503 502 503 629 l 503 0 l 411 0 l 392 105 l 389 105 q 345 40 370 66 q 288 0 320 14 q 215 -14 256 -14 q 119 18 156 -14 q 64 100 81 50 q 46 210 46 151 q 111 383 46 322 q 293 450 175 444 l 380 454 l 380 500 q 357 622 380 583 q 282 661 334 661 q 215 649 251 661 q 138 613 180 638 l 101 706 q 197 748 145 734 q 303 762 248 762 m 381 367 l 317 363 q 208 321 243 359 q 172 214 172 284 q 195 117 172 149 q 259 86 218 86 q 349 141 316 86 q 381 293 381 197 l 381 367 m 475 947 l 475 854 l 131 854 l 131 947 l 475 947 z "},"Ă":{"ha":644,"x_min":0,"x_max":644,"o":"m 507 0 l 438 299 l 206 299 l 138 0 l 0 0 l 239 991 l 399 991 l 644 0 l 507 0 m 416 415 l 345 733 q 336 786 340 760 q 327 836 331 812 q 320 882 323 860 q 314 836 318 861 q 306 786 311 812 q 295 734 301 761 l 227 415 l 416 415 m 495 1280 q 472 1177 494 1220 q 409 1111 449 1134 q 317 1087 370 1087 q 194 1135 240 1087 q 145 1280 148 1183 l 224 1280 q 239 1224 227 1246 q 271 1191 250 1202 q 320 1179 292 1179 q 369 1190 348 1179 q 401 1223 389 1201 q 416 1280 414 1246 l 495 1280 z "},"ă":{"ha":589,"x_min":46,"x_max":503,"o":"m 303 762 q 456 696 408 762 q 503 502 503 629 l 503 0 l 411 0 l 392 105 l 389 105 q 345 40 370 66 q 288 0 320 14 q 215 -14 256 -14 q 119 18 156 -14 q 64 100 81 50 q 46 210 46 151 q 111 383 46 322 q 293 450 175 444 l 380 454 l 380 500 q 357 622 380 583 q 282 661 334 661 q 215 649 251 661 q 138 613 180 638 l 101 706 q 197 748 145 734 q 303 762 248 762 m 381 367 l 317 363 q 208 321 243 359 q 172 214 172 284 q 195 117 172 149 q 259 86 218 86 q 349 141 316 86 q 381 293 381 197 l 381 367 m 477 1036 q 453 933 476 977 q 391 867 431 890 q 299 844 351 844 q 176 892 222 844 q 127 1036 130 940 l 205 1036 q 220 981 209 1003 q 253 947 232 958 q 302 936 273 936 q 350 947 330 936 q 383 980 371 958 q 398 1036 395 1002 l 477 1036 z "},"Ą":{"ha":644,"x_min":0,"x_max":644,"o":"m 507 0 l 438 299 l 206 299 l 138 0 l 0 0 l 239 991 l 399 991 l 644 0 l 507 0 m 416 415 l 345 733 q 336 786 340 760 q 327 836 331 812 q 320 882 323 860 q 314 836 318 861 q 306 786 311 812 q 295 734 301 761 l 227 415 l 416 415 m 513 -159 q 529 -209 513 -192 q 574 -227 545 -227 q 602 -223 591 -227 q 621 -218 612 -220 l 621 -301 q 590 -310 608 -307 q 550 -313 572 -313 q 447 -279 481 -313 q 413 -182 413 -245 q 426 -113 413 -148 q 465 -45 439 -78 q 528 18 490 -12 l 597 0 q 532 -84 550 -47 q 513 -159 513 -121 z "},"ą":{"ha":589,"x_min":46,"x_max":516,"o":"m 303 762 q 456 696 408 762 q 503 502 503 629 l 503 0 l 411 0 l 392 105 l 389 105 q 345 40 370 66 q 288 0 320 14 q 215 -14 256 -14 q 119 18 156 -14 q 64 100 81 50 q 46 210 46 151 q 111 383 46 322 q 293 450 175 444 l 380 454 l 380 500 q 357 622 380 583 q 282 661 334 661 q 215 649 251 661 q 138 613 180 638 l 101 706 q 197 748 145 734 q 303 762 248 762 m 381 367 l 317 363 q 208 321 243 359 q 172 214 172 284 q 195 117 172 149 q 259 86 218 86 q 349 141 316 86 q 381 293 381 197 l 381 367 m 410 -159 q 426 -209 410 -192 q 471 -227 441 -227 q 498 -223 487 -227 q 517 -218 509 -220 l 517 -301 q 486 -310 504 -307 q 446 -313 469 -313 q 343 -279 378 -313 q 309 -182 309 -245 q 322 -113 309 -148 q 361 -45 335 -78 q 424 18 387 -12 l 493 0 q 428 -84 446 -47 q 410 -159 410 -121 z "},"Ć":{"ha":629,"x_min":67,"x_max":595,"o":"m 410 892 q 315 861 355 892 q 250 774 275 829 q 213 647 224 719 q 201 495 201 576 q 227 283 201 372 q 302 148 254 195 q 418 101 351 101 q 499 113 461 101 q 571 142 538 125 l 571 26 q 494 -4 536 6 q 402 -14 452 -14 q 223 47 298 -14 q 107 222 148 108 q 67 496 67 336 q 88 695 67 603 q 151 858 109 788 q 257 968 193 928 q 404 1007 320 1007 q 504 994 456 1007 q 595 955 551 981 l 553 847 q 485 880 520 868 q 410 892 450 892 m 582 1307 l 582 1295 q 545 1245 568 1273 q 496 1188 523 1217 q 443 1132 470 1159 q 395 1085 416 1105 l 313 1085 l 313 1101 q 361 1174 339 1139 q 402 1242 384 1209 q 436 1307 421 1276 l 582 1307 z "},"ć":{"ha":496,"x_min":58,"x_max":488,"o":"m 313 -14 q 171 29 228 -14 q 86 157 115 72 q 58 370 58 242 q 86 578 58 490 q 172 714 115 667 q 317 762 230 762 q 399 752 363 762 q 467 724 435 743 l 430 623 q 377 646 403 638 q 326 653 351 653 q 248 621 279 653 q 200 527 216 589 q 184 370 184 464 q 200 218 184 279 q 248 125 216 157 q 327 94 279 94 q 392 104 359 94 q 457 133 425 114 l 457 28 q 387 -3 427 7 q 313 -14 348 -14 m 489 1063 l 489 1051 q 452 1002 475 1029 q 404 945 430 974 q 350 888 377 916 q 302 842 323 861 l 220 842 l 220 858 q 269 930 246 895 q 310 999 291 966 q 343 1063 328 1032 l 489 1063 z "},"Ĉ":{"ha":629,"x_min":67,"x_max":595,"o":"m 410 892 q 315 861 355 892 q 250 774 275 829 q 213 647 224 719 q 201 495 201 576 q 227 283 201 372 q 302 148 254 195 q 418 101 351 101 q 499 113 461 101 q 571 142 538 125 l 571 26 q 494 -4 536 6 q 402 -14 452 -14 q 223 47 298 -14 q 107 222 148 108 q 67 496 67 336 q 88 695 67 603 q 151 858 109 788 q 257 968 193 928 q 404 1007 320 1007 q 504 994 456 1007 q 595 955 551 981 l 553 847 q 485 880 520 868 q 410 892 450 892 m 445 1307 q 481 1240 460 1276 q 527 1167 503 1203 q 574 1100 551 1131 l 574 1085 l 503 1085 q 447 1145 475 1112 q 387 1215 418 1178 q 326 1143 356 1179 q 271 1085 296 1108 l 200 1085 l 200 1100 q 248 1168 224 1131 q 293 1242 272 1205 q 328 1307 315 1278 l 445 1307 z "},"ĉ":{"ha":496,"x_min":58,"x_max":483,"o":"m 313 -14 q 171 29 228 -14 q 86 157 115 72 q 58 370 58 242 q 86 578 58 490 q 172 714 115 667 q 317 762 230 762 q 399 752 363 762 q 467 724 435 743 l 430 623 q 377 646 403 638 q 326 653 351 653 q 248 621 279 653 q 200 527 216 589 q 184 370 184 464 q 200 218 184 279 q 248 125 216 157 q 327 94 279 94 q 392 104 359 94 q 457 133 425 114 l 457 28 q 387 -3 427 7 q 313 -14 348 -14 m 354 1063 q 391 996 369 1033 q 436 923 412 960 q 483 857 460 887 l 483 842 l 412 842 q 356 901 385 868 q 296 972 327 935 q 235 900 265 935 q 180 842 205 865 l 109 842 l 109 857 q 157 925 133 888 q 202 998 181 962 q 237 1063 224 1035 l 354 1063 z "},"Ċ":{"ha":629,"x_min":67,"x_max":595,"o":"m 410 892 q 315 861 355 892 q 250 774 275 829 q 213 647 224 719 q 201 495 201 576 q 227 283 201 372 q 302 148 254 195 q 418 101 351 101 q 499 113 461 101 q 571 142 538 125 l 571 26 q 494 -4 536 6 q 402 -14 452 -14 q 223 47 298 -14 q 107 222 148 108 q 67 496 67 336 q 88 695 67 603 q 151 858 109 788 q 257 968 193 928 q 404 1007 320 1007 q 504 994 456 1007 q 595 955 551 981 l 553 847 q 485 880 520 868 q 410 892 450 892 m 397 1274 q 450 1252 433 1274 q 467 1191 467 1230 q 449 1130 467 1152 q 397 1108 431 1108 q 344 1130 363 1108 q 325 1191 325 1152 q 343 1253 325 1232 q 397 1274 361 1274 z "},"ċ":{"ha":496,"x_min":58,"x_max":467,"o":"m 313 -14 q 171 29 228 -14 q 86 157 115 72 q 58 370 58 242 q 86 578 58 490 q 172 714 115 667 q 317 762 230 762 q 399 752 363 762 q 467 724 435 743 l 430 623 q 377 646 403 638 q 326 653 351 653 q 248 621 279 653 q 200 527 216 589 q 184 370 184 464 q 200 218 184 279 q 248 125 216 157 q 327 94 279 94 q 392 104 359 94 q 457 133 425 114 l 457 28 q 387 -3 427 7 q 313 -14 348 -14 m 304 1033 q 358 1011 341 1033 q 374 949 374 989 q 357 888 374 910 q 304 867 339 867 q 252 888 271 867 q 233 949 233 910 q 251 1011 233 990 q 304 1033 269 1033 z "},"Č":{"ha":629,"x_min":67,"x_max":595,"o":"m 410 892 q 315 861 355 892 q 250 774 275 829 q 213 647 224 719 q 201 495 201 576 q 227 283 201 372 q 302 148 254 195 q 418 101 351 101 q 499 113 461 101 q 571 142 538 125 l 571 26 q 494 -4 536 6 q 402 -14 452 -14 q 223 47 298 -14 q 107 222 148 108 q 67 496 67 336 q 88 695 67 603 q 151 858 109 788 q 257 968 193 928 q 404 1007 320 1007 q 504 994 456 1007 q 595 955 551 981 l 553 847 q 485 880 520 868 q 410 892 450 892 m 329 1085 q 293 1152 315 1116 q 248 1225 272 1189 q 201 1293 224 1262 l 201 1307 l 272 1307 q 327 1248 297 1283 q 387 1177 357 1213 q 446 1245 421 1218 q 503 1307 470 1273 l 573 1307 l 573 1293 q 529 1228 553 1264 q 482 1154 505 1192 q 444 1085 459 1116 l 329 1085 z "},"č":{"ha":496,"x_min":58,"x_max":483,"o":"m 313 -14 q 171 29 228 -14 q 86 157 115 72 q 58 370 58 242 q 86 578 58 490 q 172 714 115 667 q 317 762 230 762 q 399 752 363 762 q 467 724 435 743 l 430 623 q 377 646 403 638 q 326 653 351 653 q 248 621 279 653 q 200 527 216 589 q 184 370 184 464 q 200 218 184 279 q 248 125 216 157 q 327 94 279 94 q 392 104 359 94 q 457 133 425 114 l 457 28 q 387 -3 427 7 q 313 -14 348 -14 m 238 842 q 202 909 224 872 q 157 982 181 945 q 110 1049 133 1019 l 110 1063 l 181 1063 q 236 1005 206 1040 q 296 934 267 970 q 355 1002 330 975 q 412 1063 379 1029 l 482 1063 l 482 1049 q 438 984 463 1021 q 391 910 414 948 q 353 842 368 873 l 238 842 z "},"Ď":{"ha":727,"x_min":99,"x_max":660,"o":"m 660 509 q 620 229 660 342 q 500 58 579 116 q 303 0 420 0 l 99 0 l 99 991 l 313 991 q 504 937 427 991 q 621 774 581 882 q 660 509 660 667 m 526 503 q 502 711 526 628 q 430 837 478 795 q 309 878 382 878 l 228 878 l 228 115 l 300 115 q 472 212 418 115 q 526 503 526 309 m 295 1085 q 259 1152 281 1116 q 214 1225 238 1189 q 167 1293 190 1262 l 167 1307 l 238 1307 q 293 1248 263 1283 q 353 1177 323 1213 q 412 1245 387 1218 q 469 1307 436 1273 l 539 1307 l 539 1293 q 495 1228 519 1264 q 448 1154 471 1192 q 410 1085 425 1116 l 295 1085 z "},"ď":{"ha":650,"x_min":57,"x_max":775,"o":"m 276 -14 q 113 86 169 -14 q 57 373 57 186 q 113 661 57 559 q 272 762 169 762 q 339 749 308 762 q 396 710 370 735 q 439 648 421 685 l 445 648 q 442 709 443 683 q 441 758 441 736 l 441 1055 l 564 1055 l 564 0 l 465 0 l 448 96 l 441 96 q 397 37 421 61 q 343 -1 373 12 q 276 -14 314 -14 m 307 91 q 407 154 373 91 q 441 341 441 216 l 441 390 q 408 589 441 524 q 306 653 376 653 q 213 582 243 653 q 182 373 182 510 q 213 162 182 234 q 307 91 243 91 m 775 1055 l 775 1042 q 754 971 768 1011 q 723 895 740 932 q 691 833 707 857 l 618 833 l 618 849 q 626 888 621 861 q 635 947 631 915 q 644 1009 640 979 q 648 1055 648 1038 l 775 1055 z "},"Đ":{"ha":728,"x_min":26,"x_max":660,"o":"m 313 991 q 503 937 426 991 q 620 774 581 882 q 660 509 660 667 q 620 229 660 342 q 500 58 579 116 q 303 0 420 0 l 98 0 l 98 460 l 26 460 l 26 561 l 98 561 l 98 991 l 313 991 m 310 878 l 229 878 l 229 561 l 361 561 l 361 460 l 229 460 l 229 115 l 301 115 q 473 212 418 115 q 527 503 527 309 q 503 711 527 628 q 431 837 479 795 q 310 878 382 878 z "},"đ":{"ha":652,"x_min":57,"x_max":646,"o":"m 276 -14 q 113 85 169 -14 q 57 368 57 184 q 113 650 57 551 q 272 749 169 749 q 339 736 308 749 q 396 698 370 723 q 439 636 421 673 l 445 636 q 442 697 443 669 q 441 745 441 724 l 441 841 l 290 841 l 290 934 l 441 934 l 441 1055 l 564 1055 l 564 934 l 646 934 l 646 841 l 564 841 l 564 0 l 465 0 l 448 97 l 439 97 q 396 37 420 61 q 343 -1 372 12 q 276 -14 314 -14 m 307 91 q 407 153 373 91 q 441 345 441 216 l 441 383 q 408 577 441 515 q 306 640 376 640 q 213 570 243 640 q 182 367 182 501 q 213 161 182 231 q 307 91 243 91 z "},"Ē":{"ha":564,"x_min":99,"x_max":503,"o":"m 503 0 l 99 0 l 99 991 l 503 991 l 503 879 l 228 879 l 228 574 l 486 574 l 486 460 l 228 460 l 228 115 l 503 115 l 503 0 m 474 1191 l 474 1098 l 130 1098 l 130 1191 l 474 1191 z "},"ē":{"ha":589,"x_min":58,"x_max":536,"o":"m 303 761 q 433 717 381 761 q 511 598 485 673 q 536 429 536 524 l 536 347 l 180 347 q 221 154 181 218 q 342 90 261 90 q 424 102 385 90 q 507 142 464 115 l 507 35 q 422 -2 467 10 q 328 -14 378 -14 q 172 36 232 -14 q 85 172 113 85 q 58 370 58 258 q 85 583 58 496 q 168 715 113 670 q 303 761 222 761 m 304 661 q 217 608 249 661 q 181 443 186 555 l 421 443 q 409 553 421 503 q 370 632 396 603 q 304 661 344 661 m 471 947 l 471 854 l 127 854 l 127 947 l 471 947 z "},"Ĕ":{"ha":564,"x_min":99,"x_max":503,"o":"m 503 0 l 99 0 l 99 991 l 503 991 l 503 879 l 228 879 l 228 574 l 486 574 l 486 460 l 228 460 l 228 115 l 503 115 l 503 0 m 476 1280 q 453 1177 475 1220 q 390 1111 430 1134 q 298 1087 351 1087 q 175 1135 221 1087 q 126 1280 129 1183 l 205 1280 q 220 1224 208 1246 q 252 1191 231 1202 q 301 1179 273 1179 q 350 1190 329 1179 q 382 1223 370 1201 q 397 1280 395 1246 l 476 1280 z "},"ĕ":{"ha":589,"x_min":58,"x_max":536,"o":"m 303 761 q 433 717 381 761 q 511 598 485 673 q 536 429 536 524 l 536 347 l 180 347 q 221 154 181 218 q 342 90 261 90 q 424 102 385 90 q 507 142 464 115 l 507 35 q 422 -2 467 10 q 328 -14 378 -14 q 172 36 232 -14 q 85 172 113 85 q 58 370 58 258 q 85 583 58 496 q 168 715 113 670 q 303 761 222 761 m 304 661 q 217 608 249 661 q 181 443 186 555 l 421 443 q 409 553 421 503 q 370 632 396 603 q 304 661 344 661 m 474 1036 q 451 933 473 977 q 388 867 428 890 q 296 844 349 844 q 173 892 219 844 q 124 1036 127 940 l 203 1036 q 218 981 206 1003 q 250 947 229 958 q 299 936 271 936 q 348 947 327 936 q 380 980 368 958 q 395 1036 393 1002 l 474 1036 z "},"Ė":{"ha":564,"x_min":99,"x_max":503,"o":"m 503 0 l 99 0 l 99 991 l 503 991 l 503 879 l 228 879 l 228 574 l 486 574 l 486 460 l 228 460 l 228 115 l 503 115 l 503 0 m 311 1275 q 365 1253 348 1275 q 381 1192 381 1231 q 363 1131 381 1152 q 311 1109 346 1109 q 258 1131 277 1109 q 239 1192 239 1152 q 257 1254 239 1232 q 311 1275 275 1275 z "},"ė":{"ha":589,"x_min":58,"x_max":536,"o":"m 303 761 q 433 717 381 761 q 511 598 485 673 q 536 429 536 524 l 536 347 l 180 347 q 221 154 181 218 q 342 90 261 90 q 424 102 385 90 q 507 142 464 115 l 507 35 q 422 -2 467 10 q 328 -14 378 -14 q 172 36 232 -14 q 85 172 113 85 q 58 370 58 258 q 85 583 58 496 q 168 715 113 670 q 303 761 222 761 m 304 661 q 217 608 249 661 q 181 443 186 555 l 421 443 q 409 553 421 503 q 370 632 396 603 q 304 661 344 661 m 310 1033 q 363 1011 347 1033 q 380 949 380 989 q 362 888 380 910 q 310 867 345 867 q 257 888 276 867 q 238 949 238 910 q 256 1011 238 990 q 310 1033 274 1033 z "},"Ę":{"ha":564,"x_min":99,"x_max":503,"o":"m 503 0 l 99 0 l 99 991 l 503 991 l 503 879 l 228 879 l 228 574 l 486 574 l 486 460 l 228 460 l 228 115 l 503 115 l 503 0 m 386 -159 q 402 -209 386 -192 q 447 -227 418 -227 q 474 -223 463 -227 q 493 -218 485 -220 l 493 -301 q 463 -310 480 -307 q 422 -313 445 -313 q 320 -279 354 -313 q 286 -182 286 -245 q 298 -113 286 -148 q 337 -45 311 -78 q 400 18 363 -12 l 469 0 q 404 -84 422 -47 q 386 -159 386 -121 z "},"ę":{"ha":589,"x_min":58,"x_max":536,"o":"m 393 -161 q 409 -208 393 -192 q 454 -224 425 -224 q 481 -221 467 -224 q 504 -215 496 -218 l 504 -300 q 468 -310 488 -307 q 428 -313 448 -313 q 327 -278 359 -313 q 294 -180 294 -243 q 307 -113 294 -146 q 343 -51 319 -80 q 399 3 367 -22 l 507 35 q 445 -37 470 -1 q 406 -103 419 -72 q 393 -161 393 -134 m 303 761 q 433 717 381 761 q 511 598 485 673 q 536 429 536 524 l 536 347 l 180 347 q 221 154 181 218 q 342 90 261 90 q 424 102 385 90 q 507 142 464 115 l 507 35 q 422 -2 467 10 q 328 -14 378 -14 q 172 36 232 -14 q 85 172 113 85 q 58 370 58 258 q 85 583 58 496 q 168 715 113 670 q 303 761 222 761 m 304 661 q 217 608 249 661 q 181 443 186 555 l 421 443 q 409 553 421 503 q 370 632 396 603 q 304 661 344 661 z "},"Ě":{"ha":564,"x_min":99,"x_max":503,"o":"m 503 0 l 99 0 l 99 991 l 503 991 l 503 879 l 228 879 l 228 574 l 486 574 l 486 460 l 228 460 l 228 115 l 503 115 l 503 0 m 243 1085 q 207 1152 229 1116 q 162 1225 186 1189 q 115 1293 138 1262 l 115 1307 l 186 1307 q 241 1248 211 1283 q 301 1177 271 1213 q 359 1245 335 1218 q 417 1307 384 1273 l 487 1307 l 487 1293 q 443 1228 467 1264 q 396 1154 418 1192 q 358 1085 373 1116 l 243 1085 z "},"ě":{"ha":589,"x_min":58,"x_max":536,"o":"m 303 761 q 433 717 381 761 q 511 598 485 673 q 536 429 536 524 l 536 347 l 180 347 q 221 154 181 218 q 342 90 261 90 q 424 102 385 90 q 507 142 464 115 l 507 35 q 422 -2 467 10 q 328 -14 378 -14 q 172 36 232 -14 q 85 172 113 85 q 58 370 58 258 q 85 583 58 496 q 168 715 113 670 q 303 761 222 761 m 304 661 q 217 608 249 661 q 181 443 186 555 l 421 443 q 409 553 421 503 q 370 632 396 603 q 304 661 344 661 m 241 842 q 205 909 227 872 q 160 982 184 945 q 113 1049 136 1019 l 113 1063 l 184 1063 q 239 1005 209 1040 q 299 934 269 970 q 357 1002 333 975 q 415 1063 382 1029 l 485 1063 l 485 1049 q 441 984 465 1021 q 394 910 416 948 q 356 842 371 873 l 241 842 z "},"Ĝ":{"ha":764,"x_min":67,"x_max":690,"o":"m 424 529 l 690 529 l 690 37 q 561 -1 627 12 q 425 -14 494 -14 q 224 52 303 -14 q 106 233 144 118 q 67 498 67 349 q 110 763 67 648 q 238 941 153 877 q 450 1006 323 1006 q 571 989 513 1006 q 678 943 629 973 l 635 834 q 545 878 590 863 q 452 892 500 892 q 314 846 370 892 q 230 711 258 800 q 201 494 201 623 q 225 292 201 381 q 301 152 250 203 q 435 101 353 101 q 504 106 471 101 q 565 121 536 112 l 565 416 l 424 416 l 424 529 m 488 1307 q 525 1240 503 1276 q 571 1167 547 1203 q 617 1100 595 1131 l 617 1085 l 547 1085 q 490 1145 519 1112 q 430 1215 461 1178 q 369 1143 399 1179 q 315 1085 339 1108 l 243 1085 l 243 1100 q 291 1168 267 1131 q 337 1242 315 1205 q 372 1307 358 1278 l 488 1307 z "},"ĝ":{"ha":561,"x_min":9,"x_max":553,"o":"m 247 -334 q 73 -279 136 -334 q 9 -125 9 -224 q 46 -3 9 -52 q 142 62 83 45 q 94 103 113 75 q 75 168 75 131 q 94 238 75 208 q 145 297 112 269 q 76 381 102 323 q 51 511 51 439 q 77 645 51 589 q 152 731 103 701 q 271 762 201 762 q 309 760 292 762 q 337 754 325 758 q 360 746 350 750 l 553 746 l 553 668 l 456 654 q 481 589 473 625 q 490 514 490 553 q 432 332 490 398 q 271 266 375 266 q 220 272 239 266 q 191 237 204 257 q 178 188 178 217 q 187 155 178 169 q 214 134 196 141 q 257 126 231 126 l 369 126 q 500 77 454 126 q 547 -71 547 28 q 470 -265 547 -197 q 247 -334 393 -334 m 256 -238 q 353 -221 314 -238 q 411 -170 391 -204 q 430 -86 430 -136 q 417 -24 430 -45 q 380 6 404 -2 q 319 14 355 14 l 227 14 q 176 1 199 14 q 139 -40 153 -12 q 125 -115 125 -68 q 161 -207 125 -176 q 256 -238 196 -238 m 271 355 q 341 395 316 355 q 366 512 366 435 q 340 633 366 593 q 270 673 315 673 q 200 631 225 673 q 176 511 176 589 q 199 396 176 436 q 271 355 223 355 m 331 1063 q 368 996 346 1033 q 413 923 389 960 q 460 857 437 887 l 460 842 l 389 842 q 333 901 361 868 q 273 972 304 935 q 212 900 242 935 q 157 842 182 865 l 86 842 l 86 857 q 134 925 110 888 q 179 998 158 962 q 214 1063 201 1035 l 331 1063 z "},"Ğ":{"ha":764,"x_min":67,"x_max":690,"o":"m 424 529 l 690 529 l 690 37 q 561 -1 627 12 q 425 -14 494 -14 q 224 52 303 -14 q 106 233 144 118 q 67 498 67 349 q 110 763 67 648 q 238 941 153 877 q 450 1006 323 1006 q 571 989 513 1006 q 678 943 629 973 l 635 834 q 545 878 590 863 q 452 892 500 892 q 314 846 370 892 q 230 711 258 800 q 201 494 201 623 q 225 292 201 381 q 301 152 250 203 q 435 101 353 101 q 504 106 471 101 q 565 121 536 112 l 565 416 l 424 416 l 424 529 m 606 1280 q 583 1177 606 1220 q 520 1111 560 1134 q 429 1087 481 1087 q 305 1135 351 1087 q 256 1280 259 1183 l 335 1280 q 350 1224 338 1246 q 382 1191 361 1202 q 431 1179 403 1179 q 480 1190 459 1179 q 513 1223 500 1201 q 528 1280 525 1246 l 606 1280 z "},"ğ":{"ha":561,"x_min":9,"x_max":553,"o":"m 247 -334 q 73 -279 136 -334 q 9 -125 9 -224 q 46 -3 9 -52 q 142 62 83 45 q 94 103 113 75 q 75 168 75 131 q 94 238 75 208 q 145 297 112 269 q 76 381 102 323 q 51 511 51 439 q 77 645 51 589 q 152 731 103 701 q 271 762 201 762 q 309 760 292 762 q 337 754 325 758 q 360 746 350 750 l 553 746 l 553 668 l 456 654 q 481 589 473 625 q 490 514 490 553 q 432 332 490 398 q 271 266 375 266 q 220 272 239 266 q 191 237 204 257 q 178 188 178 217 q 187 155 178 169 q 214 134 196 141 q 257 126 231 126 l 369 126 q 500 77 454 126 q 547 -71 547 28 q 470 -265 547 -197 q 247 -334 393 -334 m 256 -238 q 353 -221 314 -238 q 411 -170 391 -204 q 430 -86 430 -136 q 417 -24 430 -45 q 380 6 404 -2 q 319 14 355 14 l 227 14 q 176 1 199 14 q 139 -40 153 -12 q 125 -115 125 -68 q 161 -207 125 -176 q 256 -238 196 -238 m 271 355 q 341 395 316 355 q 366 512 366 435 q 340 633 366 593 q 270 673 315 673 q 200 631 225 673 q 176 511 176 589 q 199 396 176 436 q 271 355 223 355 m 448 1036 q 425 933 448 977 q 362 867 402 890 q 271 844 323 844 q 147 892 193 844 q 98 1036 101 940 l 177 1036 q 192 981 180 1003 q 224 947 203 958 q 273 936 245 936 q 322 947 301 936 q 355 980 342 958 q 370 1036 367 1002 l 448 1036 z "},"Ġ":{"ha":764,"x_min":67,"x_max":690,"o":"m 424 529 l 690 529 l 690 37 q 561 -1 627 12 q 425 -14 494 -14 q 224 52 303 -14 q 106 233 144 118 q 67 498 67 349 q 110 763 67 648 q 238 941 153 877 q 450 1006 323 1006 q 571 989 513 1006 q 678 943 629 973 l 635 834 q 545 878 590 863 q 452 892 500 892 q 314 846 370 892 q 230 711 258 800 q 201 494 201 623 q 225 292 201 381 q 301 152 250 203 q 435 101 353 101 q 504 106 471 101 q 565 121 536 112 l 565 416 l 424 416 l 424 529 m 442 1276 q 495 1254 479 1276 q 512 1193 512 1232 q 494 1132 512 1154 q 442 1110 477 1110 q 389 1132 408 1110 q 370 1193 370 1154 q 388 1255 370 1234 q 442 1276 406 1276 z "},"ġ":{"ha":561,"x_min":9,"x_max":553,"o":"m 247 -334 q 73 -279 136 -334 q 9 -125 9 -224 q 46 -3 9 -52 q 142 62 83 45 q 94 103 113 75 q 75 168 75 131 q 94 238 75 208 q 145 297 112 269 q 76 381 102 323 q 51 511 51 439 q 77 645 51 589 q 152 731 103 701 q 271 762 201 762 q 309 760 292 762 q 337 754 325 758 q 360 746 350 750 l 553 746 l 553 668 l 456 654 q 481 589 473 625 q 490 514 490 553 q 432 332 490 398 q 271 266 375 266 q 220 272 239 266 q 191 237 204 257 q 178 188 178 217 q 187 155 178 169 q 214 134 196 141 q 257 126 231 126 l 369 126 q 500 77 454 126 q 547 -71 547 28 q 470 -265 547 -197 q 247 -334 393 -334 m 256 -238 q 353 -221 314 -238 q 411 -170 391 -204 q 430 -86 430 -136 q 417 -24 430 -45 q 380 6 404 -2 q 319 14 355 14 l 227 14 q 176 1 199 14 q 139 -40 153 -12 q 125 -115 125 -68 q 161 -207 125 -176 q 256 -238 196 -238 m 271 355 q 341 395 316 355 q 366 512 366 435 q 340 633 366 593 q 270 673 315 673 q 200 631 225 673 q 176 511 176 589 q 199 396 176 436 q 271 355 223 355 m 278 1033 q 331 1011 315 1033 q 348 949 348 989 q 330 888 348 910 q 278 867 313 867 q 225 888 244 867 q 206 949 206 910 q 224 1011 206 990 q 278 1033 242 1033 z "},"Ģ":{"ha":764,"x_min":67,"x_max":690,"o":"m 424 529 l 690 529 l 690 37 q 561 -1 627 12 q 425 -14 494 -14 q 224 52 303 -14 q 106 233 144 118 q 67 498 67 349 q 110 763 67 648 q 238 941 153 877 q 450 1006 323 1006 q 571 989 513 1006 q 678 943 629 973 l 635 834 q 545 878 590 863 q 452 892 500 892 q 314 846 370 892 q 230 711 258 800 q 201 494 201 623 q 225 292 201 381 q 301 152 250 203 q 435 101 353 101 q 504 106 471 101 q 565 121 536 112 l 565 416 l 424 416 l 424 529 m 504 -85 l 504 -98 q 479 -170 494 -133 q 447 -243 465 -208 q 410 -307 429 -278 l 337 -307 l 337 -291 q 353 -228 345 -266 q 370 -152 362 -191 q 379 -85 377 -113 l 504 -85 z "},"ģ":{"ha":561,"x_min":9,"x_max":553,"o":"m 380 1064 l 380 1048 q 359 982 370 1020 q 341 906 349 943 q 331 842 333 868 l 207 842 l 207 857 q 229 926 214 889 q 264 1000 244 964 q 306 1064 284 1036 l 380 1064 m 247 -334 q 73 -279 136 -334 q 9 -125 9 -224 q 46 -3 9 -52 q 142 62 83 45 q 94 103 113 75 q 75 168 75 131 q 94 238 75 208 q 145 297 112 269 q 76 381 102 323 q 51 511 51 439 q 77 645 51 589 q 152 731 103 701 q 271 762 201 762 q 309 760 292 762 q 337 754 325 758 q 360 746 350 750 l 553 746 l 553 668 l 456 654 q 481 589 473 625 q 490 514 490 553 q 432 332 490 398 q 271 266 375 266 q 220 272 239 266 q 191 237 204 257 q 178 188 178 217 q 187 155 178 169 q 214 134 196 141 q 257 126 231 126 l 369 126 q 500 77 454 126 q 547 -71 547 28 q 470 -265 547 -197 q 247 -334 393 -334 m 256 -238 q 353 -221 314 -238 q 411 -170 391 -204 q 430 -86 430 -136 q 417 -24 430 -45 q 380 6 404 -2 q 319 14 355 14 l 227 14 q 176 1 199 14 q 139 -40 153 -12 q 125 -115 125 -68 q 161 -207 125 -176 q 256 -238 196 -238 m 271 355 q 341 395 316 355 q 366 512 366 435 q 340 633 366 593 q 270 673 315 673 q 200 631 225 673 q 176 511 176 589 q 199 396 176 436 q 271 355 223 355 z "},"Ĥ":{"ha":751,"x_min":99,"x_max":653,"o":"m 653 0 l 524 0 l 524 460 l 228 460 l 228 0 l 99 0 l 99 991 l 228 991 l 228 576 l 524 576 l 524 991 l 653 991 l 653 0 m 435 1307 q 472 1240 450 1276 q 518 1167 494 1203 q 564 1100 542 1131 l 564 1085 l 494 1085 q 437 1145 466 1112 q 377 1215 408 1178 q 316 1143 347 1179 q 262 1085 286 1108 l 191 1085 l 191 1100 q 238 1168 214 1131 q 284 1242 262 1205 q 319 1307 305 1278 l 435 1307 z "},"ĥ":{"ha":644,"x_min":-37,"x_max":558,"o":"m 211 1055 l 211 767 q 209 704 211 734 q 202 646 207 673 l 210 646 q 249 708 224 682 q 304 748 273 734 q 373 762 336 762 q 477 733 436 762 q 538 646 518 703 q 558 505 558 589 l 558 0 l 435 0 l 435 477 q 413 610 435 570 q 343 651 391 651 q 268 623 298 651 q 225 535 239 595 q 211 384 211 476 l 211 0 l 87 0 l 87 1055 l 211 1055 m 208 1371 q 245 1303 223 1340 q 291 1231 267 1267 q 337 1164 315 1194 l 337 1149 l 267 1149 q 210 1208 239 1175 q 150 1279 181 1242 q 89 1207 119 1242 q 35 1149 59 1172 l -37 1149 l -37 1164 q 11 1232 -13 1195 q 57 1305 35 1269 q 92 1371 78 1342 l 208 1371 z "},"Ħ":{"ha":751,"x_min":-3,"x_max":754,"o":"m 98 0 l 98 736 l -3 736 l -3 833 l 98 833 l 98 991 l 226 991 l 226 833 l 524 833 l 524 991 l 652 991 l 652 833 l 754 833 l 754 736 l 652 736 l 652 0 l 524 0 l 524 459 l 226 459 l 226 0 l 98 0 m 228 576 l 525 576 l 525 736 l 228 736 l 228 576 z "},"ħ":{"ha":644,"x_min":7,"x_max":559,"o":"m 212 1055 l 212 932 l 368 932 l 368 838 l 212 838 l 212 739 q 210 687 212 713 q 203 633 208 661 l 211 633 q 249 695 225 669 q 304 735 273 722 q 373 749 336 749 q 478 720 437 749 q 539 634 519 691 q 559 493 559 577 l 559 0 l 435 0 l 435 464 q 413 597 435 556 q 343 639 391 639 q 269 612 298 639 q 225 527 239 585 q 211 372 211 468 l 211 0 l 88 0 l 88 838 l 7 838 l 7 932 l 88 932 l 88 1055 l 212 1055 z "},"Ĩ":{"ha":325,"x_min":-45,"x_max":373,"o":"m 99 0 l 99 991 l 228 991 l 228 0 l 99 0 m -45 1085 q -35 1149 -42 1118 q -15 1205 -28 1181 q 19 1245 -2 1230 q 71 1260 41 1260 q 120 1248 97 1260 q 166 1221 144 1236 q 209 1194 189 1206 q 250 1182 230 1182 q 282 1203 271 1182 q 298 1261 293 1225 l 373 1261 q 337 1132 369 1177 q 259 1086 306 1086 q 208 1098 233 1086 q 160 1126 183 1110 q 118 1154 138 1142 q 81 1166 98 1166 q 48 1145 62 1166 q 28 1085 35 1124 l -45 1085 z "},"ĩ":{"ha":300,"x_min":-60,"x_max":357,"o":"m 212 0 l 88 0 l 88 749 l 212 749 l 212 0 m -60 842 q -51 906 -58 874 q -31 962 -43 937 q 4 1002 -18 987 q 55 1017 25 1017 q 105 1005 81 1017 q 151 978 128 993 q 194 950 173 962 q 235 939 214 939 q 267 960 256 939 q 283 1018 277 981 l 357 1018 q 322 888 353 933 q 243 843 290 843 q 193 855 218 843 q 145 883 168 867 q 102 910 122 899 q 65 922 82 922 q 33 902 47 922 q 13 842 19 881 l -60 842 z "},"Ī":{"ha":325,"x_min":-10,"x_max":334,"o":"m 99 0 l 99 991 l 228 991 l 228 0 l 99 0 m 334 1191 l 334 1098 l -10 1098 l -10 1191 l 334 1191 z "},"ī":{"ha":300,"x_min":-22,"x_max":322,"o":"m 212 0 l 88 0 l 88 749 l 212 749 l 212 0 m 322 947 l 322 854 l -22 854 l -22 947 l 322 947 z "},"Ĭ":{"ha":325,"x_min":-12,"x_max":338,"o":"m 99 0 l 99 991 l 228 991 l 228 0 l 99 0 m 338 1280 q 315 1177 338 1220 q 253 1111 292 1134 q 161 1087 213 1087 q 37 1135 83 1087 q -12 1280 -9 1183 l 67 1280 q 82 1224 71 1246 q 114 1191 94 1202 q 163 1179 135 1179 q 212 1190 191 1179 q 245 1223 233 1201 q 260 1280 257 1246 l 338 1280 z "},"ĭ":{"ha":300,"x_min":-27,"x_max":323,"o":"m 212 0 l 88 0 l 88 749 l 212 749 l 212 0 m 323 1036 q 299 933 322 977 q 237 867 277 890 q 145 844 197 844 q 22 892 68 844 q -27 1036 -24 940 l 52 1036 q 66 981 55 1003 q 99 947 78 958 q 148 936 119 936 q 196 947 176 936 q 229 980 217 958 q 244 1036 241 1002 l 323 1036 z "},"Į":{"ha":325,"x_min":43,"x_max":250,"o":"m 99 0 l 99 991 l 228 991 l 228 0 l 99 0 m 143 -159 q 159 -209 143 -192 q 204 -227 175 -227 q 231 -223 220 -227 q 250 -218 242 -220 l 250 -301 q 220 -310 237 -307 q 180 -313 202 -313 q 77 -279 111 -313 q 43 -182 43 -245 q 56 -113 43 -148 q 94 -45 68 -78 q 157 18 120 -12 l 227 0 q 161 -84 180 -47 q 143 -159 143 -121 z "},"į":{"ha":300,"x_min":14,"x_max":222,"o":"m 212 749 l 212 0 l 89 0 l 89 749 l 212 749 m 152 1033 q 205 1011 189 1033 q 222 949 222 989 q 204 888 222 910 q 152 867 186 867 q 99 888 118 867 q 80 949 80 910 q 98 1011 80 990 q 152 1033 116 1033 m 114 -159 q 130 -209 114 -192 q 175 -227 146 -227 q 202 -223 191 -227 q 221 -218 213 -220 l 221 -301 q 191 -310 208 -307 q 151 -313 173 -313 q 48 -279 82 -313 q 14 -182 14 -245 q 26 -113 14 -148 q 65 -45 39 -78 q 128 18 91 -12 l 197 0 q 132 -84 151 -47 q 114 -159 114 -121 z "},"İ":{"ha":325,"x_min":92,"x_max":234,"o":"m 99 0 l 99 991 l 228 991 l 228 0 l 99 0 m 164 1274 q 217 1252 201 1274 q 234 1191 234 1230 q 216 1130 234 1152 q 164 1108 199 1108 q 111 1130 130 1108 q 92 1191 92 1152 q 110 1253 92 1232 q 164 1274 128 1274 z "},"Ĳ":{"ha":646,"x_min":99,"x_max":550,"o":"m 99 0 l 99 991 l 228 991 l 228 0 l 99 0 m 348 -273 q 299 -269 323 -273 q 255 -258 276 -266 l 255 -144 q 292 -154 272 -150 q 332 -158 311 -158 q 384 -141 365 -158 q 413 -86 404 -124 q 422 14 422 -49 l 422 991 l 550 991 l 550 7 q 527 -157 550 -96 q 459 -245 504 -218 q 348 -273 414 -273 z "},"ĳ":{"ha":600,"x_min":80,"x_max":522,"o":"m 212 749 l 212 0 l 89 0 l 89 749 l 212 749 m 152 1033 q 205 1011 189 1033 q 222 949 222 989 q 204 888 222 910 q 152 867 186 867 q 99 888 118 867 q 80 949 80 910 q 98 1011 80 990 q 152 1033 116 1033 m 351 -334 q 312 -330 330 -334 q 278 -321 294 -327 l 278 -212 q 303 -220 290 -217 q 328 -223 316 -223 q 375 -195 361 -223 q 389 -109 389 -168 l 389 749 l 512 749 l 512 -111 q 493 -236 512 -187 q 439 -309 475 -286 q 351 -334 403 -333 m 380 949 q 398 1011 380 990 q 452 1033 416 1033 q 505 1011 488 1033 q 522 949 522 989 q 504 888 522 910 q 452 867 486 867 q 399 888 418 867 q 380 949 380 910 z "},"Ĵ":{"ha":321,"x_min":-70,"x_max":347,"o":"m 23 -273 q -25 -269 -2 -273 q -70 -258 -49 -266 l -70 -144 q -33 -154 -53 -150 q 7 -158 -14 -158 q 59 -141 40 -158 q 88 -86 79 -124 q 97 14 97 -49 l 97 991 l 225 991 l 225 7 q 202 -157 225 -96 q 134 -245 179 -218 q 23 -273 89 -273 m 219 1305 q 256 1238 234 1275 q 301 1165 277 1202 q 348 1099 326 1129 l 348 1084 l 277 1084 q 221 1143 250 1110 q 161 1214 192 1177 q 100 1142 130 1177 q 45 1084 70 1107 l -26 1084 l -26 1099 q 22 1167 -2 1130 q 67 1240 46 1204 q 102 1305 89 1277 l 219 1305 z "},"ĵ":{"ha":300,"x_min":-37,"x_max":337,"o":"m 52 -334 q 11 -330 32 -334 q -22 -321 -9 -326 l -22 -212 q 3 -220 -9 -217 q 28 -223 16 -223 q 75 -196 61 -223 q 89 -111 89 -168 l 89 749 l 212 749 l 212 -111 q 194 -234 212 -184 q 139 -309 175 -283 q 52 -334 103 -334 m 208 1063 q 245 996 223 1033 q 291 923 267 960 q 337 857 315 887 l 337 842 l 267 842 q 210 901 239 868 q 150 972 181 935 q 89 900 119 935 q 35 842 59 865 l -37 842 l -37 857 q 11 925 -13 888 q 57 998 35 962 q 92 1063 78 1035 l 208 1063 z "},"Ķ":{"ha":635,"x_min":99,"x_max":642,"o":"m 642 0 l 498 0 l 297 450 l 228 370 l 228 0 l 99 0 l 99 991 l 228 991 l 228 500 q 254 556 235 522 q 299 640 272 591 l 492 991 l 631 991 l 385 553 l 642 0 m 429 -85 l 429 -98 q 404 -170 419 -133 q 371 -243 389 -208 q 334 -307 353 -278 l 262 -307 l 262 -291 q 278 -228 269 -266 q 294 -152 287 -191 q 304 -85 302 -113 l 429 -85 z "},"ķ":{"ha":571,"x_min":87,"x_max":568,"o":"m 211 1055 l 211 545 q 210 464 211 504 q 205 385 208 425 l 210 385 q 233 432 221 410 q 258 475 245 454 l 422 749 l 555 749 l 372 456 l 568 0 l 435 0 l 288 359 l 211 268 l 211 0 l 87 0 l 87 1055 l 211 1055 m 379 -85 l 379 -98 q 355 -170 370 -133 q 322 -243 340 -208 q 285 -307 304 -278 l 212 -307 l 212 -291 q 229 -228 220 -266 q 245 -152 237 -191 q 254 -85 252 -113 l 379 -85 z "},"ĸ":{"ha":571,"x_min":87,"x_max":568,"o":"m 555 749 l 372 456 l 568 0 l 435 0 l 288 359 l 211 269 l 211 0 l 87 0 l 87 749 l 211 749 l 211 545 q 210 462 211 501 q 205 386 208 422 l 210 386 q 230 427 220 407 q 250 464 241 447 l 422 749 l 555 749 z "},"Ĺ":{"ha":524,"x_min":91,"x_max":501,"o":"m 99 0 l 99 991 l 228 991 l 228 115 l 501 115 l 501 0 l 99 0 m 360 1307 l 360 1295 q 323 1245 346 1273 q 275 1188 301 1217 q 221 1132 248 1159 q 173 1085 195 1105 l 91 1085 l 91 1101 q 140 1174 117 1139 q 181 1242 162 1209 q 214 1307 199 1276 l 360 1307 z "},"ĺ":{"ha":298,"x_min":77,"x_max":346,"o":"m 211 0 l 87 0 l 87 1055 l 211 1055 l 211 0 m 347 1371 l 347 1358 q 310 1309 332 1337 q 261 1252 288 1281 q 208 1196 235 1223 q 159 1149 181 1168 l 77 1149 l 77 1165 q 126 1238 104 1202 q 167 1306 149 1273 q 201 1371 186 1339 l 347 1371 z "},"Ļ":{"ha":524,"x_min":99,"x_max":501,"o":"m 99 0 l 99 991 l 228 991 l 228 115 l 501 115 l 501 0 l 99 0 m 375 -85 l 375 -98 q 351 -170 366 -133 q 318 -243 336 -208 q 281 -307 300 -278 l 208 -307 l 208 -291 q 224 -228 216 -266 q 241 -152 233 -191 q 250 -85 248 -113 l 375 -85 z "},"ļ":{"ha":298,"x_min":55,"x_max":222,"o":"m 211 0 l 87 0 l 87 1055 l 211 1055 l 211 0 m 222 -85 l 222 -98 q 198 -170 213 -133 q 165 -243 183 -208 q 128 -307 147 -278 l 56 -307 l 56 -291 q 72 -228 63 -266 q 88 -152 81 -191 q 98 -85 96 -113 l 222 -85 z "},"Ľ":{"ha":524,"x_min":99,"x_max":531,"o":"m 99 0 l 99 991 l 228 991 l 228 115 l 501 115 l 501 0 l 99 0 m 531 991 l 531 978 q 510 908 524 947 q 479 831 496 868 q 447 769 463 793 l 374 769 l 374 785 q 382 824 377 798 q 391 883 387 851 q 400 945 396 916 q 404 991 404 975 l 531 991 z "},"ľ":{"ha":298,"x_min":87,"x_max":418,"o":"m 211 0 l 87 0 l 87 1055 l 211 1055 l 211 0 m 418 1055 l 418 1042 q 397 971 412 1011 q 367 895 383 932 q 334 833 350 857 l 262 833 l 262 849 q 269 888 264 861 q 279 947 274 915 q 287 1009 283 979 q 292 1055 291 1038 l 418 1055 z "},"Ŀ":{"ha":524,"x_min":99,"x_max":501,"o":"m 99 0 l 99 991 l 228 991 l 228 115 l 501 115 l 501 0 l 99 0 m 426 629 q 479 607 463 629 q 496 546 496 585 q 478 485 496 507 q 426 463 460 463 q 373 485 392 463 q 354 546 354 507 q 372 608 354 587 q 426 629 390 629 z "},"ŀ":{"ha":393,"x_min":87,"x_max":418,"o":"m 211 0 l 87 0 l 87 1055 l 211 1055 l 211 0 m 348 638 q 401 616 385 638 q 418 555 418 594 q 400 494 418 515 q 348 472 382 472 q 295 494 314 472 q 276 555 276 515 q 294 617 276 595 q 348 638 312 638 z "},"Ł":{"ha":538,"x_min":-13,"x_max":511,"o":"m 111 0 l 111 339 l 48 298 l -13 379 l 111 465 l 111 991 l 239 991 l 239 554 l 385 648 l 443 567 l 239 429 l 239 115 l 511 115 l 511 0 l 111 0 z "},"ł":{"ha":330,"x_min":-29,"x_max":363,"o":"m 104 0 l 104 410 l 31 356 l -29 437 l 104 537 l 104 1055 l 227 1055 l 227 627 l 301 683 l 363 603 l 227 500 l 227 0 l 104 0 z "},"Ń":{"ha":801,"x_min":99,"x_max":703,"o":"m 703 0 l 549 0 l 218 789 l 212 789 q 217 714 215 749 q 220 646 219 678 q 220 584 220 614 l 220 0 l 99 0 l 99 991 l 252 991 l 585 216 l 589 216 q 585 294 587 258 q 582 363 583 331 q 581 421 581 395 l 581 991 l 703 991 l 703 0 m 591 1307 l 591 1295 q 555 1245 577 1273 q 506 1188 532 1217 q 453 1132 479 1159 q 404 1085 426 1105 l 322 1085 l 322 1101 q 371 1174 349 1139 q 412 1242 393 1209 q 446 1307 431 1276 l 591 1307 z "},"ń":{"ha":644,"x_min":87,"x_max":558,"o":"m 374 762 q 511 699 464 762 q 558 506 558 635 l 558 0 l 435 0 l 435 477 q 413 609 435 565 q 342 652 391 652 q 242 590 273 652 q 211 385 211 527 l 211 0 l 87 0 l 87 749 l 186 749 l 199 644 l 208 644 q 248 707 223 680 q 304 748 272 733 q 374 762 336 762 m 526 1063 l 526 1051 q 490 1002 512 1029 q 441 945 467 974 q 388 888 414 916 q 339 842 361 861 l 257 842 l 257 858 q 306 930 283 895 q 347 999 328 966 q 380 1063 366 1032 l 526 1063 z "},"Ņ":{"ha":801,"x_min":99,"x_max":703,"o":"m 703 0 l 549 0 l 218 789 l 212 789 q 217 714 215 749 q 220 646 219 678 q 220 584 220 614 l 220 0 l 99 0 l 99 991 l 252 991 l 585 216 l 589 216 q 585 294 587 258 q 582 363 583 331 q 581 421 581 395 l 581 991 l 703 991 l 703 0 m 473 -85 l 473 -98 q 449 -170 464 -133 q 416 -243 434 -208 q 379 -307 398 -278 l 307 -307 l 307 -291 q 323 -228 314 -266 q 339 -152 332 -191 q 349 -85 347 -113 l 473 -85 z "},"ņ":{"ha":644,"x_min":87,"x_max":558,"o":"m 374 762 q 511 699 464 762 q 558 506 558 635 l 558 0 l 435 0 l 435 477 q 413 609 435 565 q 342 652 391 652 q 242 590 273 652 q 211 385 211 527 l 211 0 l 87 0 l 87 749 l 186 749 l 199 644 l 208 644 q 248 707 223 680 q 304 748 272 733 q 374 762 336 762 m 396 -85 l 396 -98 q 372 -170 387 -133 q 339 -243 357 -208 q 302 -307 321 -278 l 229 -307 l 229 -291 q 245 -228 237 -266 q 262 -152 254 -191 q 271 -85 269 -113 l 396 -85 z "},"Ň":{"ha":801,"x_min":99,"x_max":703,"o":"m 703 0 l 549 0 l 218 789 l 212 789 q 217 714 215 749 q 220 646 219 678 q 220 584 220 614 l 220 0 l 99 0 l 99 991 l 252 991 l 585 216 l 589 216 q 585 294 587 258 q 582 363 583 331 q 581 421 581 395 l 581 991 l 703 991 l 703 0 m 342 1085 q 306 1152 328 1116 q 261 1225 285 1189 q 214 1293 237 1262 l 214 1307 l 285 1307 q 340 1248 310 1283 q 400 1177 370 1213 q 458 1245 434 1218 q 516 1307 483 1273 l 586 1307 l 586 1293 q 542 1228 566 1264 q 495 1154 517 1192 q 457 1085 472 1116 l 342 1085 z "},"ň":{"ha":644,"x_min":87,"x_max":558,"o":"m 374 762 q 511 699 464 762 q 558 506 558 635 l 558 0 l 435 0 l 435 477 q 413 609 435 565 q 342 652 391 652 q 242 590 273 652 q 211 385 211 527 l 211 0 l 87 0 l 87 749 l 186 749 l 199 644 l 208 644 q 248 707 223 680 q 304 748 272 733 q 374 762 336 762 m 275 842 q 240 909 261 872 q 194 982 218 945 q 147 1049 170 1019 l 147 1063 l 218 1063 q 274 1005 243 1040 q 334 934 304 970 q 392 1002 368 975 q 450 1063 416 1029 l 519 1063 l 519 1049 q 475 984 500 1021 q 428 910 451 948 q 391 842 406 873 l 275 842 z "},"ŉ":{"ha":748,"x_min":1,"x_max":662,"o":"m 477 762 q 615 699 568 762 q 662 506 662 635 l 662 0 l 538 0 l 538 477 q 517 609 538 565 q 446 652 495 652 q 346 590 377 652 q 315 385 315 527 l 315 0 l 191 0 l 191 749 l 290 749 l 303 644 l 311 644 q 351 707 327 680 q 408 748 376 733 q 477 762 439 762 m 190 991 l 200 977 q 172 861 187 918 q 138 750 156 804 q 98 644 119 696 l 1 644 q 21 731 12 686 q 39 823 31 777 q 53 912 47 869 q 62 991 59 956 l 190 991 z "},"Ŋ":{"ha":802,"x_min":99,"x_max":704,"o":"m 507 -273 q 458 -269 481 -273 q 415 -258 435 -266 l 415 -144 q 451 -154 431 -150 q 492 -158 471 -158 q 543 -142 524 -158 q 572 -90 563 -125 q 582 3 582 -54 l 216 801 l 212 801 q 216 727 215 762 q 219 659 218 691 q 220 597 220 627 l 220 0 l 99 0 l 99 991 l 252 991 l 585 267 l 589 267 q 585 342 587 307 q 583 410 583 378 q 582 469 582 441 l 582 991 l 704 991 l 704 12 q 683 -147 704 -83 q 617 -241 661 -210 q 507 -273 574 -273 z "},"ŋ":{"ha":644,"x_min":87,"x_max":558,"o":"m 397 -334 q 361 -330 379 -334 q 325 -321 342 -327 l 325 -212 q 351 -220 338 -217 q 375 -223 364 -223 q 420 -195 406 -223 q 435 -107 435 -166 l 435 477 q 412 606 435 563 q 340 649 389 649 q 269 624 298 649 q 225 542 240 600 q 211 386 211 484 l 211 0 l 87 0 l 87 749 l 186 749 l 200 644 l 206 644 q 247 706 222 680 q 303 748 271 733 q 374 762 336 762 q 480 729 440 762 q 539 636 521 696 q 558 492 558 575 l 558 -109 q 541 -228 558 -177 q 489 -306 524 -278 q 397 -334 453 -334 z "},"Ō":{"ha":774,"x_min":67,"x_max":708,"o":"m 708 497 q 690 295 708 388 q 633 132 671 201 q 535 25 595 63 q 389 -14 474 -14 q 240 26 302 -14 q 141 135 179 65 q 85 297 103 204 q 67 498 67 391 q 103 780 67 667 q 211 950 140 893 q 389 1006 283 1006 q 572 940 502 1006 q 675 759 642 874 q 708 497 708 644 m 201 497 q 222 279 201 368 q 285 147 243 191 q 387 102 327 102 q 490 146 449 102 q 552 277 532 189 q 573 497 573 366 q 527 792 573 694 q 389 891 481 891 q 284 847 326 891 q 222 714 243 802 q 201 497 201 627 m 560 1191 l 560 1098 l 216 1098 l 216 1191 l 560 1191 z "},"ō":{"ha":628,"x_min":57,"x_max":572,"o":"m 572 375 q 556 218 572 290 q 510 95 541 147 q 429 15 478 43 q 313 -14 380 -14 q 201 15 249 -14 q 121 94 153 43 q 73 217 89 146 q 57 375 57 289 q 84 583 57 496 q 169 716 112 669 q 315 762 226 762 q 454 718 397 762 q 542 588 511 674 q 572 375 572 502 m 182 374 q 196 219 182 282 q 240 125 210 157 q 315 94 269 94 q 390 124 361 94 q 432 218 418 155 q 446 375 446 281 q 432 530 446 468 q 390 624 418 593 q 315 655 361 655 q 214 585 245 655 q 182 374 182 515 m 487 947 l 487 854 l 142 854 l 142 947 l 487 947 z "},"Ŏ":{"ha":774,"x_min":67,"x_max":708,"o":"m 708 497 q 690 295 708 388 q 633 132 671 201 q 535 25 595 63 q 389 -14 474 -14 q 240 26 302 -14 q 141 135 179 65 q 85 297 103 204 q 67 498 67 391 q 103 780 67 667 q 211 950 140 893 q 389 1006 283 1006 q 572 940 502 1006 q 675 759 642 874 q 708 497 708 644 m 201 497 q 222 279 201 368 q 285 147 243 191 q 387 102 327 102 q 490 146 449 102 q 552 277 532 189 q 573 497 573 366 q 527 792 573 694 q 389 891 481 891 q 284 847 326 891 q 222 714 243 802 q 201 497 201 627 m 562 1280 q 538 1177 561 1220 q 476 1111 515 1134 q 384 1087 436 1087 q 260 1135 307 1087 q 212 1280 214 1183 l 290 1280 q 305 1224 294 1246 q 337 1191 317 1202 q 387 1179 358 1179 q 435 1190 414 1179 q 468 1223 456 1201 q 483 1280 480 1246 l 562 1280 z "},"ŏ":{"ha":628,"x_min":57,"x_max":572,"o":"m 572 375 q 556 218 572 290 q 510 95 541 147 q 429 15 478 43 q 313 -14 380 -14 q 201 15 249 -14 q 121 94 153 43 q 73 217 89 146 q 57 375 57 289 q 84 583 57 496 q 169 716 112 669 q 315 762 226 762 q 454 718 397 762 q 542 588 511 674 q 572 375 572 502 m 182 374 q 196 219 182 282 q 240 125 210 157 q 315 94 269 94 q 390 124 361 94 q 432 218 418 155 q 446 375 446 281 q 432 530 446 468 q 390 624 418 593 q 315 655 361 655 q 214 585 245 655 q 182 374 182 515 m 488 1036 q 465 933 488 977 q 402 867 442 890 q 311 844 363 844 q 187 892 233 844 q 138 1036 141 940 l 217 1036 q 232 981 220 1003 q 264 947 243 958 q 313 936 285 936 q 362 947 341 936 q 395 980 382 958 q 410 1036 407 1002 l 488 1036 z "},"Ő":{"ha":774,"x_min":67,"x_max":708,"o":"m 708 497 q 690 295 708 388 q 633 132 671 201 q 535 25 595 63 q 389 -14 474 -14 q 240 26 302 -14 q 141 135 179 65 q 85 297 103 204 q 67 498 67 391 q 103 780 67 667 q 211 950 140 893 q 389 1006 283 1006 q 572 940 502 1006 q 675 759 642 874 q 708 497 708 644 m 201 497 q 222 279 201 368 q 285 147 243 191 q 387 102 327 102 q 490 146 449 102 q 552 277 532 189 q 573 497 573 366 q 527 792 573 694 q 389 891 481 891 q 284 847 326 891 q 222 714 243 802 q 201 497 201 627 m 665 1308 l 665 1295 q 635 1245 655 1273 q 590 1187 614 1217 q 541 1131 566 1157 q 495 1085 515 1104 l 431 1085 l 431 1101 q 475 1175 453 1135 q 515 1251 497 1215 q 542 1308 534 1287 l 665 1308 m 462 1308 l 462 1295 q 432 1244 451 1272 q 389 1189 413 1217 q 339 1134 366 1160 q 288 1085 313 1107 l 229 1085 l 229 1101 q 272 1176 250 1137 q 312 1251 294 1215 q 339 1308 330 1286 l 462 1308 z "},"ő":{"ha":628,"x_min":57,"x_max":592,"o":"m 572 375 q 556 218 572 290 q 510 95 541 147 q 429 15 478 43 q 313 -14 380 -14 q 201 15 249 -14 q 121 94 153 43 q 73 217 89 146 q 57 375 57 289 q 84 583 57 496 q 169 716 112 669 q 315 762 226 762 q 454 718 397 762 q 542 588 511 674 q 572 375 572 502 m 182 374 q 196 219 182 282 q 240 125 210 157 q 315 94 269 94 q 390 124 361 94 q 432 218 418 155 q 446 375 446 281 q 432 530 446 468 q 390 624 418 593 q 315 655 361 655 q 214 585 245 655 q 182 374 182 515 m 592 1064 l 592 1051 q 562 1001 582 1029 q 517 943 541 973 q 467 887 492 913 q 422 842 442 861 l 358 842 l 358 857 q 402 931 380 891 q 442 1007 424 971 q 469 1064 460 1044 l 592 1064 m 389 1064 l 389 1051 q 359 1001 378 1028 q 316 945 340 974 q 266 890 292 917 q 215 842 240 864 l 155 842 l 155 857 q 199 932 177 893 q 238 1007 220 972 q 266 1064 256 1042 l 389 1064 z "},"Œ":{"ha":915,"x_min":67,"x_max":852,"o":"m 407 1000 q 453 997 432 1000 q 494 991 475 995 l 852 991 l 852 879 l 574 879 l 574 574 l 836 574 l 836 460 l 574 460 l 574 115 l 852 115 l 852 0 l 494 0 q 452 -5 474 -3 q 405 -7 431 -7 q 215 53 290 -7 q 103 227 140 113 q 67 498 67 340 q 104 768 67 656 q 216 940 141 880 q 407 1000 291 1000 m 410 885 q 309 857 349 884 q 245 778 269 829 q 212 656 222 727 q 202 497 202 585 q 221 291 202 378 q 287 157 241 204 q 412 109 333 110 q 432 110 423 109 q 448 113 441 112 l 448 878 q 431 883 441 882 q 410 885 422 885 z "},"œ":{"ha":979,"x_min":57,"x_max":923,"o":"m 693 761 q 824 717 773 761 q 899 598 874 673 q 923 429 923 523 l 923 347 l 566 347 q 607 153 566 217 q 729 89 648 89 q 811 101 771 89 q 894 140 850 113 l 894 34 q 811 -2 854 10 q 717 -14 768 -14 q 591 20 642 -14 q 507 120 539 54 q 431 21 479 55 q 313 -14 382 -14 q 173 34 230 -14 q 86 168 115 81 q 57 375 57 256 q 85 585 57 499 q 172 717 114 671 q 316 762 229 762 q 429 729 382 762 q 505 631 476 696 q 552 702 525 673 q 614 746 578 731 q 693 761 649 761 m 316 655 q 214 585 245 655 q 182 374 182 515 q 197 219 182 281 q 241 124 212 156 q 315 92 271 92 q 390 123 361 92 q 432 217 418 155 q 446 375 446 280 q 432 531 446 469 q 390 624 418 593 q 316 655 361 655 m 692 660 q 604 607 636 660 q 567 442 572 555 l 808 442 q 796 554 808 505 q 758 631 783 603 q 692 660 732 660 z "},"Ŕ":{"ha":652,"x_min":99,"x_max":637,"o":"m 284 991 q 454 961 387 991 q 553 868 521 930 q 586 712 586 806 q 570 595 586 647 q 521 506 554 544 q 435 444 488 469 l 637 0 l 494 0 l 319 411 l 228 411 l 228 0 l 99 0 l 99 991 l 284 991 m 284 878 l 228 878 l 228 517 l 296 517 q 414 564 373 517 q 455 706 455 611 q 414 837 455 796 q 284 878 372 878 m 525 1307 l 525 1295 q 488 1245 511 1273 q 439 1188 466 1217 q 386 1132 413 1159 q 338 1085 359 1105 l 256 1085 l 256 1101 q 304 1174 282 1139 q 346 1242 327 1209 q 379 1307 364 1276 l 525 1307 z "},"ŕ":{"ha":433,"x_min":88,"x_max":441,"o":"m 357 762 q 388 759 372 762 q 420 751 403 757 l 404 623 q 377 631 391 629 q 347 633 363 633 q 291 614 316 633 q 248 562 266 595 q 220 485 230 529 q 212 388 211 440 l 212 0 l 88 0 l 88 749 l 184 749 l 201 618 l 208 618 q 245 691 224 659 q 295 743 267 724 q 357 762 323 762 m 441 1063 l 441 1051 q 404 1002 427 1029 q 355 945 382 974 q 302 888 329 916 q 254 842 275 861 l 172 842 l 172 858 q 220 930 198 895 q 261 999 243 966 q 295 1063 280 1032 l 441 1063 z "},"Ŗ":{"ha":652,"x_min":99,"x_max":637,"o":"m 284 991 q 454 961 387 991 q 553 868 521 930 q 586 712 586 806 q 570 595 586 647 q 521 506 554 544 q 435 444 488 469 l 637 0 l 494 0 l 319 411 l 228 411 l 228 0 l 99 0 l 99 991 l 284 991 m 284 878 l 228 878 l 228 517 l 296 517 q 414 564 373 517 q 455 706 455 611 q 414 837 455 796 q 284 878 372 878 m 414 -85 l 414 -98 q 390 -170 405 -133 q 357 -243 375 -208 q 320 -307 339 -278 l 248 -307 l 248 -291 q 264 -228 255 -266 q 280 -152 273 -191 q 290 -85 288 -113 l 414 -85 z "},"ŗ":{"ha":433,"x_min":61,"x_max":420,"o":"m 357 762 q 388 759 372 762 q 420 751 403 757 l 404 623 q 377 631 391 629 q 347 633 363 633 q 291 614 316 633 q 248 562 266 595 q 220 485 230 529 q 212 388 211 440 l 212 0 l 88 0 l 88 749 l 184 749 l 201 618 l 208 618 q 245 691 224 659 q 295 743 267 724 q 357 762 323 762 m 229 -85 l 229 -98 q 204 -170 219 -133 q 171 -243 189 -208 q 134 -307 153 -278 l 62 -307 l 62 -291 q 78 -228 69 -266 q 94 -152 87 -191 q 104 -85 102 -113 l 229 -85 z "},"Ř":{"ha":652,"x_min":99,"x_max":637,"o":"m 284 991 q 454 961 387 991 q 553 868 521 930 q 586 712 586 806 q 570 595 586 647 q 521 506 554 544 q 435 444 488 469 l 637 0 l 494 0 l 319 411 l 228 411 l 228 0 l 99 0 l 99 991 l 284 991 m 284 878 l 228 878 l 228 517 l 296 517 q 414 564 373 517 q 455 706 455 611 q 414 837 455 796 q 284 878 372 878 m 272 1085 q 236 1152 258 1116 q 191 1225 215 1189 q 144 1293 167 1262 l 144 1307 l 215 1307 q 270 1248 240 1283 q 330 1177 300 1213 q 389 1245 364 1218 q 446 1307 413 1273 l 516 1307 l 516 1293 q 472 1228 496 1264 q 425 1154 448 1192 q 387 1085 402 1116 l 272 1085 z "},"ř":{"ha":433,"x_min":62,"x_max":434,"o":"m 357 762 q 388 759 372 762 q 420 751 403 757 l 404 623 q 377 631 391 629 q 347 633 363 633 q 291 614 316 633 q 248 562 266 595 q 220 485 230 529 q 212 388 211 440 l 212 0 l 88 0 l 88 749 l 184 749 l 201 618 l 208 618 q 245 691 224 659 q 295 743 267 724 q 357 762 323 762 m 190 842 q 154 909 176 872 q 109 982 133 945 q 62 1049 85 1019 l 62 1063 l 133 1063 q 188 1005 158 1040 q 248 934 218 970 q 307 1002 282 975 q 364 1063 331 1029 l 434 1063 l 434 1049 q 390 984 414 1021 q 343 910 366 948 q 305 842 320 873 l 190 842 z "},"Ś":{"ha":580,"x_min":52,"x_max":530,"o":"m 530 275 q 496 125 530 190 q 403 23 463 60 q 262 -14 343 -14 q 186 -9 223 -14 q 116 6 150 -4 q 52 31 83 16 l 52 164 q 155 121 100 136 q 256 106 210 106 q 334 127 303 106 q 382 184 366 149 q 399 263 399 220 q 385 340 399 309 q 338 399 371 372 q 249 457 306 427 q 170 507 205 481 q 110 564 135 532 q 72 639 85 596 q 58 741 58 682 q 90 880 57 821 q 181 973 122 940 q 317 1006 240 1006 q 428 991 375 1006 q 522 955 481 977 l 482 838 q 398 874 439 863 q 321 886 357 886 q 249 868 279 886 q 203 819 219 850 q 188 747 188 788 q 202 668 188 699 q 249 610 216 636 q 339 553 282 585 q 445 480 403 519 q 509 391 488 441 q 530 275 530 341 m 496 1307 l 496 1295 q 460 1245 482 1273 q 411 1188 437 1217 q 358 1132 385 1159 q 309 1085 331 1105 l 227 1085 l 227 1101 q 276 1174 254 1139 q 317 1242 298 1209 q 351 1307 336 1276 l 496 1307 z "},"ś":{"ha":480,"x_min":45,"x_max":444,"o":"m 437 203 q 411 85 437 134 q 337 12 386 37 q 220 -14 289 -14 q 123 -2 168 -14 q 45 28 79 10 l 45 153 q 122 112 77 129 q 214 96 167 96 q 288 122 262 96 q 315 198 315 149 q 304 248 315 227 q 268 291 293 270 q 199 336 243 311 q 118 395 153 363 q 64 466 83 426 q 45 563 45 507 q 103 708 45 653 q 258 762 161 762 q 350 749 307 762 q 434 711 394 736 l 392 614 q 329 646 362 634 q 261 659 296 659 q 190 634 216 659 q 164 567 164 609 q 175 518 164 538 q 211 478 185 498 q 281 431 237 458 q 362 372 328 402 q 417 301 397 341 q 437 203 437 261 m 445 1063 l 445 1051 q 408 1002 431 1029 q 359 945 386 974 q 306 888 333 916 q 258 842 279 861 l 176 842 l 176 858 q 224 930 202 895 q 266 999 247 966 q 299 1063 284 1032 l 445 1063 z "},"Ŝ":{"ha":580,"x_min":52,"x_max":530,"o":"m 530 275 q 496 125 530 190 q 403 23 463 60 q 262 -14 343 -14 q 186 -9 223 -14 q 116 6 150 -4 q 52 31 83 16 l 52 164 q 155 121 100 136 q 256 106 210 106 q 334 127 303 106 q 382 184 366 149 q 399 263 399 220 q 385 340 399 309 q 338 399 371 372 q 249 457 306 427 q 170 507 205 481 q 110 564 135 532 q 72 639 85 596 q 58 741 58 682 q 90 880 57 821 q 181 973 122 940 q 317 1006 240 1006 q 428 991 375 1006 q 522 955 481 977 l 482 838 q 398 874 439 863 q 321 886 357 886 q 249 868 279 886 q 203 819 219 850 q 188 747 188 788 q 202 668 188 699 q 249 610 216 636 q 339 553 282 585 q 445 480 403 519 q 509 391 488 441 q 530 275 530 341 m 362 1307 q 399 1240 377 1276 q 445 1167 420 1203 q 491 1100 469 1131 l 491 1085 l 420 1085 q 364 1145 393 1112 q 304 1215 335 1178 q 243 1143 273 1179 q 189 1085 213 1108 l 117 1085 l 117 1100 q 165 1168 141 1131 q 211 1242 189 1205 q 245 1307 232 1278 l 362 1307 z "},"ŝ":{"ha":480,"x_min":45,"x_max":438,"o":"m 437 203 q 411 85 437 134 q 337 12 386 37 q 220 -14 289 -14 q 123 -2 168 -14 q 45 28 79 10 l 45 153 q 122 112 77 129 q 214 96 167 96 q 288 122 262 96 q 315 198 315 149 q 304 248 315 227 q 268 291 293 270 q 199 336 243 311 q 118 395 153 363 q 64 466 83 426 q 45 563 45 507 q 103 708 45 653 q 258 762 161 762 q 350 749 307 762 q 434 711 394 736 l 392 614 q 329 646 362 634 q 261 659 296 659 q 190 634 216 659 q 164 567 164 609 q 175 518 164 538 q 211 478 185 498 q 281 431 237 458 q 362 372 328 402 q 417 301 397 341 q 437 203 437 261 m 310 1063 q 347 996 325 1033 q 392 923 368 960 q 439 857 416 887 l 439 842 l 368 842 q 312 901 340 868 q 252 972 283 935 q 191 900 221 935 q 136 842 161 865 l 65 842 l 65 857 q 113 925 89 888 q 158 998 137 962 q 193 1063 180 1035 l 310 1063 z "},"Ş":{"ha":580,"x_min":52,"x_max":530,"o":"m 530 275 q 496 125 530 190 q 403 23 463 60 q 262 -14 343 -14 q 186 -9 223 -14 q 116 6 150 -4 q 52 31 83 16 l 52 164 q 155 121 100 136 q 256 106 210 106 q 334 127 303 106 q 382 184 366 149 q 399 263 399 220 q 385 340 399 309 q 338 399 371 372 q 249 457 306 427 q 170 507 205 481 q 110 564 135 532 q 72 639 85 596 q 58 741 58 682 q 90 880 57 821 q 181 973 122 940 q 317 1006 240 1006 q 428 991 375 1006 q 522 955 481 977 l 482 838 q 398 874 439 863 q 321 886 357 886 q 249 868 279 886 q 203 819 219 850 q 188 747 188 788 q 202 668 188 699 q 249 610 216 636 q 339 553 282 585 q 445 480 403 519 q 509 391 488 441 q 530 275 530 341 m 399 -189 q 355 -296 399 -258 q 234 -334 312 -334 q 187 -331 208 -334 q 151 -324 166 -328 l 151 -245 q 182 -252 165 -250 q 214 -254 198 -254 q 277 -236 256 -254 q 298 -188 298 -218 q 270 -135 298 -153 q 193 -111 241 -117 l 240 0 l 311 0 l 281 -67 q 346 -91 319 -75 q 385 -132 372 -107 q 399 -189 399 -157 z "},"ş":{"ha":480,"x_min":45,"x_max":437,"o":"m 437 203 q 411 85 437 134 q 337 12 386 37 q 220 -14 289 -14 q 123 -2 168 -14 q 45 28 79 10 l 45 153 q 122 112 77 129 q 214 96 167 96 q 288 122 262 96 q 315 198 315 149 q 304 248 315 227 q 268 291 293 270 q 199 336 243 311 q 118 395 153 363 q 64 466 83 426 q 45 563 45 507 q 103 708 45 653 q 258 762 161 762 q 350 749 307 762 q 434 711 394 736 l 392 614 q 329 646 362 634 q 261 659 296 659 q 190 634 216 659 q 164 567 164 609 q 175 518 164 538 q 211 478 185 498 q 281 431 237 458 q 362 372 328 402 q 417 301 397 341 q 437 203 437 261 m 349 -189 q 305 -296 349 -258 q 184 -334 262 -334 q 137 -331 158 -334 q 100 -324 116 -328 l 100 -245 q 132 -252 115 -250 q 163 -254 148 -254 q 227 -236 205 -254 q 248 -188 248 -218 q 220 -135 248 -153 q 142 -111 191 -117 l 190 0 l 261 0 l 231 -67 q 295 -91 269 -75 q 335 -132 321 -107 q 349 -189 349 -157 z "},"Š":{"ha":580,"x_min":52,"x_max":530,"o":"m 530 275 q 496 125 530 190 q 403 23 463 60 q 262 -14 343 -14 q 186 -9 223 -14 q 116 6 150 -4 q 52 31 83 16 l 52 164 q 155 121 100 136 q 256 106 210 106 q 334 127 303 106 q 382 184 366 149 q 399 263 399 220 q 385 340 399 309 q 338 399 371 372 q 249 457 306 427 q 170 507 205 481 q 110 564 135 532 q 72 639 85 596 q 58 741 58 682 q 90 880 57 821 q 181 973 122 940 q 317 1006 240 1006 q 428 991 375 1006 q 522 955 481 977 l 482 838 q 398 874 439 863 q 321 886 357 886 q 249 868 279 886 q 203 819 219 850 q 188 747 188 788 q 202 668 188 699 q 249 610 216 636 q 339 553 282 585 q 445 480 403 519 q 509 391 488 441 q 530 275 530 341 m 247 1085 q 211 1152 233 1116 q 166 1225 190 1189 q 119 1293 142 1262 l 119 1307 l 190 1307 q 245 1248 215 1283 q 305 1177 275 1213 q 363 1245 339 1218 q 421 1307 388 1273 l 491 1307 l 491 1293 q 447 1228 471 1264 q 400 1154 422 1192 q 362 1085 377 1116 l 247 1085 z "},"š":{"ha":480,"x_min":45,"x_max":438,"o":"m 437 203 q 411 85 437 134 q 337 12 386 37 q 220 -14 289 -14 q 123 -2 168 -14 q 45 28 79 10 l 45 153 q 122 112 77 129 q 214 96 167 96 q 288 122 262 96 q 315 198 315 149 q 304 248 315 227 q 268 291 293 270 q 199 336 243 311 q 118 395 153 363 q 64 466 83 426 q 45 563 45 507 q 103 708 45 653 q 258 762 161 762 q 350 749 307 762 q 434 711 394 736 l 392 614 q 329 646 362 634 q 261 659 296 659 q 190 634 216 659 q 164 567 164 609 q 175 518 164 538 q 211 478 185 498 q 281 431 237 458 q 362 372 328 402 q 417 301 397 341 q 437 203 437 261 m 194 842 q 158 909 180 872 q 113 982 137 945 q 66 1049 89 1019 l 66 1063 l 137 1063 q 192 1005 162 1040 q 252 934 222 970 q 311 1002 286 975 q 368 1063 335 1029 l 438 1063 l 438 1049 q 394 984 418 1021 q 347 910 370 948 q 309 842 324 873 l 194 842 z "},"Ț":{"ha":541,"x_min":15,"x_max":525,"o":"m 334 0 l 205 0 l 205 877 l 15 877 l 15 991 l 525 991 l 525 877 l 334 877 l 334 0 m 342 -85 l 342 -98 q 317 -170 332 -133 q 284 -243 302 -208 q 248 -307 267 -278 l 175 -307 l 175 -291 q 191 -228 182 -266 q 208 -152 200 -191 q 217 -85 215 -113 l 342 -85 z "},"ț":{"ha":374,"x_min":22,"x_max":353,"o":"m 282 95 q 318 99 300 95 q 353 111 336 103 l 353 11 q 303 -7 330 -1 q 243 -14 276 -14 q 158 9 191 -14 q 109 78 124 32 q 93 193 93 123 l 93 646 l 22 646 l 22 712 l 100 745 l 132 915 l 216 915 l 216 749 l 345 749 l 345 646 l 216 646 l 216 203 q 230 122 216 149 q 282 95 244 95 m 299 -85 l 299 -98 q 275 -170 290 -133 q 242 -243 260 -208 q 205 -307 224 -278 l 132 -307 l 132 -291 q 149 -228 140 -266 q 165 -152 157 -191 q 174 -85 172 -113 l 299 -85 z "},"Ť":{"ha":541,"x_min":15,"x_max":525,"o":"m 334 0 l 205 0 l 205 877 l 15 877 l 15 991 l 525 991 l 525 877 l 334 877 l 334 0 m 213 1085 q 177 1152 199 1116 q 132 1225 156 1189 q 85 1293 108 1262 l 85 1307 l 156 1307 q 211 1248 181 1283 q 271 1177 241 1213 q 330 1245 305 1218 q 387 1307 354 1273 l 457 1307 l 457 1293 q 413 1228 437 1264 q 366 1154 389 1192 q 328 1085 343 1116 l 213 1085 z "},"ť":{"ha":374,"x_min":22,"x_max":520,"o":"m 282 95 q 318 99 300 95 q 353 111 336 103 l 353 11 q 303 -7 330 -1 q 243 -14 276 -14 q 158 9 191 -14 q 109 78 124 32 q 93 193 93 123 l 93 646 l 22 646 l 22 712 l 100 745 l 132 915 l 216 915 l 216 749 l 345 749 l 345 646 l 216 646 l 216 203 q 230 122 216 149 q 282 95 244 95 m 520 1055 l 520 1042 q 499 971 513 1011 q 468 895 485 932 q 436 833 452 857 l 363 833 l 363 849 q 371 888 366 861 q 380 947 376 915 q 389 1009 385 979 q 393 1055 393 1038 l 520 1055 z "},"Ŧ":{"ha":541,"x_min":15,"x_max":525,"o":"m 205 0 l 205 447 l 67 447 l 67 549 l 205 549 l 205 876 l 15 876 l 15 991 l 525 991 l 525 876 l 334 876 l 334 549 l 473 549 l 473 447 l 334 447 l 334 0 l 205 0 z "},"ŧ":{"ha":374,"x_min":22,"x_max":353,"o":"m 24 370 l 24 462 l 339 462 l 339 370 l 24 370 m 282 95 q 318 99 300 95 q 353 111 336 103 l 353 11 q 303 -7 330 -1 q 243 -14 276 -14 q 158 9 191 -14 q 109 78 124 32 q 93 193 93 123 l 93 646 l 22 646 l 22 712 l 100 745 l 132 915 l 216 915 l 216 749 l 345 749 l 345 646 l 216 646 l 216 203 q 230 122 216 149 q 282 95 244 95 z "},"Ũ":{"ha":735,"x_min":91,"x_max":644,"o":"m 644 991 l 644 314 q 612 128 644 201 q 519 21 581 56 q 368 -14 458 -14 q 162 66 233 -14 q 91 313 91 146 l 91 991 l 220 991 l 220 314 q 258 152 220 201 q 369 102 297 102 q 449 123 417 102 q 498 191 481 144 q 515 315 515 238 l 515 991 l 644 991 m 159 1085 q 169 1149 161 1118 q 189 1205 176 1181 q 223 1245 201 1230 q 274 1260 244 1260 q 324 1248 300 1260 q 370 1221 347 1236 q 413 1194 392 1206 q 454 1182 433 1182 q 486 1203 475 1182 q 502 1261 496 1225 l 576 1261 q 541 1132 572 1177 q 463 1086 509 1086 q 412 1098 437 1086 q 364 1126 387 1110 q 321 1154 341 1142 q 284 1166 301 1166 q 252 1145 266 1166 q 232 1085 238 1124 l 159 1085 z "},"ũ":{"ha":644,"x_min":85,"x_max":556,"o":"m 556 749 l 556 0 l 458 0 l 444 104 l 436 104 q 396 41 420 67 q 341 1 372 15 q 271 -14 310 -14 q 164 19 205 -14 q 104 113 123 52 q 85 258 85 174 l 85 749 l 209 749 l 209 286 q 231 143 209 189 q 298 97 252 97 q 378 125 349 97 q 420 210 407 153 q 433 353 433 267 l 433 749 l 556 749 m 114 842 q 124 906 117 874 q 144 962 131 937 q 178 1002 157 987 q 229 1017 199 1017 q 279 1005 256 1017 q 325 978 302 993 q 368 950 347 962 q 409 939 389 939 q 441 960 430 939 q 457 1018 452 981 l 532 1018 q 496 888 528 933 q 418 843 465 843 q 367 855 392 843 q 319 883 342 867 q 276 910 296 899 q 239 922 256 922 q 207 902 221 922 q 187 842 193 881 l 114 842 z "},"Ū":{"ha":735,"x_min":91,"x_max":644,"o":"m 644 991 l 644 314 q 612 128 644 201 q 519 21 581 56 q 368 -14 458 -14 q 162 66 233 -14 q 91 313 91 146 l 91 991 l 220 991 l 220 314 q 258 152 220 201 q 369 102 297 102 q 449 123 417 102 q 498 191 481 144 q 515 315 515 238 l 515 991 l 644 991 m 541 1191 l 541 1098 l 196 1098 l 196 1191 l 541 1191 z "},"ū":{"ha":644,"x_min":85,"x_max":556,"o":"m 556 749 l 556 0 l 458 0 l 444 104 l 436 104 q 396 41 420 67 q 341 1 372 15 q 271 -14 310 -14 q 164 19 205 -14 q 104 113 123 52 q 85 258 85 174 l 85 749 l 209 749 l 209 286 q 231 143 209 189 q 298 97 252 97 q 378 125 349 97 q 420 210 407 153 q 433 353 433 267 l 433 749 l 556 749 m 496 947 l 496 854 l 151 854 l 151 947 l 496 947 z "},"Ŭ":{"ha":735,"x_min":91,"x_max":644,"o":"m 644 991 l 644 314 q 612 128 644 201 q 519 21 581 56 q 368 -14 458 -14 q 162 66 233 -14 q 91 313 91 146 l 91 991 l 220 991 l 220 314 q 258 152 220 201 q 369 102 297 102 q 449 123 417 102 q 498 191 481 144 q 515 315 515 238 l 515 991 l 644 991 m 542 1280 q 518 1177 541 1220 q 456 1111 496 1134 q 364 1087 416 1087 q 241 1135 287 1087 q 192 1280 195 1183 l 271 1280 q 286 1224 274 1246 q 318 1191 297 1202 q 367 1179 338 1179 q 415 1190 395 1179 q 448 1223 436 1201 q 463 1280 460 1246 l 542 1280 z "},"ŭ":{"ha":644,"x_min":85,"x_max":556,"o":"m 556 749 l 556 0 l 458 0 l 444 104 l 436 104 q 396 41 420 67 q 341 1 372 15 q 271 -14 310 -14 q 164 19 205 -14 q 104 113 123 52 q 85 258 85 174 l 85 749 l 209 749 l 209 286 q 231 143 209 189 q 298 97 252 97 q 378 125 349 97 q 420 210 407 153 q 433 353 433 267 l 433 749 l 556 749 m 496 1036 q 473 933 496 977 q 411 867 450 890 q 319 844 371 844 q 195 892 241 844 q 146 1036 149 940 l 225 1036 q 240 981 229 1003 q 272 947 252 958 q 321 936 293 936 q 370 947 349 936 q 403 980 391 958 q 418 1036 415 1002 l 496 1036 z "},"Ů":{"ha":735,"x_min":91,"x_max":644,"o":"m 644 991 l 644 314 q 612 128 644 201 q 519 21 581 56 q 368 -14 458 -14 q 162 66 233 -14 q 91 313 91 146 l 91 991 l 220 991 l 220 314 q 258 152 220 201 q 369 102 297 102 q 449 123 417 102 q 498 191 481 144 q 515 315 515 238 l 515 991 l 644 991 m 368 1089 q 260 1128 300 1089 q 220 1232 220 1168 q 260 1335 220 1296 q 368 1375 300 1375 q 474 1336 432 1375 q 515 1234 515 1297 q 475 1129 515 1169 q 368 1089 435 1089 m 369 1162 q 421 1181 401 1162 q 441 1232 441 1200 q 422 1284 441 1263 q 369 1304 403 1304 q 316 1284 336 1304 q 295 1232 295 1263 q 314 1181 295 1200 q 369 1162 332 1162 z "},"ů":{"ha":644,"x_min":85,"x_max":556,"o":"m 556 749 l 556 0 l 458 0 l 444 104 l 436 104 q 396 41 420 67 q 341 1 372 15 q 271 -14 310 -14 q 164 19 205 -14 q 104 113 123 52 q 85 258 85 174 l 85 749 l 209 749 l 209 286 q 231 143 209 189 q 298 97 252 97 q 378 125 349 97 q 420 210 407 153 q 433 353 433 267 l 433 749 l 556 749 m 323 846 q 215 885 255 846 q 175 988 175 924 q 215 1092 175 1053 q 323 1131 255 1131 q 429 1092 387 1131 q 471 990 471 1053 q 430 886 471 926 q 323 846 390 846 m 324 918 q 376 937 356 918 q 397 988 397 956 q 377 1040 397 1020 q 324 1061 358 1061 q 271 1040 292 1061 q 250 989 250 1020 q 269 938 250 957 q 324 918 288 918 z "},"Ű":{"ha":735,"x_min":91,"x_max":644,"o":"m 644 991 l 644 314 q 612 128 644 201 q 519 21 581 56 q 368 -14 458 -14 q 162 66 233 -14 q 91 313 91 146 l 91 991 l 220 991 l 220 314 q 258 152 220 201 q 369 102 297 102 q 449 123 417 102 q 498 191 481 144 q 515 315 515 238 l 515 991 l 644 991 m 644 1308 l 644 1295 q 614 1245 634 1273 q 569 1187 593 1217 q 519 1131 545 1157 q 474 1085 494 1104 l 410 1085 l 410 1101 q 454 1175 432 1135 q 494 1251 476 1215 q 521 1308 513 1287 l 644 1308 m 441 1308 l 441 1295 q 411 1244 430 1272 q 368 1189 392 1217 q 318 1134 345 1160 q 267 1085 292 1107 l 208 1085 l 208 1101 q 251 1176 229 1137 q 291 1251 273 1215 q 318 1308 309 1286 l 441 1308 z "},"ű":{"ha":644,"x_min":85,"x_max":600,"o":"m 556 749 l 556 0 l 458 0 l 444 104 l 436 104 q 396 41 420 67 q 341 1 372 15 q 271 -14 310 -14 q 164 19 205 -14 q 104 113 123 52 q 85 258 85 174 l 85 749 l 209 749 l 209 286 q 231 143 209 189 q 298 97 252 97 q 378 125 349 97 q 420 210 407 153 q 433 353 433 267 l 433 749 l 556 749 m 600 1064 l 600 1051 q 569 1001 589 1029 q 524 943 549 973 q 475 887 500 913 q 429 842 450 861 l 366 842 l 366 857 q 409 931 387 891 q 450 1007 431 971 q 476 1064 468 1044 l 600 1064 m 396 1064 l 396 1051 q 366 1001 385 1028 q 323 945 347 974 q 274 890 300 917 q 222 842 248 864 l 163 842 l 163 857 q 206 932 184 893 q 246 1007 228 972 q 273 1064 264 1042 l 396 1064 z "},"Ų":{"ha":735,"x_min":91,"x_max":644,"o":"m 429 -162 q 445 -210 429 -194 q 489 -225 460 -225 q 517 -222 503 -225 q 538 -216 531 -219 l 538 -302 q 503 -311 524 -308 q 463 -313 483 -313 q 361 -279 395 -313 q 328 -182 328 -245 q 341 -115 328 -148 q 378 -53 355 -83 q 433 1 402 -24 l 560 56 q 480 -35 509 4 q 440 -103 452 -73 q 429 -162 429 -134 m 644 991 l 644 314 q 612 128 644 201 q 519 21 581 56 q 368 -14 458 -14 q 162 66 233 -14 q 91 313 91 146 l 91 991 l 220 991 l 220 314 q 258 152 220 201 q 369 102 297 102 q 449 123 417 102 q 498 191 481 144 q 515 315 515 238 l 515 991 l 644 991 z "},"ų":{"ha":644,"x_min":85,"x_max":564,"o":"m 556 749 l 556 0 l 458 0 l 444 104 l 436 104 q 396 41 420 67 q 341 1 372 15 q 271 -14 310 -14 q 164 19 205 -14 q 104 113 123 52 q 85 258 85 174 l 85 749 l 209 749 l 209 286 q 231 143 209 189 q 298 97 252 97 q 378 125 349 97 q 420 210 407 153 q 433 353 433 267 l 433 749 l 556 749 m 457 -159 q 473 -209 457 -192 q 518 -227 489 -227 q 545 -223 534 -227 q 564 -218 556 -220 l 564 -301 q 534 -310 551 -307 q 494 -313 516 -313 q 391 -279 425 -313 q 357 -182 357 -245 q 370 -113 357 -148 q 408 -45 382 -78 q 471 18 434 -12 l 541 0 q 475 -84 494 -47 q 457 -159 457 -121 z "},"Ŵ":{"ha":1010,"x_min":5,"x_max":1006,"o":"m 1006 991 l 804 0 l 652 0 l 532 604 q 527 641 530 620 q 520 687 524 661 q 513 742 517 712 q 505 806 509 772 q 499 758 502 783 q 493 707 496 732 q 485 655 489 681 q 476 606 481 630 l 358 0 l 208 0 l 5 991 l 133 991 l 249 396 q 261 327 256 361 q 272 261 267 293 q 281 200 277 229 q 288 149 286 172 q 296 212 292 180 q 307 276 301 244 q 317 338 312 308 q 327 393 322 368 l 448 991 l 564 991 l 681 395 q 691 339 686 368 q 701 279 696 310 q 711 216 706 249 q 720 149 715 183 q 731 235 724 192 q 744 318 737 277 q 758 396 751 359 l 876 991 l 1006 991 m 564 1307 q 600 1240 578 1276 q 646 1167 622 1203 q 692 1100 670 1131 l 692 1085 l 622 1085 q 565 1145 594 1112 q 505 1215 536 1178 q 445 1143 475 1179 q 390 1085 414 1108 l 319 1085 l 319 1100 q 367 1168 342 1131 q 412 1242 391 1205 q 447 1307 433 1278 l 564 1307 z "},"ŵ":{"ha":857,"x_min":12,"x_max":846,"o":"m 540 0 l 456 442 q 449 484 452 462 q 443 527 446 505 q 436 570 439 549 q 431 611 433 591 l 427 611 q 421 568 425 590 q 415 524 418 546 q 408 482 412 503 q 401 442 405 461 l 313 0 l 172 0 l 12 749 l 135 749 l 208 385 q 221 308 215 348 q 234 229 228 269 q 244 150 239 189 l 248 150 q 255 201 252 174 q 263 256 259 227 q 273 316 267 285 q 285 379 278 347 l 360 749 l 499 749 l 573 376 q 585 311 579 347 q 597 235 591 275 q 609 150 603 194 l 613 150 q 619 201 615 174 q 627 259 623 228 q 638 323 632 290 l 725 749 l 846 749 l 682 0 l 540 0 m 486 1063 q 522 996 500 1033 q 568 923 544 960 q 614 857 592 887 l 614 842 l 544 842 q 487 901 516 868 q 427 972 458 935 q 367 900 397 935 q 312 842 336 865 l 241 842 l 241 857 q 289 925 264 888 q 334 998 313 962 q 369 1063 355 1035 l 486 1063 z "},"Ŷ":{"ha":564,"x_min":0,"x_max":564,"o":"m 283 534 l 431 991 l 564 991 l 346 385 l 346 0 l 218 0 l 218 382 l 0 991 l 134 991 l 283 534 m 339 1307 q 376 1240 354 1276 q 421 1167 397 1203 q 468 1100 446 1131 l 468 1085 l 397 1085 q 341 1145 370 1112 q 281 1215 312 1178 q 220 1143 250 1179 q 165 1085 190 1108 l 94 1085 l 94 1100 q 142 1168 118 1131 q 188 1242 166 1205 q 222 1307 209 1278 l 339 1307 z "},"ŷ":{"ha":534,"x_min":7,"x_max":528,"o":"m 7 749 l 136 749 l 237 330 q 248 276 243 302 q 258 223 254 249 q 267 172 263 197 l 272 172 q 284 247 277 208 q 303 330 292 286 l 401 749 l 528 749 l 306 -108 q 256 -237 285 -187 q 190 -310 228 -287 q 99 -334 151 -334 q 64 -330 81 -334 q 27 -322 46 -327 l 27 -212 q 54 -220 40 -217 q 81 -222 68 -222 q 125 -210 107 -222 q 157 -167 143 -197 q 186 -83 172 -137 l 208 6 l 7 749 m 324 1063 q 361 996 339 1033 q 407 923 382 960 q 453 857 431 887 l 453 842 l 382 842 q 326 901 355 868 q 266 972 297 935 q 205 900 235 935 q 151 842 175 865 l 79 842 l 79 857 q 127 925 103 888 q 173 998 151 962 q 208 1063 194 1035 l 324 1063 z "},"Ÿ":{"ha":564,"x_min":0,"x_max":564,"o":"m 283 534 l 431 991 l 564 991 l 346 385 l 346 0 l 218 0 l 218 382 l 0 991 l 134 991 l 283 534 m 102 1175 q 120 1231 102 1213 q 165 1249 138 1249 q 211 1230 193 1249 q 229 1175 229 1211 q 211 1120 229 1139 q 165 1101 193 1101 q 120 1119 138 1101 q 102 1175 102 1138 m 332 1175 q 350 1231 332 1213 q 396 1249 368 1249 q 442 1230 424 1249 q 460 1175 460 1211 q 442 1120 460 1139 q 396 1101 424 1101 q 350 1120 368 1101 q 332 1175 332 1139 z "},"Ź":{"ha":521,"x_min":35,"x_max":492,"o":"m 492 0 l 35 0 l 35 97 l 346 878 l 41 878 l 41 991 l 484 991 l 484 894 l 172 115 l 492 115 l 492 0 m 454 1307 l 454 1295 q 417 1245 439 1273 q 368 1188 395 1217 q 315 1132 342 1159 q 267 1085 288 1105 l 184 1085 l 184 1101 q 233 1174 211 1139 q 274 1242 256 1209 q 308 1307 293 1276 l 454 1307 z "},"ź":{"ha":436,"x_min":33,"x_max":420,"o":"m 407 0 l 33 0 l 33 82 l 262 643 l 48 643 l 48 749 l 397 749 l 397 661 l 173 104 l 407 104 l 407 0 m 420 1063 l 420 1051 q 383 1002 406 1029 q 334 945 361 974 q 281 888 308 916 q 233 842 254 861 l 151 842 l 151 858 q 199 930 177 895 q 240 999 222 966 q 274 1063 259 1032 l 420 1063 z "},"Ż":{"ha":521,"x_min":35,"x_max":492,"o":"m 492 0 l 35 0 l 35 97 l 346 878 l 41 878 l 41 991 l 484 991 l 484 894 l 172 115 l 492 115 l 492 0 m 271 1275 q 324 1253 307 1275 q 340 1192 340 1231 q 323 1131 340 1152 q 271 1109 305 1109 q 218 1131 237 1109 q 199 1192 199 1152 q 217 1254 199 1232 q 271 1275 235 1275 z "},"ż":{"ha":436,"x_min":33,"x_max":407,"o":"m 407 0 l 33 0 l 33 82 l 262 643 l 48 643 l 48 749 l 397 749 l 397 661 l 173 104 l 407 104 l 407 0 m 235 1033 q 289 1011 272 1033 q 305 949 305 989 q 288 888 305 910 q 235 867 270 867 q 182 888 201 867 q 163 949 163 910 q 181 1011 163 990 q 235 1033 199 1033 z "},"Ž":{"ha":521,"x_min":35,"x_max":492,"o":"m 492 0 l 35 0 l 35 97 l 346 878 l 41 878 l 41 991 l 484 991 l 484 894 l 172 115 l 492 115 l 492 0 m 203 1085 q 168 1152 189 1116 q 122 1225 146 1189 q 75 1293 98 1262 l 75 1307 l 146 1307 q 202 1248 172 1283 q 262 1177 232 1213 q 320 1245 296 1218 q 378 1307 345 1273 l 448 1307 l 448 1293 q 404 1228 428 1264 q 356 1154 379 1192 q 319 1085 334 1116 l 203 1085 z "},"ž":{"ha":436,"x_min":33,"x_max":413,"o":"m 407 0 l 33 0 l 33 82 l 262 643 l 48 643 l 48 749 l 397 749 l 397 661 l 173 104 l 407 104 l 407 0 m 169 842 q 133 909 155 872 q 88 982 112 945 q 41 1049 64 1019 l 41 1063 l 112 1063 q 167 1005 137 1040 q 227 934 197 970 q 286 1002 261 975 q 343 1063 310 1029 l 413 1063 l 413 1049 q 369 984 393 1021 q 322 910 345 948 q 284 842 299 873 l 169 842 z "},"ſ":{"ha":328,"x_min":96,"x_max":387,"o":"m 291 956 q 236 920 250 956 q 220 798 221 885 l 220 0 l 96 0 l 96 792 q 113 941 96 881 q 168 1032 129 1001 q 271 1063 206 1063 q 329 1057 302 1063 q 387 1040 356 1052 l 357 942 q 323 952 340 948 q 291 956 306 956 z "},"ƒ":{"ha":567,"x_min":55,"x_max":517,"o":"m 387 1006 q 450 999 420 1006 q 517 976 481 992 l 485 880 q 446 894 465 889 q 410 899 427 899 q 352 864 368 899 q 336 749 336 829 l 336 659 l 465 659 l 465 555 l 336 555 l 336 -66 q 319 -214 336 -154 q 263 -303 302 -273 q 154 -334 223 -334 q 101 -330 125 -334 q 55 -321 77 -326 l 55 -214 q 96 -223 77 -220 q 134 -226 116 -226 q 195 -192 177 -226 q 213 -88 213 -159 l 213 555 l 114 555 l 114 622 l 213 661 l 213 747 q 231 893 213 836 q 288 978 249 951 q 387 1006 326 1006 z "},"Ǻ":{"ha":644,"x_min":0,"x_max":644,"o":"m 0 0 l 233 878 q 189 917 205 891 q 172 979 172 942 q 212 1082 172 1042 q 319 1122 253 1122 q 426 1083 384 1122 q 467 980 467 1044 q 450 917 467 943 q 406 878 433 891 l 644 0 l 505 0 l 443 254 l 200 254 l 139 0 l 0 0 m 222 370 l 418 370 l 345 671 q 334 726 339 699 q 326 776 329 753 q 320 814 322 799 q 317 788 319 802 q 312 759 315 774 q 307 728 309 744 q 302 699 304 713 l 222 370 m 321 907 q 372 927 352 907 q 393 979 393 947 q 373 1030 393 1010 q 321 1050 354 1050 q 267 1030 288 1050 q 247 979 247 1010 q 266 927 247 947 q 321 907 284 907 m 244 1158 l 244 1172 q 305 1246 283 1218 q 339 1294 327 1274 q 361 1332 352 1313 l 511 1332 l 511 1322 q 479 1284 500 1305 q 432 1240 458 1262 q 381 1196 407 1217 q 336 1158 356 1175 l 244 1158 z "},"ǻ":{"ha":589,"x_min":46,"x_max":503,"o":"m 303 762 q 456 696 408 762 q 503 502 503 629 l 503 0 l 411 0 l 392 105 l 389 105 q 345 40 370 66 q 288 0 320 14 q 215 -14 256 -14 q 119 18 156 -14 q 64 100 81 50 q 46 210 46 151 q 111 383 46 322 q 293 450 175 444 l 380 454 l 380 500 q 357 622 380 583 q 282 661 334 661 q 215 649 251 661 q 138 613 180 638 l 101 706 q 197 748 145 734 q 303 762 248 762 m 381 367 l 317 363 q 208 321 243 359 q 172 214 172 284 q 195 117 172 149 q 259 86 218 86 q 349 141 316 86 q 381 293 381 197 l 381 367 m 303 1031 q 251 1011 271 1031 q 230 960 230 991 q 248 909 230 928 q 303 889 267 889 q 356 908 336 889 q 376 960 376 928 q 356 1011 376 991 q 303 1031 337 1031 m 302 1103 q 379 1085 346 1103 q 433 1036 413 1067 q 453 961 453 1004 q 412 857 453 897 q 302 817 370 817 q 195 856 235 817 q 155 960 155 895 q 196 1063 155 1024 q 302 1103 236 1103 m 501 1326 l 501 1316 q 450 1254 484 1290 q 381 1186 416 1219 q 323 1135 347 1154 l 232 1135 l 232 1149 q 286 1221 264 1191 q 322 1276 307 1251 q 349 1326 337 1301 l 501 1326 z "},"Ǽ":{"ha":877,"x_min":-3,"x_max":814,"o":"m 814 0 l 406 0 l 406 299 l 222 299 l 137 0 l -3 0 l 296 991 l 814 991 l 814 878 l 534 878 l 534 574 l 796 574 l 796 460 l 534 460 l 534 115 l 814 115 l 814 0 m 252 415 l 408 415 l 408 876 l 383 876 l 252 415 m 647 1307 l 647 1295 q 610 1245 633 1273 q 562 1188 588 1217 q 508 1132 535 1159 q 460 1085 481 1105 l 378 1085 l 378 1101 q 427 1174 404 1139 q 468 1242 449 1209 q 501 1307 486 1276 l 647 1307 z "},"ǽ":{"ha":911,"x_min":46,"x_max":856,"o":"m 625 761 q 755 717 704 761 q 831 598 806 673 q 856 429 856 524 l 856 348 l 500 348 q 542 153 502 217 q 660 89 582 89 q 744 101 702 89 q 827 140 785 114 l 827 34 q 744 -2 788 10 q 648 -14 700 -14 q 555 4 598 -14 q 479 55 512 21 q 427 136 446 88 q 373 52 404 85 q 306 2 343 18 q 223 -14 269 -14 q 123 18 162 -14 q 65 100 83 49 q 46 210 46 151 q 75 337 46 286 q 160 418 104 389 q 294 450 215 446 l 380 454 l 380 503 q 356 621 380 582 q 283 661 332 661 q 216 649 252 661 q 139 613 180 638 l 101 707 q 189 747 141 731 q 292 762 237 762 q 393 737 353 762 q 453 659 432 711 q 524 735 481 709 q 625 761 567 761 m 381 366 l 317 363 q 207 322 243 359 q 172 214 172 286 q 194 118 172 150 q 259 87 217 87 q 325 111 297 87 q 367 181 352 136 q 381 288 381 227 l 381 366 m 624 660 q 538 607 570 660 q 501 443 505 554 l 741 443 q 729 555 741 506 q 690 632 716 604 q 624 660 665 660 m 658 1063 l 658 1051 q 621 1002 644 1029 q 572 945 599 974 q 519 888 546 916 q 471 842 492 861 l 389 842 l 389 858 q 437 930 415 895 q 478 999 460 966 q 512 1063 497 1032 l 658 1063 z "},"Ǿ":{"ha":777,"x_min":70,"x_max":710,"o":"m 710 497 q 690 280 710 375 q 630 120 670 185 q 530 20 590 54 q 391 -14 471 -14 q 295 2 338 -14 q 217 50 252 18 l 159 -69 l 85 -35 l 158 112 q 91 280 111 184 q 70 498 70 376 q 106 780 70 667 q 215 950 143 893 q 391 1006 286 1006 q 489 989 444 1006 q 570 937 534 971 l 627 1048 l 701 1012 l 629 871 q 690 712 670 806 q 710 497 710 618 m 579 497 q 573 622 579 565 q 554 724 567 680 l 271 161 q 323 115 294 130 q 390 99 353 99 q 495 143 453 99 q 558 277 537 188 q 579 497 579 366 m 201 497 q 209 360 201 421 q 231 254 216 300 l 517 821 q 463 876 494 859 q 391 893 431 893 q 286 848 328 893 q 222 715 243 804 q 201 497 201 627 m 587 1307 l 587 1295 q 551 1245 573 1273 q 502 1188 528 1217 q 449 1132 475 1159 q 400 1085 422 1105 l 318 1085 l 318 1101 q 367 1174 345 1139 q 408 1242 389 1209 q 441 1307 427 1276 l 587 1307 z "},"ǿ":{"ha":632,"x_min":59,"x_max":574,"o":"m 574 375 q 544 164 574 251 q 456 32 513 77 q 315 -14 398 -14 q 247 -3 278 -14 q 189 27 215 7 l 132 -92 l 60 -57 l 132 84 q 77 211 94 138 q 59 375 59 283 q 125 664 59 565 q 317 762 191 762 q 387 751 355 762 q 446 716 419 740 l 497 817 l 568 782 l 507 658 q 557 536 541 607 q 574 375 574 465 m 181 374 q 186 281 181 323 q 199 211 191 240 l 403 617 q 365 649 387 638 q 317 659 344 659 q 213 588 245 659 q 181 374 181 517 m 454 375 q 450 462 454 423 q 438 529 445 500 l 237 125 q 272 97 252 106 q 316 87 292 87 q 395 120 364 87 q 440 216 425 152 q 454 375 454 279 m 513 1063 l 513 1051 q 477 1002 499 1029 q 428 945 454 974 q 375 888 401 916 q 326 842 348 861 l 244 842 l 244 858 q 293 930 271 895 q 334 999 315 966 q 368 1063 353 1032 l 513 1063 z "},"Ș":{"ha":580,"x_min":52,"x_max":530,"o":"m 530 275 q 496 125 530 190 q 403 23 463 60 q 262 -14 343 -14 q 186 -9 223 -14 q 116 6 150 -4 q 52 31 83 16 l 52 164 q 155 121 100 136 q 256 106 210 106 q 334 127 303 106 q 382 184 366 149 q 399 263 399 220 q 385 340 399 309 q 338 399 371 372 q 249 457 306 427 q 170 507 205 481 q 110 564 135 532 q 72 639 85 596 q 58 741 58 682 q 90 880 57 821 q 181 973 122 940 q 317 1006 240 1006 q 428 991 375 1006 q 522 955 481 977 l 482 838 q 398 874 439 863 q 321 886 357 886 q 249 868 279 886 q 203 819 219 850 q 188 747 188 788 q 202 668 188 699 q 249 610 216 636 q 339 553 282 585 q 445 480 403 519 q 509 391 488 441 q 530 275 530 341 m 345 -85 l 345 -98 q 320 -170 335 -133 q 287 -243 305 -208 q 250 -307 269 -278 l 178 -307 l 178 -291 q 194 -228 185 -266 q 210 -152 203 -191 q 220 -85 218 -113 l 345 -85 z "},"ș":{"ha":480,"x_min":45,"x_max":437,"o":"m 437 203 q 411 85 437 134 q 337 12 386 37 q 220 -14 289 -14 q 123 -2 168 -14 q 45 28 79 10 l 45 153 q 122 112 77 129 q 214 96 167 96 q 288 122 262 96 q 315 198 315 149 q 304 248 315 227 q 268 291 293 270 q 199 336 243 311 q 118 395 153 363 q 64 466 83 426 q 45 563 45 507 q 103 708 45 653 q 258 762 161 762 q 350 749 307 762 q 434 711 394 736 l 392 614 q 329 646 362 634 q 261 659 296 659 q 190 634 216 659 q 164 567 164 609 q 175 518 164 538 q 211 478 185 498 q 281 431 237 458 q 362 372 328 402 q 417 301 397 341 q 437 203 437 261 m 296 -85 l 296 -98 q 271 -170 286 -133 q 238 -243 256 -208 q 201 -307 220 -278 l 129 -307 l 129 -291 q 145 -228 136 -266 q 161 -152 154 -191 q 171 -85 169 -113 l 296 -85 z "},"ˆ":{"ha":485,"x_min":56,"x_max":429,"o":"m 300 1063 q 337 996 315 1033 q 383 923 359 960 q 429 857 407 887 l 429 842 l 359 842 q 302 901 331 868 q 242 972 273 935 q 181 900 212 935 q 127 842 151 865 l 56 842 l 56 857 q 103 925 79 888 q 149 998 127 962 q 184 1063 170 1035 l 300 1063 z "},"ˇ":{"ha":484,"x_min":56,"x_max":428,"o":"m 184 842 q 148 909 170 872 q 103 982 127 945 q 56 1049 79 1019 l 56 1063 l 127 1063 q 182 1005 152 1040 q 242 934 212 970 q 300 1002 276 975 q 358 1063 325 1029 l 428 1063 l 428 1049 q 384 984 408 1021 q 337 910 359 948 q 299 842 314 873 l 184 842 z "},"ˉ":{"ha":456,"x_min":56,"x_max":400,"o":"m 400 947 l 400 854 l 56 854 l 56 947 l 400 947 z "},"˘":{"ha":461,"x_min":56,"x_max":406,"o":"m 406 1036 q 382 933 405 977 q 320 867 359 890 q 228 844 280 844 q 104 892 151 844 q 56 1036 58 940 l 134 1036 q 149 981 138 1003 q 181 947 161 958 q 231 936 202 936 q 279 947 258 936 q 312 980 300 958 q 327 1036 324 1002 l 406 1036 z "},"˙":{"ha":253,"x_min":56,"x_max":197,"o":"m 127 1033 q 181 1011 164 1033 q 197 949 197 989 q 180 888 197 910 q 127 867 162 867 q 75 888 94 867 q 56 949 56 910 q 74 1011 56 990 q 127 1033 92 1033 z "},"˚":{"ha":407,"x_min":56,"x_max":351,"o":"m 203 846 q 96 885 136 846 q 56 988 56 924 q 96 1092 56 1053 q 203 1131 136 1131 q 310 1092 268 1131 q 351 990 351 1053 q 311 886 351 926 q 203 846 271 846 m 205 918 q 257 937 237 918 q 277 988 277 956 q 258 1040 277 1020 q 205 1061 239 1061 q 152 1040 172 1061 q 131 989 131 1020 q 150 938 131 957 q 205 918 168 918 z "},"˛":{"ha":318,"x_min":56,"x_max":263,"o":"m 156 -159 q 172 -209 156 -192 q 217 -227 188 -227 q 244 -223 233 -227 q 263 -218 255 -220 l 263 -301 q 233 -310 250 -307 q 193 -313 215 -313 q 90 -279 124 -313 q 56 -182 56 -245 q 68 -113 56 -148 q 107 -45 81 -78 q 170 18 133 -12 l 239 0 q 174 -84 193 -47 q 156 -159 156 -121 z "},"˜":{"ha":529,"x_min":56,"x_max":473,"o":"m 56 842 q 65 906 58 874 q 85 962 73 937 q 120 1002 98 987 q 171 1017 141 1017 q 221 1005 197 1017 q 267 978 244 993 q 310 950 289 962 q 351 939 330 939 q 382 960 372 939 q 399 1018 393 981 l 473 1018 q 438 888 469 933 q 359 843 406 843 q 309 855 334 843 q 261 883 283 867 q 218 910 238 899 q 181 922 198 922 q 149 902 163 922 q 129 842 135 881 l 56 842 z "},"˝":{"ha":548,"x_min":56,"x_max":492,"o":"m 492 1064 l 492 1051 q 462 1001 482 1029 q 417 943 441 973 q 368 887 393 913 q 322 842 342 861 l 258 842 l 258 857 q 302 931 280 891 q 342 1007 324 971 q 369 1064 361 1044 l 492 1064 m 289 1064 l 289 1051 q 259 1001 278 1028 q 216 945 240 974 q 166 890 193 917 q 115 842 140 864 l 56 842 l 56 857 q 99 932 77 893 q 139 1007 121 972 q 166 1064 157 1042 l 289 1064 z "},"΄":{"ha":712,"x_min":301,"x_max":477,"o":"m 301 842 l 301 859 q 315 905 307 875 q 333 970 324 935 q 349 1036 342 1005 q 358 1081 355 1066 l 477 1081 l 477 1065 q 447 993 464 1032 q 412 915 431 954 q 375 842 393 876 l 301 842 z "},"΅":{"ha":699,"x_min":150,"x_max":549,"o":"m 445 1104 l 445 1090 q 425 1033 437 1065 q 397 967 413 1001 q 366 905 382 934 l 305 905 l 305 921 q 320 986 313 952 q 331 1050 326 1019 q 337 1104 336 1081 l 445 1104 m 212 981 q 255 961 238 981 q 273 905 273 941 q 255 850 273 869 q 212 831 238 831 q 167 850 184 831 q 150 905 150 869 q 167 961 150 941 q 212 981 184 981 m 486 981 q 531 962 513 981 q 549 905 549 943 q 531 851 549 871 q 486 831 513 831 q 443 851 460 831 q 425 906 425 870 q 443 962 425 943 q 486 981 460 981 z "},"Ά":{"ha":657,"x_min":0,"x_max":657,"o":"m 520 0 l 452 299 l 220 299 l 151 0 l 14 0 l 253 991 l 413 991 l 657 0 l 520 0 m 429 415 l 359 733 q 349 786 354 760 q 341 836 345 812 q 334 882 337 860 q 328 836 332 861 q 319 786 324 812 q 309 734 315 761 l 240 415 l 429 415 m 0 814 l 0 831 q 14 877 5 847 q 32 942 23 907 q 47 1008 41 977 q 57 1053 54 1038 l 176 1053 l 176 1038 q 146 965 163 1004 q 111 887 130 926 q 74 814 92 848 l 0 814 z "},"·":{"ha":319,"x_min":80,"x_max":239,"o":"m 80 663 q 100 731 80 707 q 160 754 121 754 q 218 732 197 754 q 239 663 239 710 q 218 593 239 616 q 160 571 196 571 q 101 594 123 571 q 80 663 80 618 z "},"Έ":{"ha":684,"x_min":-5,"x_max":622,"o":"m 623 0 l 218 0 l 218 991 l 623 991 l 623 879 l 347 879 l 347 574 l 605 574 l 605 460 l 347 460 l 347 115 l 623 115 l 623 0 m -5 799 l -5 816 q 9 862 1 832 q 27 927 18 892 q 43 993 36 962 q 52 1038 50 1023 l 171 1038 l 171 1023 q 141 950 158 989 q 106 872 125 911 q 69 799 87 833 l -5 799 z "},"Ή":{"ha":873,"x_min":-5,"x_max":774,"o":"m 775 0 l 646 0 l 646 460 l 350 460 l 350 0 l 221 0 l 221 991 l 350 991 l 350 576 l 646 576 l 646 991 l 775 991 l 775 0 m -5 799 l -5 816 q 9 862 1 832 q 27 927 18 892 q 43 993 36 962 q 52 1038 50 1023 l 171 1038 l 171 1023 q 141 950 158 989 q 106 872 125 911 q 69 799 87 833 l -5 799 z "},"Ί":{"ha":437,"x_min":-5,"x_max":340,"o":"m 211 0 l 211 991 l 340 991 l 340 0 l 211 0 m -5 799 l -5 816 q 9 862 1 832 q 27 927 18 892 q 43 993 36 962 q 52 1038 50 1023 l 171 1038 l 171 1023 q 141 950 158 989 q 106 872 125 911 q 69 799 87 833 l -5 799 z "},"Ό":{"ha":829,"x_min":-5,"x_max":762,"o":"m 763 497 q 745 295 763 388 q 688 132 726 201 q 590 25 650 63 q 444 -14 529 -14 q 295 26 357 -14 q 196 135 234 65 q 140 297 158 204 q 122 498 122 391 q 158 780 122 667 q 266 950 195 893 q 444 1006 338 1006 q 627 940 557 1006 q 730 759 697 874 q 763 497 763 644 m 256 497 q 277 279 256 368 q 340 147 298 191 q 442 102 382 102 q 545 146 504 102 q 607 277 587 189 q 628 497 628 366 q 582 792 628 694 q 444 891 536 891 q 339 847 381 891 q 277 714 298 802 q 256 497 256 627 m -5 799 l -5 816 q 9 862 1 832 q 27 927 18 892 q 43 993 36 962 q 52 1038 50 1023 l 171 1038 l 171 1023 q 141 950 158 989 q 106 872 125 911 q 69 799 87 833 l -5 799 z "},"Ύ":{"ha":753,"x_min":-5,"x_max":753,"o":"m 471 534 l 619 991 l 753 991 l 534 385 l 534 0 l 406 0 l 406 382 l 189 991 l 322 991 l 471 534 m -5 799 l -5 816 q 9 862 1 832 q 27 927 18 892 q 43 993 36 962 q 52 1038 50 1023 l 171 1038 l 171 1023 q 141 950 158 989 q 106 872 125 911 q 69 799 87 833 l -5 799 z "},"Ώ":{"ha":842,"x_min":-5,"x_max":804,"o":"m 452 891 q 347 853 390 891 q 282 740 304 815 q 260 548 260 664 q 276 367 260 449 q 321 220 291 285 q 398 109 352 156 l 398 0 l 96 0 l 96 115 l 279 115 q 199 222 233 159 q 147 370 165 286 q 128 561 128 455 q 166 809 128 710 q 277 957 204 907 q 452 1006 349 1006 q 625 956 553 1006 q 733 807 696 906 q 770 562 770 708 q 752 369 770 454 q 700 221 734 284 q 618 115 666 158 l 804 115 l 804 0 l 500 0 l 500 109 q 581 222 551 157 q 626 367 612 286 q 640 549 640 448 q 619 736 640 661 q 557 852 599 812 q 452 891 515 891 m -5 799 l -5 816 q 9 862 1 832 q 27 927 18 892 q 43 993 36 962 q 52 1038 50 1023 l 171 1038 l 171 1023 q 141 950 158 989 q 106 872 125 911 q 69 799 87 833 l -5 799 z "},"ΐ":{"ha":361,"x_min":-41,"x_max":358,"o":"m 210 749 l 210 186 q 224 117 210 138 q 266 96 237 96 q 306 102 285 96 q 338 115 326 107 l 338 10 q 290 -7 316 -1 q 233 -14 263 -14 q 151 6 183 -14 q 102 70 118 26 q 87 184 87 114 l 87 749 l 210 749 m 255 1104 l 255 1090 q 235 1033 248 1065 q 208 967 223 1001 q 176 905 192 934 l 115 905 l 115 921 q 130 986 123 952 q 141 1050 136 1019 q 147 1104 146 1081 l 255 1104 m 22 981 q 65 961 48 981 q 83 905 83 941 q 65 850 83 869 q 22 831 48 831 q -23 850 -5 831 q -40 905 -40 869 q -23 961 -40 941 q 22 981 -5 981 m 296 981 q 341 962 323 981 q 359 905 359 943 q 341 851 359 871 q 296 831 323 831 q 253 851 270 831 q 235 906 235 870 q 253 962 235 943 q 296 981 270 981 z "},"Α":{"ha":644,"x_min":0,"x_max":644,"o":"m 507 0 l 438 299 l 206 299 l 138 0 l 0 0 l 239 991 l 399 991 l 644 0 l 507 0 m 416 415 l 345 733 q 336 786 340 760 q 327 836 331 812 q 320 882 323 860 q 314 836 318 861 q 306 786 311 812 q 295 734 301 761 l 227 415 l 416 415 z "},"Β":{"ha":675,"x_min":99,"x_max":620,"o":"m 99 991 l 327 991 q 531 932 462 991 q 600 753 600 873 q 584 643 600 690 q 536 566 568 595 q 460 526 505 536 l 460 519 q 550 476 515 507 q 603 398 585 446 q 620 285 620 350 q 589 135 620 199 q 500 35 558 71 q 358 0 441 0 l 99 0 l 99 991 m 228 571 l 326 571 q 435 613 401 571 q 469 739 469 655 q 433 846 469 809 q 323 884 397 884 l 228 884 l 228 571 m 228 464 l 228 111 l 345 111 q 451 156 416 111 q 487 292 487 201 q 469 387 487 349 q 416 445 450 425 q 334 464 382 464 l 228 464 z "},"Γ":{"ha":522,"x_min":99,"x_max":508,"o":"m 508 991 l 508 877 l 228 877 l 228 0 l 99 0 l 99 991 l 508 991 z "},"Δ":{"ha":636,"x_min":16,"x_max":621,"o":"m 397 991 l 621 84 l 621 0 l 16 0 l 16 90 l 237 991 l 397 991 m 477 115 l 350 687 q 337 749 344 715 q 325 814 330 783 q 317 869 319 846 q 306 808 312 840 q 294 744 300 775 q 282 684 288 712 l 159 115 l 477 115 z "},"Ε":{"ha":564,"x_min":99,"x_max":503,"o":"m 503 0 l 99 0 l 99 991 l 503 991 l 503 879 l 228 879 l 228 574 l 486 574 l 486 460 l 228 460 l 228 115 l 503 115 l 503 0 z "},"Ζ":{"ha":521,"x_min":35,"x_max":492,"o":"m 492 0 l 35 0 l 35 97 l 346 878 l 41 878 l 41 991 l 484 991 l 484 894 l 172 115 l 492 115 l 492 0 z "},"Η":{"ha":751,"x_min":99,"x_max":653,"o":"m 653 0 l 524 0 l 524 460 l 228 460 l 228 0 l 99 0 l 99 991 l 228 991 l 228 576 l 524 576 l 524 991 l 653 991 l 653 0 z "},"Θ":{"ha":774,"x_min":67,"x_max":708,"o":"m 504 559 l 504 450 l 269 450 l 269 559 l 504 559 m 708 497 q 690 295 708 388 q 633 132 671 201 q 535 25 595 63 q 389 -14 474 -14 q 240 26 302 -14 q 141 135 179 65 q 85 297 103 204 q 67 498 67 391 q 103 780 67 667 q 211 950 140 893 q 389 1006 283 1006 q 572 940 502 1006 q 675 759 642 874 q 708 497 708 644 m 201 497 q 222 279 201 368 q 285 147 243 191 q 387 102 327 102 q 490 146 449 102 q 552 277 532 189 q 573 497 573 366 q 527 792 573 694 q 389 891 481 891 q 284 847 326 891 q 222 714 243 802 q 201 497 201 627 z "},"Ι":{"ha":325,"x_min":99,"x_max":228,"o":"m 99 0 l 99 991 l 228 991 l 228 0 l 99 0 z "},"Κ":{"ha":635,"x_min":99,"x_max":642,"o":"m 642 0 l 498 0 l 297 450 l 228 370 l 228 0 l 99 0 l 99 991 l 228 991 l 228 500 q 254 556 235 522 q 299 640 272 591 l 492 991 l 631 991 l 385 553 l 642 0 z "},"Λ":{"ha":632,"x_min":0,"x_max":632,"o":"m 387 991 l 632 0 l 498 0 l 342 670 q 330 738 336 706 q 320 797 324 770 q 315 844 316 823 q 307 788 311 817 q 297 730 302 759 q 286 672 292 701 l 136 0 l 0 0 l 242 991 l 387 991 z "},"Μ":{"ha":1008,"x_min":99,"x_max":911,"o":"m 448 0 l 218 814 l 212 814 q 217 732 215 769 q 220 667 219 695 q 220 618 220 638 l 220 0 l 99 0 l 99 991 l 279 991 l 503 203 l 507 203 l 730 991 l 911 991 l 911 0 l 787 0 l 787 617 q 788 667 787 638 q 790 733 789 696 q 793 814 792 770 l 789 814 l 559 0 l 448 0 z "},"Ν":{"ha":801,"x_min":99,"x_max":703,"o":"m 703 0 l 549 0 l 218 789 l 212 789 q 217 714 215 749 q 220 646 219 678 q 220 584 220 614 l 220 0 l 99 0 l 99 991 l 252 991 l 585 216 l 589 216 q 585 294 587 258 q 582 363 583 331 q 581 421 581 395 l 581 991 l 703 991 l 703 0 z "},"Ξ":{"ha":562,"x_min":56,"x_max":507,"o":"m 56 0 l 56 115 l 507 115 l 507 0 l 56 0 m 104 463 l 104 577 l 457 577 l 457 463 l 104 463 m 73 879 l 73 991 l 490 991 l 490 879 l 73 879 z "},"Ο":{"ha":774,"x_min":67,"x_max":708,"o":"m 708 497 q 690 295 708 388 q 633 132 671 201 q 535 25 595 63 q 389 -14 474 -14 q 240 26 302 -14 q 141 135 179 65 q 85 297 103 204 q 67 498 67 391 q 103 780 67 667 q 211 950 140 893 q 389 1006 283 1006 q 572 940 502 1006 q 675 759 642 874 q 708 497 708 644 m 201 497 q 222 279 201 368 q 285 147 243 191 q 387 102 327 102 q 490 146 449 102 q 552 277 532 189 q 573 497 573 366 q 527 792 573 694 q 389 891 481 891 q 284 847 326 891 q 222 714 243 802 q 201 497 201 627 z "},"Π":{"ha":744,"x_min":99,"x_max":646,"o":"m 99 0 l 99 991 l 646 991 l 646 0 l 518 0 l 518 877 l 228 877 l 228 0 l 99 0 z "},"Ρ":{"ha":626,"x_min":99,"x_max":583,"o":"m 295 991 q 513 919 442 991 q 583 697 583 846 q 565 562 583 621 q 511 463 547 503 q 420 401 475 422 q 291 380 365 380 l 228 380 l 228 0 l 99 0 l 99 991 l 295 991 m 289 880 l 228 880 l 228 493 l 279 493 q 378 513 340 493 q 435 579 416 534 q 454 696 454 624 q 413 837 454 793 q 289 880 373 880 z "},"Σ":{"ha":571,"x_min":41,"x_max":535,"o":"m 41 0 l 41 106 l 268 517 l 52 889 l 52 991 l 511 991 l 511 879 l 296 879 q 260 879 277 879 q 227 881 242 880 q 197 883 212 882 l 410 518 l 182 109 q 234 114 209 112 q 286 115 260 115 l 535 115 l 535 0 l 41 0 z "},"Τ":{"ha":541,"x_min":15,"x_max":525,"o":"m 334 0 l 205 0 l 205 877 l 15 877 l 15 991 l 525 991 l 525 877 l 334 877 l 334 0 z "},"Υ":{"ha":564,"x_min":0,"x_max":564,"o":"m 283 534 l 431 991 l 564 991 l 346 385 l 346 0 l 218 0 l 218 382 l 0 991 l 134 991 l 283 534 z "},"Φ":{"ha":899,"x_min":62,"x_max":836,"o":"m 512 1006 l 512 884 q 690 837 618 884 q 799 707 762 789 q 836 517 836 624 q 815 363 836 433 q 753 244 794 294 q 651 166 712 194 q 512 139 591 139 l 512 -14 l 387 -14 l 387 139 q 250 165 310 138 q 147 242 189 193 q 83 362 105 292 q 62 517 62 432 q 83 662 62 595 q 145 779 104 729 q 247 857 186 829 q 387 884 307 884 l 387 1006 l 512 1006 m 387 773 q 279 744 323 773 q 213 658 235 715 q 191 518 191 601 q 214 368 191 428 q 281 279 237 309 q 387 249 325 250 l 387 773 m 512 773 l 512 249 q 619 280 575 250 q 685 370 663 311 q 708 518 708 430 q 686 660 708 603 q 620 745 663 716 q 512 773 576 773 z "},"Χ":{"ha":573,"x_min":8,"x_max":566,"o":"m 566 0 l 429 0 l 292 393 l 142 0 l 8 0 l 220 515 l 32 991 l 165 991 l 292 630 l 419 991 l 554 991 l 365 509 l 566 0 z "},"Ψ":{"ha":901,"x_min":86,"x_max":816,"o":"m 816 991 l 816 671 q 800 507 816 578 q 747 389 783 437 q 654 317 711 342 q 513 293 596 293 l 513 0 l 389 0 l 389 293 q 249 316 307 293 q 155 386 191 340 q 103 502 119 433 q 86 663 86 572 l 86 991 l 215 991 l 215 661 q 228 527 215 585 q 279 438 241 470 q 389 407 317 407 l 389 991 l 513 991 l 513 407 q 616 433 578 408 q 671 513 654 458 q 688 661 688 569 l 688 991 l 816 991 z "},"Ω":{"ha":784,"x_min":37,"x_max":745,"o":"m 394 891 q 289 853 332 891 q 224 740 246 815 q 202 548 202 664 q 217 367 202 449 q 263 220 233 285 q 340 109 294 156 l 340 0 l 37 0 l 37 115 l 221 115 q 141 222 175 159 q 89 370 107 286 q 70 561 70 455 q 108 809 70 710 q 218 957 146 907 q 393 1006 291 1006 q 566 956 495 1006 q 674 807 637 906 q 711 562 711 708 q 693 369 711 454 q 642 221 675 284 q 560 115 608 158 l 745 115 l 745 0 l 441 0 l 441 109 q 523 222 492 157 q 567 367 553 286 q 581 549 581 448 q 561 736 581 661 q 499 852 541 812 q 394 891 457 891 z "},"Ϊ":{"ha":325,"x_min":-17,"x_max":341,"o":"m 99 0 l 99 991 l 228 991 l 228 0 l 99 0 m -17 1164 q 1 1220 -17 1202 q 46 1238 19 1238 q 92 1219 74 1238 q 109 1164 109 1200 q 92 1109 109 1128 q 46 1090 74 1090 q 1 1108 19 1090 q -17 1164 -17 1127 m 212 1164 q 231 1220 212 1202 q 277 1238 249 1238 q 323 1219 304 1238 q 341 1164 341 1200 q 323 1109 341 1128 q 277 1090 304 1090 q 230 1109 248 1090 q 212 1164 212 1128 z "},"Ϋ":{"ha":564,"x_min":0,"x_max":564,"o":"m 283 534 l 431 991 l 564 991 l 346 385 l 346 0 l 218 0 l 218 382 l 0 991 l 134 991 l 283 534 m 104 1160 q 122 1215 104 1197 q 168 1233 140 1233 q 213 1214 195 1233 q 231 1160 231 1196 q 213 1104 231 1123 q 168 1085 195 1085 q 122 1104 140 1085 q 104 1160 104 1122 m 334 1160 q 352 1215 334 1197 q 398 1233 370 1233 q 444 1214 426 1233 q 463 1160 463 1196 q 444 1104 463 1123 q 398 1085 426 1085 q 352 1104 370 1085 q 334 1160 334 1123 z "},"ά":{"ha":675,"x_min":58,"x_max":661,"o":"m 311 92 q 386 123 356 92 q 430 212 415 153 q 444 355 444 271 l 444 379 q 411 586 444 519 q 309 653 378 653 q 213 580 243 653 q 182 370 182 507 q 214 159 182 227 q 311 92 246 92 m 276 -14 q 115 85 172 -14 q 58 372 58 183 q 118 663 58 564 q 285 762 178 762 q 385 732 344 762 q 454 642 427 701 l 460 642 q 476 700 466 671 q 497 749 486 728 l 599 749 q 583 675 589 717 q 572 585 576 633 q 568 481 568 536 l 568 191 q 581 117 568 141 q 618 92 594 92 q 641 94 630 92 q 661 99 651 96 l 661 0 q 644 -7 655 -4 q 620 -12 632 -9 q 597 -14 607 -14 q 503 15 536 -14 q 456 107 469 43 l 446 107 q 403 42 429 70 q 346 1 378 15 q 276 -14 314 -14 m 280 842 l 280 859 q 294 905 286 875 q 312 970 303 935 q 328 1036 321 1005 q 337 1081 334 1066 l 456 1081 l 456 1065 q 426 993 443 1032 q 391 915 410 954 q 354 842 372 876 l 280 842 z "},"έ":{"ha":501,"x_min":53,"x_max":467,"o":"m 363 440 l 363 343 l 315 343 q 238 328 268 343 q 193 284 208 313 q 178 213 178 255 q 193 147 178 174 q 234 107 208 121 q 297 94 261 94 q 381 107 338 94 q 460 144 424 120 l 460 32 q 378 -3 421 8 q 277 -14 336 -14 q 107 48 161 -14 q 53 206 53 109 q 89 328 53 279 q 189 394 124 378 l 189 400 q 109 463 136 419 q 82 570 82 507 q 109 671 82 628 q 182 739 135 715 q 293 762 229 762 q 380 750 338 762 q 467 712 423 739 l 420 617 q 361 647 391 637 q 302 657 330 657 q 228 631 253 657 q 203 559 203 604 q 233 470 203 500 q 324 440 263 440 l 363 440 m 237 842 l 237 859 q 251 905 242 875 q 269 970 260 935 q 284 1036 277 1005 q 294 1081 291 1066 l 412 1081 l 412 1065 q 383 993 399 1032 q 348 915 366 954 q 311 842 329 876 l 237 842 z "},"ή":{"ha":644,"x_min":87,"x_max":558,"o":"m 374 762 q 475 734 434 762 q 537 649 516 706 q 558 506 558 592 l 558 -332 l 435 -332 l 435 477 q 413 608 435 565 q 345 651 392 651 q 269 624 298 651 q 225 539 239 597 q 211 386 211 480 l 211 0 l 87 0 l 87 749 l 186 749 l 200 644 l 208 644 q 248 707 223 680 q 304 748 272 733 q 374 762 336 762 m 275 842 l 275 859 q 290 905 281 875 q 307 970 298 935 q 323 1036 316 1005 q 332 1081 330 1066 l 451 1081 l 451 1065 q 421 993 438 1032 q 386 915 405 954 q 349 842 368 876 l 275 842 z "},"ί":{"ha":361,"x_min":87,"x_max":338,"o":"m 210 749 l 210 186 q 224 117 210 138 q 266 96 237 96 q 306 102 285 96 q 338 115 326 107 l 338 10 q 290 -7 316 -1 q 233 -14 263 -14 q 151 6 183 -14 q 102 70 118 26 q 87 184 87 114 l 87 749 l 210 749 m 105 842 l 105 859 q 119 905 111 875 q 137 970 128 935 q 153 1036 146 1005 q 162 1081 159 1066 l 281 1081 l 281 1065 q 251 993 268 1032 q 216 915 235 954 q 179 842 197 876 l 105 842 z "},"ΰ":{"ha":631,"x_min":85,"x_max":571,"o":"m 316 -12 q 182 22 233 -11 q 109 128 132 55 q 85 322 86 201 l 85 749 l 209 749 l 209 311 q 230 153 209 210 q 316 97 251 97 q 416 165 385 97 q 448 378 448 234 q 439 561 448 471 q 408 749 429 650 l 530 749 q 554 618 545 675 q 567 506 563 561 q 571 380 571 450 q 506 86 571 184 q 316 -12 440 -12 m 410 1104 l 410 1090 q 390 1033 402 1065 q 362 967 378 1001 q 330 905 347 934 l 270 905 l 270 921 q 284 986 278 952 q 296 1050 291 1019 q 302 1104 300 1081 l 410 1104 m 176 981 q 220 961 203 981 q 237 905 237 941 q 220 850 237 869 q 176 831 203 831 q 132 850 149 831 q 115 905 115 869 q 132 961 115 941 q 176 981 149 981 m 451 981 q 495 962 477 981 q 513 905 513 943 q 495 851 513 871 q 451 831 477 831 q 407 851 425 831 q 390 906 390 870 q 407 962 390 943 q 451 981 425 981 z "},"α":{"ha":675,"x_min":58,"x_max":661,"o":"m 311 92 q 386 123 356 92 q 430 212 415 153 q 444 355 444 271 l 444 379 q 411 586 444 519 q 309 653 378 653 q 213 580 243 653 q 182 370 182 507 q 214 159 182 227 q 311 92 246 92 m 276 -14 q 115 85 172 -14 q 58 372 58 183 q 118 663 58 564 q 285 762 178 762 q 385 732 344 762 q 454 642 427 701 l 460 642 q 476 700 466 671 q 497 749 486 728 l 599 749 q 583 675 589 717 q 572 585 576 633 q 568 481 568 536 l 568 191 q 581 117 568 141 q 618 92 594 92 q 641 94 630 92 q 661 99 651 96 l 661 0 q 644 -7 655 -4 q 620 -12 632 -9 q 597 -14 607 -14 q 503 15 536 -14 q 456 107 469 43 l 446 107 q 403 42 429 70 q 346 1 378 15 q 276 -14 314 -14 z "},"β":{"ha":658,"x_min":87,"x_max":602,"o":"m 333 1063 q 459 1030 408 1063 q 536 940 510 998 q 563 804 563 882 q 527 634 563 694 q 418 562 491 575 l 418 557 q 558 475 515 543 q 602 283 602 408 q 574 124 602 190 q 494 22 547 58 q 366 -14 441 -14 q 279 -1 316 -14 q 211 33 243 11 l 211 -332 l 87 -332 l 87 774 q 117 931 87 867 q 201 1029 146 995 q 333 1063 256 1063 m 330 956 q 266 934 292 956 q 225 870 239 912 q 211 768 211 829 l 211 144 q 271 110 235 123 q 338 96 307 96 q 444 146 410 96 q 478 296 478 197 q 461 407 478 362 q 411 474 444 452 q 326 497 378 497 l 298 497 l 298 606 l 319 606 q 411 650 382 606 q 440 787 440 694 q 411 913 440 870 q 330 956 382 956 z "},"γ":{"ha":531,"x_min":5,"x_max":524,"o":"m 524 749 l 342 40 q 316 -85 328 -19 q 297 -214 304 -151 q 290 -332 290 -278 l 161 -332 q 167 -231 161 -291 q 183 -110 174 -171 q 203 -7 193 -50 l 5 749 l 136 749 l 213 427 q 235 334 224 380 q 254 244 246 288 q 266 160 262 201 l 271 160 q 283 242 276 200 q 301 329 291 283 q 321 425 311 375 l 397 749 l 524 749 z "},"δ":{"ha":631,"x_min":56,"x_max":574,"o":"m 355 1060 q 466 1044 414 1060 q 557 1004 517 1029 l 512 901 q 433 941 471 928 q 357 953 394 953 q 281 930 309 953 q 253 867 253 907 q 269 806 253 836 q 316 745 286 776 q 391 675 347 714 q 492 568 451 623 q 553 450 532 513 q 574 306 574 387 q 544 140 574 212 q 456 27 514 68 q 313 -14 398 -14 q 170 27 227 -14 q 85 138 113 67 q 56 298 56 208 q 82 441 56 376 q 155 555 107 507 q 267 630 202 604 q 195 705 226 668 q 149 781 165 742 q 132 865 132 820 q 195 1009 132 959 q 355 1060 257 1060 m 334 567 q 250 507 284 547 q 199 414 216 467 q 182 302 182 361 q 197 197 182 245 q 242 121 212 150 q 315 92 271 92 q 388 118 358 92 q 433 191 418 143 q 449 309 449 239 q 422 447 449 384 q 334 567 395 510 z "},"ε":{"ha":501,"x_min":53,"x_max":467,"o":"m 363 440 l 363 343 l 315 343 q 238 328 268 343 q 193 284 208 313 q 178 213 178 255 q 193 147 178 174 q 234 107 208 121 q 297 94 261 94 q 381 107 338 94 q 460 144 424 120 l 460 32 q 378 -3 421 8 q 277 -14 336 -14 q 107 48 161 -14 q 53 206 53 109 q 89 328 53 279 q 189 394 124 378 l 189 400 q 109 463 136 419 q 82 570 82 507 q 109 671 82 628 q 182 739 135 715 q 293 762 229 762 q 380 750 338 762 q 467 712 423 739 l 420 617 q 361 647 391 637 q 302 657 330 657 q 228 631 253 657 q 203 559 203 604 q 233 470 203 500 q 324 440 263 440 l 363 440 z "},"ζ":{"ha":494,"x_min":58,"x_max":465,"o":"m 464 -71 q 441 -172 464 -117 q 386 -272 418 -227 l 260 -272 q 301 -208 282 -241 q 330 -145 319 -175 q 341 -95 341 -115 q 331 -52 341 -71 q 295 -16 320 -33 q 227 18 270 1 q 129 80 166 45 q 75 171 92 115 q 58 315 58 227 q 76 478 58 399 q 129 634 94 557 q 217 791 164 711 q 338 958 269 871 q 304 954 323 956 q 266 950 286 951 q 222 949 245 949 l 83 949 l 83 1055 l 465 1055 l 465 968 q 350 813 402 891 q 261 656 298 735 q 204 494 224 576 q 184 323 184 411 q 194 235 184 271 q 232 171 203 198 q 315 119 260 144 q 388 80 354 103 q 443 21 422 57 q 464 -71 464 -15 z "},"η":{"ha":644,"x_min":87,"x_max":558,"o":"m 374 762 q 475 734 434 762 q 537 649 516 706 q 558 506 558 592 l 558 -332 l 435 -332 l 435 477 q 413 608 435 565 q 345 651 392 651 q 269 624 298 651 q 225 539 239 597 q 211 386 211 480 l 211 0 l 87 0 l 87 749 l 186 749 l 200 644 l 208 644 q 248 707 223 680 q 304 748 272 733 q 374 762 336 762 z "},"θ":{"ha":650,"x_min":58,"x_max":593,"o":"m 593 532 q 564 228 593 349 q 474 47 534 107 q 323 -14 414 -14 q 124 121 190 -14 q 58 530 58 256 q 88 831 58 711 q 178 1010 119 951 q 326 1070 238 1070 q 527 937 460 1070 q 593 532 593 803 m 323 90 q 429 189 393 90 q 468 486 464 288 l 182 486 q 220 190 186 290 q 323 90 254 90 m 326 967 q 222 873 256 967 q 184 591 189 779 l 469 591 q 429 872 464 777 q 326 967 395 967 z "},"ι":{"ha":361,"x_min":87,"x_max":339,"o":"m 211 749 l 211 186 q 224 117 211 138 q 267 96 238 96 q 306 102 286 96 q 339 115 327 107 l 339 10 q 290 -7 317 -1 q 234 -14 264 -14 q 151 6 184 -14 q 103 70 119 26 q 87 184 87 114 l 87 749 l 211 749 z "},"κ":{"ha":571,"x_min":87,"x_max":568,"o":"m 555 749 l 372 456 l 568 0 l 435 0 l 288 359 l 211 269 l 211 0 l 87 0 l 87 749 l 211 749 l 211 545 q 210 462 211 501 q 205 386 208 422 l 210 386 q 230 427 220 407 q 250 464 241 447 l 422 749 l 555 749 z "},"λ":{"ha":578,"x_min":9,"x_max":583,"o":"m 9 0 l 218 733 l 193 856 q 164 931 182 903 q 108 960 146 960 q 83 957 94 960 q 61 951 71 955 l 61 1055 q 81 1061 71 1059 q 103 1064 92 1063 q 127 1065 115 1065 q 211 1045 176 1065 q 271 980 246 1025 q 315 863 296 936 l 469 192 q 488 136 478 157 q 510 106 497 115 q 543 97 524 97 q 565 99 555 97 q 583 104 575 101 l 583 -4 q 565 -9 574 -7 q 544 -13 555 -12 q 521 -14 533 -14 q 445 6 475 -14 q 393 66 414 25 q 356 172 372 106 l 302 415 q 294 451 297 433 q 288 485 290 469 q 282 517 285 502 q 277 549 280 533 l 272 549 q 267 507 270 528 q 258 467 264 486 l 137 0 l 9 0 z "},"μ":{"ha":646,"x_min":87,"x_max":558,"o":"m 558 749 l 558 0 l 460 0 l 446 105 l 439 105 q 406 42 427 69 q 360 1 386 16 q 305 -14 334 -14 q 248 3 271 -14 q 210 53 224 19 l 205 53 q 208 5 207 28 q 210 -42 210 -19 q 211 -85 211 -65 l 211 -332 l 87 -332 l 87 749 l 211 749 l 211 277 q 233 142 211 188 q 300 97 254 97 q 380 128 351 97 q 422 218 409 159 q 435 363 435 277 l 435 749 l 558 749 z "},"ν":{"ha":569,"x_min":14,"x_max":530,"o":"m 14 749 l 142 749 l 235 289 q 247 231 241 259 q 256 179 252 203 q 262 135 260 155 l 267 135 q 346 317 315 222 q 391 520 376 413 q 406 749 406 628 l 530 749 q 506 474 530 602 q 430 229 481 346 q 298 0 379 113 l 184 0 l 14 749 z "},"ξ":{"ha":496,"x_min":58,"x_max":460,"o":"m 58 283 q 75 406 58 350 q 129 500 92 462 q 224 553 165 539 l 224 558 q 147 591 178 567 q 102 655 117 614 q 87 755 87 696 q 105 846 87 805 q 157 915 124 886 q 229 956 189 943 q 194 951 210 953 q 162 950 178 950 q 131 949 147 949 l 68 949 l 68 1055 l 444 1055 l 444 952 l 405 952 q 325 939 361 952 q 262 902 288 926 q 223 842 237 877 q 210 763 210 807 q 245 644 210 680 q 357 608 280 608 l 416 608 l 416 500 l 351 500 q 260 478 298 500 q 203 413 223 457 q 184 301 184 370 q 195 216 184 250 q 235 159 207 182 q 312 117 262 136 q 394 74 361 99 q 444 13 427 48 q 460 -72 460 -23 q 436 -173 460 -119 q 383 -272 413 -227 l 256 -272 q 298 -207 279 -240 q 327 -143 316 -173 q 337 -95 337 -114 q 327 -48 337 -68 q 293 -13 316 -28 q 232 17 270 3 q 132 75 170 40 q 76 162 94 111 q 58 283 58 214 z "},"ο":{"ha":628,"x_min":57,"x_max":572,"o":"m 572 375 q 556 218 572 290 q 510 95 541 147 q 429 15 478 43 q 313 -14 380 -14 q 201 15 249 -14 q 121 94 153 43 q 73 217 89 146 q 57 375 57 289 q 84 583 57 496 q 169 716 112 669 q 315 762 226 762 q 454 718 397 762 q 542 588 511 674 q 572 375 572 502 m 182 374 q 196 219 182 282 q 240 125 210 157 q 315 94 269 94 q 390 124 361 94 q 432 218 418 155 q 446 375 446 281 q 432 530 446 468 q 390 624 418 593 q 315 655 361 655 q 214 585 245 655 q 182 374 182 515 z "},"π":{"ha":688,"x_min":8,"x_max":661,"o":"m 604 99 q 630 102 616 99 q 656 111 644 104 l 656 10 q 616 -5 641 1 q 565 -10 592 -10 q 460 38 494 -10 q 426 186 426 87 l 426 642 l 240 642 l 240 0 l 117 0 l 117 642 l 8 642 l 8 696 l 81 749 l 661 749 l 661 642 l 551 642 l 551 189 q 564 120 551 140 q 604 99 576 99 z "},"ρ":{"ha":645,"x_min":85,"x_max":589,"o":"m 589 376 q 565 170 589 258 q 487 34 540 82 q 352 -14 435 -14 q 269 2 305 -14 q 208 45 233 18 l 201 45 q 207 -50 205 -4 q 208 -136 208 -96 l 208 -332 l 85 -332 l 85 384 q 111 588 85 503 q 193 717 137 672 q 338 762 250 762 q 476 720 420 762 q 561 591 532 677 q 589 376 589 506 m 334 655 q 238 593 269 655 q 207 402 207 531 l 207 147 q 259 106 229 121 q 323 92 289 92 q 429 162 395 92 q 463 376 463 232 q 433 588 463 521 q 334 655 402 655 z "},"ς":{"ha":489,"x_min":58,"x_max":467,"o":"m 319 762 q 397 752 360 762 q 467 725 435 743 l 432 623 q 378 645 404 637 q 326 653 353 653 q 219 582 254 653 q 184 367 184 511 q 192 254 184 300 q 228 176 201 208 q 311 119 256 145 q 392 73 358 98 q 444 13 425 48 q 462 -73 462 -22 q 439 -173 462 -119 q 385 -272 416 -227 l 259 -272 q 300 -208 282 -241 q 328 -144 317 -174 q 338 -94 338 -115 q 329 -51 338 -70 q 297 -15 320 -32 q 232 21 274 3 q 151 68 184 42 q 97 133 118 94 q 67 228 77 172 q 58 363 58 283 q 87 584 58 496 q 175 718 117 673 q 319 762 233 762 z "},"σ":{"ha":652,"x_min":58,"x_max":625,"o":"m 573 336 q 542 146 573 224 q 453 27 511 68 q 315 -14 395 -14 q 174 30 232 -14 q 87 155 117 73 q 58 355 58 237 q 93 574 58 486 q 199 705 127 661 q 378 749 270 749 l 625 749 l 625 642 l 494 642 q 554 506 534 582 q 573 336 573 429 m 183 358 q 198 209 183 268 q 243 121 214 150 q 316 92 273 92 q 415 158 382 92 q 448 351 448 224 q 442 453 448 404 q 422 549 435 502 q 389 642 410 596 l 357 642 q 224 573 266 642 q 183 358 183 504 z "},"τ":{"ha":446,"x_min":3,"x_max":422,"o":"m 422 749 l 422 642 l 254 642 l 254 224 q 272 125 254 157 q 329 94 290 94 q 368 98 349 94 q 408 109 388 102 l 408 8 q 358 -9 390 -2 q 298 -16 327 -16 q 202 9 239 -16 q 149 86 165 35 q 132 216 132 137 l 132 642 l 3 642 l 3 696 l 73 749 l 422 749 z "},"υ":{"ha":631,"x_min":85,"x_max":571,"o":"m 316 -12 q 182 22 233 -11 q 109 128 132 55 q 85 322 86 201 l 85 749 l 209 749 l 209 311 q 230 153 209 210 q 316 97 251 97 q 416 165 385 97 q 448 378 448 234 q 439 561 448 471 q 408 749 429 650 l 530 749 q 554 618 545 675 q 567 506 563 561 q 571 380 571 450 q 506 86 571 184 q 316 -12 440 -12 z "},"φ":{"ha":819,"x_min":58,"x_max":763,"o":"m 193 758 l 286 696 q 210 548 236 631 q 184 373 184 465 q 202 232 184 291 q 256 138 220 172 q 347 95 292 104 l 347 507 q 393 699 347 635 q 534 762 439 762 q 662 713 611 762 q 738 583 713 665 q 763 402 763 502 q 730 199 763 288 q 632 54 698 109 q 467 -11 566 -1 l 467 -332 l 347 -332 l 347 -11 q 188 44 252 -3 q 91 175 123 92 q 58 375 58 259 q 91 579 58 484 q 193 758 125 673 m 534 656 q 481 620 496 656 q 467 508 467 583 l 467 95 q 557 139 519 101 q 616 244 595 177 q 637 401 637 311 q 624 538 637 481 q 587 626 610 595 q 534 656 564 656 z "},"χ":{"ha":555,"x_min":-3,"x_max":552,"o":"m 90 758 q 162 741 132 758 q 214 686 192 724 q 252 585 235 648 l 296 398 l 414 749 l 540 749 l 342 231 l 425 -101 q 449 -179 438 -152 q 474 -217 460 -206 q 509 -227 488 -227 q 532 -225 522 -227 q 552 -220 543 -223 l 552 -323 q 520 -331 538 -328 q 481 -334 503 -334 q 409 -316 439 -334 q 357 -259 378 -299 q 317 -152 335 -219 l 262 73 l 127 -332 l -3 -332 l 218 240 l 139 547 q 108 628 124 603 q 64 653 92 653 q 40 651 52 653 q 20 646 28 649 l 20 749 q 51 755 33 753 q 90 758 69 758 z "},"ψ":{"ha":799,"x_min":81,"x_max":734,"o":"m 463 1055 l 463 98 q 548 136 515 102 q 595 235 580 170 q 610 399 610 300 q 599 572 610 486 q 566 749 588 659 l 687 749 q 723 566 711 650 q 734 397 734 482 q 704 179 734 268 q 613 41 673 90 q 463 -12 553 -7 l 463 -332 l 343 -332 l 343 -12 q 199 31 257 -9 q 111 150 140 71 q 81 349 81 229 l 81 749 l 205 749 l 205 355 q 219 218 205 273 q 263 132 233 162 q 343 98 294 102 l 343 1055 l 463 1055 z "},"ω":{"ha":806,"x_min":64,"x_max":742,"o":"m 677 749 q 714 620 699 683 q 735 493 728 557 q 742 361 742 429 q 719 158 742 242 q 652 31 696 75 q 548 -14 608 -14 q 455 20 492 -14 q 404 116 418 54 l 401 116 q 350 20 387 54 q 254 -14 313 -14 q 152 30 195 -14 q 87 158 109 74 q 64 361 64 241 q 71 494 64 431 q 92 619 78 557 q 128 749 106 681 l 252 749 q 204 563 220 659 q 188 363 188 467 q 208 166 188 231 q 270 100 227 100 q 312 122 296 100 q 336 190 328 144 q 343 305 343 235 l 343 491 l 462 491 l 462 305 q 469 189 462 234 q 493 122 477 144 q 536 100 509 101 q 582 130 564 100 q 609 217 600 159 q 618 361 618 275 q 603 559 618 462 q 553 749 587 657 l 677 749 z "},"ϊ":{"ha":362,"x_min":-18,"x_max":340,"o":"m 212 749 l 212 186 q 225 117 212 138 q 267 96 239 96 q 307 102 286 96 q 340 115 328 107 l 340 10 q 291 -7 317 -1 q 235 -14 264 -14 q 152 6 184 -14 q 104 70 119 26 q 88 184 88 114 l 88 749 l 212 749 m -18 932 q 0 987 -18 969 q 45 1005 18 1005 q 91 986 73 1005 q 109 932 109 968 q 91 876 109 895 q 45 857 73 857 q 0 876 18 857 q -18 932 -18 895 m 212 932 q 230 987 212 969 q 276 1005 248 1005 q 322 986 304 1005 q 340 932 340 968 q 322 876 340 895 q 276 857 304 857 q 230 876 248 857 q 212 932 212 895 z "},"ϋ":{"ha":631,"x_min":85,"x_max":571,"o":"m 316 -12 q 182 22 233 -11 q 109 128 132 55 q 85 322 86 201 l 85 749 l 209 749 l 209 311 q 230 153 209 210 q 316 97 251 97 q 416 165 385 97 q 448 378 448 234 q 439 561 448 471 q 408 749 429 650 l 530 749 q 554 618 545 675 q 567 506 563 561 q 571 380 571 450 q 506 86 571 184 q 316 -12 440 -12 m 137 932 q 155 987 137 969 q 200 1005 173 1005 q 245 986 228 1005 q 263 932 263 968 q 245 876 263 895 q 200 857 228 857 q 155 876 173 857 q 137 932 137 895 m 366 932 q 385 987 366 969 q 431 1005 403 1005 q 477 986 458 1005 q 495 932 495 968 q 477 876 495 895 q 431 857 458 857 q 384 876 402 857 q 366 932 366 895 z "},"ό":{"ha":628,"x_min":57,"x_max":572,"o":"m 572 375 q 556 218 572 290 q 510 95 541 147 q 429 15 478 43 q 313 -14 380 -14 q 201 15 249 -14 q 121 94 153 43 q 73 217 89 146 q 57 375 57 289 q 84 583 57 496 q 169 716 112 669 q 315 762 226 762 q 454 718 397 762 q 542 588 511 674 q 572 375 572 502 m 182 374 q 196 219 182 282 q 240 125 210 157 q 315 94 269 94 q 390 124 361 94 q 432 218 418 155 q 446 375 446 281 q 432 530 446 468 q 390 624 418 593 q 315 655 361 655 q 214 585 245 655 q 182 374 182 515 m 256 842 l 256 859 q 270 905 261 875 q 288 970 279 935 q 303 1036 296 1005 q 313 1081 310 1066 l 431 1081 l 431 1065 q 402 993 418 1032 q 367 915 385 954 q 330 842 348 876 l 256 842 z "},"ύ":{"ha":631,"x_min":85,"x_max":571,"o":"m 316 -12 q 182 22 233 -11 q 109 128 132 55 q 85 322 86 201 l 85 749 l 209 749 l 209 311 q 230 153 209 210 q 316 97 251 97 q 416 165 385 97 q 448 378 448 234 q 439 561 448 471 q 408 749 429 650 l 530 749 q 554 618 545 675 q 567 506 563 561 q 571 380 571 450 q 506 86 571 184 q 316 -12 440 -12 m 260 842 l 260 859 q 275 905 266 875 q 292 970 283 935 q 308 1036 301 1005 q 317 1081 315 1066 l 436 1081 l 436 1065 q 407 993 423 1032 q 371 915 390 954 q 334 842 353 876 l 260 842 z "},"ώ":{"ha":806,"x_min":64,"x_max":742,"o":"m 677 749 q 714 620 699 683 q 735 493 728 557 q 742 361 742 429 q 719 158 742 242 q 652 31 696 75 q 548 -14 608 -14 q 455 20 492 -14 q 404 116 418 54 l 401 116 q 350 20 387 54 q 254 -14 313 -14 q 152 30 195 -14 q 87 158 109 74 q 64 361 64 241 q 71 494 64 431 q 92 619 78 557 q 128 749 106 681 l 252 749 q 204 563 220 659 q 188 363 188 467 q 208 166 188 231 q 270 100 227 100 q 312 122 296 100 q 336 190 328 144 q 343 305 343 235 l 343 491 l 462 491 l 462 305 q 469 189 462 234 q 493 122 477 144 q 536 100 509 101 q 582 130 564 100 q 609 217 600 159 q 618 361 618 275 q 603 559 618 462 q 553 749 587 657 l 677 749 m 348 842 l 348 859 q 362 905 353 875 q 380 970 371 935 q 395 1036 389 1005 q 405 1081 402 1066 l 524 1081 l 524 1065 q 494 993 511 1032 q 459 915 477 954 q 422 842 440 876 l 348 842 z "},"Ё":{"ha":564,"x_min":99,"x_max":503,"o":"m 503 0 l 99 0 l 99 991 l 503 991 l 503 879 l 228 879 l 228 574 l 486 574 l 486 460 l 228 460 l 228 115 l 503 115 l 503 0 m 118 1159 q 136 1214 118 1196 q 181 1232 154 1232 q 227 1214 209 1232 q 244 1159 244 1195 q 227 1103 244 1122 q 181 1084 209 1084 q 136 1103 154 1084 q 118 1159 118 1122 m 347 1159 q 366 1214 347 1196 q 412 1232 384 1232 q 458 1214 439 1232 q 476 1159 476 1195 q 458 1103 476 1122 q 412 1084 439 1084 q 365 1103 383 1084 q 347 1159 347 1122 z "},"Ђ":{"ha":718,"x_min":15,"x_max":648,"o":"m 464 -14 q 425 -10 444 -14 q 389 0 406 -6 l 389 113 q 416 103 402 106 q 442 99 429 99 q 486 112 469 99 q 511 152 503 124 q 519 224 519 180 l 519 370 q 490 468 519 437 q 397 500 461 500 l 310 500 l 310 0 l 181 0 l 181 877 l 15 877 l 15 991 l 493 991 l 493 877 l 310 877 l 310 614 l 410 614 q 588 553 528 614 q 648 369 648 491 l 648 231 q 601 49 648 111 q 464 -14 553 -14 z "},"Ѓ":{"ha":522,"x_min":99,"x_max":523,"o":"m 508 991 l 508 877 l 228 877 l 228 0 l 99 0 l 99 991 l 508 991 m 524 1291 l 524 1278 q 487 1229 509 1257 q 438 1172 465 1201 q 385 1116 412 1143 q 336 1069 358 1088 l 254 1069 l 254 1085 q 303 1158 281 1122 q 344 1226 326 1193 q 378 1291 363 1259 l 524 1291 z "},"Є":{"ha":639,"x_min":66,"x_max":605,"o":"m 409 892 q 319 866 356 892 q 258 794 281 840 q 221 692 234 749 q 202 572 208 634 l 496 572 l 496 458 l 201 458 q 216 320 203 385 q 255 206 229 255 q 321 129 281 157 q 414 101 361 101 q 504 115 465 101 q 576 148 543 130 l 576 31 q 495 -2 540 9 q 399 -14 450 -14 q 221 48 296 -14 q 107 224 147 109 q 66 497 66 338 q 88 695 66 603 q 151 858 109 787 q 257 967 193 928 q 405 1007 320 1007 q 510 993 459 1007 q 605 950 560 979 l 563 842 q 488 879 526 867 q 409 892 450 892 z "},"Ѕ":{"ha":580,"x_min":52,"x_max":530,"o":"m 530 275 q 496 125 530 190 q 403 23 463 60 q 262 -14 343 -14 q 186 -9 223 -14 q 116 6 150 -4 q 52 31 83 16 l 52 164 q 155 121 100 136 q 256 106 210 106 q 334 127 303 106 q 382 184 366 149 q 399 263 399 220 q 385 340 399 309 q 338 399 371 372 q 249 457 306 427 q 170 507 205 481 q 110 564 135 532 q 72 639 85 596 q 58 741 58 682 q 90 880 57 821 q 181 973 122 940 q 317 1006 240 1006 q 428 991 375 1006 q 522 955 481 977 l 482 838 q 398 874 439 863 q 321 886 357 886 q 249 868 279 886 q 203 819 219 850 q 188 747 188 788 q 202 668 188 699 q 249 610 216 636 q 339 553 282 585 q 445 480 403 519 q 509 391 488 441 q 530 275 530 341 z "},"І":{"ha":325,"x_min":99,"x_max":228,"o":"m 99 0 l 99 991 l 228 991 l 228 0 l 99 0 z "},"Ї":{"ha":325,"x_min":-17,"x_max":341,"o":"m 99 0 l 99 991 l 228 991 l 228 0 l 99 0 m -17 1164 q 1 1219 -17 1201 q 46 1237 19 1237 q 92 1218 74 1237 q 109 1164 109 1200 q 92 1108 109 1127 q 46 1089 74 1089 q 1 1108 19 1089 q -17 1164 -17 1126 m 212 1164 q 231 1219 212 1201 q 277 1237 249 1237 q 323 1218 304 1237 q 341 1164 341 1200 q 323 1108 341 1127 q 277 1089 304 1089 q 230 1108 248 1089 q 212 1164 212 1127 z "},"Ј":{"ha":321,"x_min":-70,"x_max":225,"o":"m 23 -273 q -25 -269 -2 -273 q -70 -258 -49 -266 l -70 -144 q -33 -154 -53 -150 q 7 -158 -14 -158 q 59 -141 40 -158 q 88 -86 79 -124 q 97 14 97 -49 l 97 991 l 225 991 l 225 7 q 202 -157 225 -96 q 134 -245 179 -218 q 23 -273 89 -273 z "},"Љ":{"ha":968,"x_min":-2,"x_max":922,"o":"m 68 -11 q 28 -7 45 -11 q -2 3 11 -4 l -2 115 q 20 105 8 109 q 45 102 32 102 q 86 117 71 102 q 111 160 102 132 q 127 226 120 188 q 142 326 134 262 q 160 486 150 391 q 180 707 170 581 q 204 991 191 833 l 575 991 l 575 584 l 629 584 q 790 553 725 584 q 889 458 856 522 q 922 298 922 395 q 847 79 922 157 q 634 0 772 0 l 450 0 l 450 871 l 317 871 q 298 637 307 740 q 281 456 289 534 q 268 322 274 378 q 255 228 261 266 q 243 169 249 191 q 208 69 229 109 q 154 9 187 29 q 68 -11 121 -10 m 574 113 l 629 113 q 751 159 710 113 q 791 295 791 205 q 774 394 791 355 q 722 453 758 433 q 628 472 686 472 l 574 472 l 574 113 z "},"Њ":{"ha":985,"x_min":99,"x_max":941,"o":"m 99 0 l 99 991 l 228 991 l 228 579 l 469 579 l 469 991 l 594 991 l 594 579 l 646 579 q 809 548 744 579 q 908 455 875 517 q 941 298 941 393 q 864 78 941 155 q 652 0 788 0 l 469 0 l 469 467 l 228 467 l 228 0 l 99 0 m 593 113 l 647 113 q 768 159 727 113 q 810 295 810 205 q 792 392 810 354 q 739 448 775 430 q 647 467 703 467 l 593 467 l 593 113 z "},"Ћ":{"ha":728,"x_min":15,"x_max":648,"o":"m 493 991 l 493 877 l 310 877 l 310 614 l 412 614 q 589 552 529 614 q 648 369 648 490 l 648 0 l 519 0 l 519 370 q 490 468 519 437 q 397 500 461 500 l 310 500 l 310 0 l 181 0 l 181 877 l 15 877 l 15 991 l 493 991 z "},"Ќ":{"ha":629,"x_min":99,"x_max":634,"o":"m 634 0 l 490 0 l 228 511 l 228 0 l 99 0 l 99 991 l 228 991 l 228 519 l 482 991 l 621 991 l 355 517 l 634 0 m 564 1291 l 564 1278 q 528 1229 550 1257 q 479 1172 505 1201 q 426 1116 452 1143 q 377 1069 399 1088 l 295 1069 l 295 1085 q 344 1158 321 1122 q 385 1226 366 1193 q 418 1291 404 1259 l 564 1291 z "}}}
